<svg version="1.2" xmlns="http://www.w3.org/2000/svg" viewBox="0 0 91 99" width="91" height="99">

	<defs>
		<linearGradient id="g1" x1="-410.5" y1="983" x2="-410.5" y2="865" gradientUnits="userSpaceOnUse">
			<stop offset="0" stop-color="#87b2e4"/>
			<stop offset=".997" stop-color="#d2dfee"/>
			<stop offset="1" stop-color="#d2dfee"/>
		</linearGradient>
		<linearGradient id="g2" x1="-78.5" y1="956" x2="-78.5" y2="839" gradientUnits="userSpaceOnUse">
			<stop offset="0" stop-color="#87b2e4"/>
			<stop offset=".997" stop-color="#d2dfee"/>
			<stop offset="1" stop-color="#d2dfee"/>
		</linearGradient>
		<linearGradient id="g3" x1="251.5" y1="952" x2="251.5" y2="835" gradientUnits="userSpaceOnUse">
			<stop offset="0" stop-color="#87b2e4"/>
			<stop offset=".997" stop-color="#d2dfee"/>
			<stop offset="1" stop-color="#d2dfee"/>
		</linearGradient>
		<linearGradient id="g4" x1="895.5" y1="953" x2="895.5" y2="836" gradientUnits="userSpaceOnUse">
			<stop offset="0" stop-color="#87b2e4"/>
			<stop offset=".997" stop-color="#d2dfee"/>
			<stop offset="1" stop-color="#d2dfee"/>
		</linearGradient>
		<linearGradient id="g5" x1="1213.5" y1="957" x2="1213.5" y2="840" gradientUnits="userSpaceOnUse">
			<stop offset="0" stop-color="#87b2e4"/>
			<stop offset=".997" stop-color="#d2dfee"/>
			<stop offset="1" stop-color="#d2dfee"/>
		</linearGradient>
		<linearGradient id="g6" x1="1524.5" y1="952" x2="1524.5" y2="835" gradientUnits="userSpaceOnUse">
			<stop offset="0" stop-color="#87b2e4"/>
			<stop offset=".997" stop-color="#d2dfee"/>
			<stop offset="1" stop-color="#d2dfee"/>
		</linearGradient>
	</defs>
	<style>
		.s0 { fill-opacity: .2;fill: #98bae2 } 
		.s1 { fill: #ffffff } 
		.s2 { fill: #000000 } 
		.s3 { fill: #c11111 } 
		.s4 { fill: #dfe9f5 } 
		.s5 { fill: #f8b122 } 
		.s6 { fill: #fabd43 } 
		.s7 { fill: #fcce72 } 
		.s8 { fill: url(#g1) } 
		.s9 { fill: url(#g2) } 
		.s10 { fill: #75a1d5 } 
		.s11 { fill: url(#g3) } 
		.s12 { fill: url(#g4) } 
		.s13 { fill: none;stroke: #75a1d5;stroke-width: 6 } 
		.s14 { fill: url(#g5) } 
		.s15 { fill: url(#g6) } 
	</style>
	<path id="椭圆 1" class="s0" d="m1934-387c271.7 0 492 220.3 492 492 0 271.7-220.3 492-492 492-271.7 0-492-220.3-492-492 0-271.7 220.3-492 492-492z"/>
	<path id="椭圆 1 拷贝" class="s0" d="m-491 484c271.7 0 492 220.3 492 492 0 271.7-220.3 492-492 492-271.7 0-492-220.3-492-492 0-271.7 220.3-492 492-492z"/>
	<path id="圆角矩形 1" class="s1" d="m-556-387h2184c5.5 0 10 4.5 10 10v274c0 5.5-4.5 10-10 10h-2184c-5.5 0-10-4.5-10-10v-274c0-5.5 4.5-10 10-10z"/>
	<path id="Weather forecast" class="s2" aria-label="Weather forecast"  d="m-422.3-170.1l-52.1-132.3-10.6-1.9v-2.9h23.1q10.3 0 16.8 4.6 6.6 4.7 9.3 11.8l29.1 74.4 17-49.9-14.3-36.1-10.6-1.9v-2.9h23.2q10.2 0 16.6 4.6 6.3 4.5 9.4 11.8l29.1 74.4 27.8-82.1-14.4-5.8v-2.9h35.6v2.9l-15.4 5.8-43.4 128.4h-5.8l-34.7-88.2-29.9 88.2zm140.8-1.9v-2.9l11.6-2.9v-123.6l-11.6-2.9v-2.9h103.2v34.7h-5.8q-3.6-2.8-6.3-7.3-6.2-10.4-6.2-22.6h-41.5v60.9h22.2q1.4-7.4 5-13.8 1.6-2.9 3.7-5.6h5.8v43.5h-5.8q-2.1-2.7-3.7-5.6-3.6-6.4-5-13.7h-22.2v59.9h45.4q0-12.2 6.1-22.6 2.7-4.5 6.4-7.4h5.8v34.8zm110.9 0v-2.9l15.5-5.8 53-128.5h5.8l55 131.4 9.6 2.9v2.9h-23.1q-10.1 0-16.4-4.4-6.4-4.7-9.5-12l-9.8-23.2h-46.1l-12.8 30.9 14.5 5.8v2.9zm56.9-95.2l-21 50.8h42.2zm100.4 95.2v-2.9l11.5-2.9v-124.6h-22.1q0 11.8-6.4 22.6-2.7 4.5-6.2 7.4h-5.8v-34.8h112.9v34.8h-5.8q-3.7-2.9-6.4-7.4-6.1-10.4-6.1-22.6h-22.2v124.6l11.6 2.9v2.9zm153.3 0h-55v-2.9l11.6-2.9v-123.6l-11.6-2.9v-2.9h55v2.9l-11.5 2.9v59.9h41.4v-59.9l-11.5-2.9v-2.9h54.9v2.9l-11.5 2.9v123.6l11.5 2.9v2.9h-54.9v-2.9l11.5-2.9v-58.9h-41.4v58.9l11.5 2.9zm90.7 0v-2.9l11.6-2.9v-123.6l-11.6-2.9v-2.9h103.2v34.8h-5.8q-3.6-2.9-6.3-7.4-6.2-10.4-6.2-22.6h-41.5v60.9h22.2q1.3-7.4 5-13.8 1.6-2.8 3.7-5.6h5.8v43.5h-5.8q-2.1-2.7-3.7-5.6-3.7-6.4-5-13.7h-22.2v59.9h45.3q0-12.2 6.2-22.6 2.7-4.5 6.4-7.4h5.8v34.8zm124.4 0v-2.9l11.6-2.9v-123.6l-11.6-2.9v-2.9h51.1q32.8 0 47.3 10 14.5 9.9 14.5 27.7 0 11.9-6.4 19.5-6.4 7.3-16.4 11-10.6 4-22.6 4.2v1q7.2 0.4 12.6 2.1 13.5 4.3 18.3 15.3l17.4 38.6 9.6 2.9v2.9h-27q-15.8 0-23.1-16.4l-19.3-43.5h-12.6v54.1l13.5 2.9v2.9zm43.4-64.7h7.7q13.6 0 21.3-8.5 7.7-8.5 7.7-24.3 0-15.9-7.7-24.4-7.7-8.5-21.3-8.5h-7.7zm145.7 64.7v-2.9l11.6-2.9v-123.6l-11.6-2.9v-2.9h103.2v34.8h-5.8q-3.6-2.9-6.3-7.4-6.2-10.4-6.2-22.6h-41.5v60.9h22.2q1.3-7.4 5-13.7 1.5-2.9 3.7-5.6h5.8v43.4h-5.8q-2.2-2.7-3.7-5.6-3.7-6.3-5-13.7h-22.2v58.9l11.6 2.9v2.9zm175.5 2.9q-18.9 0-33.1-8.1-14.1-8.3-21.8-24.1-7.8-15.9-7.8-38.3 0-22.4 7.8-38.2 7.7-15.9 21.8-24 14.2-8.3 33.1-8.3 18.9 0 33 8.3 14.3 8.1 22 24 7.7 15.8 7.7 38.2 0 22.4-7.7 38.3-7.7 15.8-22 24.1-14.1 8.1-33 8.1zm0-3.8q7.6 0 13.9-6.4 6.6-6.4 10.8-21.3 4.3-14.8 4.3-39 0-24.1-4.3-39-4.2-14.9-10.8-21.3-6.3-6.3-13.9-6.3-7.5 0-14 6.3-6.4 6.4-10.7 21.3-4.2 14.9-4.2 39 0 24.2 4.2 39 4.3 14.9 10.7 21.3 6.5 6.4 14 6.4zm81.1 0.9v-2.9l11.5-2.9v-123.6l-11.5-2.9v-2.9h51.1q32.8 0 47.3 10.1 14.4 9.8 14.4 27.6 0 12-6.3 19.5-6.4 7.3-16.4 11-10.7 4.1-22.6 4.2v1q7.1 0.4 12.5 2.1 13.5 4.3 18.4 15.3l17.3 38.6 9.7 2.9v2.9h-27q-15.9 0-23.2-16.4l-19.3-43.5h-12.5v54.1l13.5 2.9v2.9zm43.4-64.7h7.7q13.5 0 21.2-8.5 7.7-8.5 7.7-24.3 0-15.9-7.7-24.4-7.7-8.5-21.2-8.5h-7.7zm91.6 64.7v-2.8l11.6-2.9v-123.7l-11.6-2.9v-2.9h103.2v34.8h-5.8q-3.6-2.9-6.3-7.3-6.2-10.5-6.2-22.6h-41.5v60.8h22.2q1.4-7.3 5-13.7 1.6-2.9 3.7-5.6h5.8v43.5h-5.8q-2.1-2.8-3.7-5.6-3.6-6.4-5-13.8h-22.2v59.9h45.4q0-12.2 6.1-22.6 2.7-4.4 6.4-7.3h5.8v34.7zm187.1 2.9q-30.8 0-48.2-18.3-17.4-18.4-17.4-52.2 0-22.2 7.6-38 7.7-16.1 21.4-24.2 13.9-8.3 32-8.3 11 0 22.2 6.4 4.2 2.3 8.5 6.2 3.3-5 6.7-7.9 3.5-2.5 3.9-2.7h4.8v36.7h-7.7q-2.5-9.3-7.5-16.8-4.7-7.4-11.6-12.2-6.8-4.8-15.6-4.8-13.3 0-22.2 15.4-8.7 15.5-8.7 50.2 0 35.4 9.5 50.6 9.6 15.1 26.2 15.1 9.1 0 17.2-5 8.3-5.2 13.3-13.7 5.2-8.5 5.2-18h4.8q0 11-6 20.7-5.8 9.4-16 15.2-10 5.6-22.4 5.6zm43.4-2.9v-2.8l15.5-5.8 53-128.5h5.8l55 131.4 9.6 2.9v2.8h-23.1q-10 0-16.4-4.4-6.4-4.6-9.5-12l-9.8-23.2h-46.1l-12.7 31 14.4 5.8v2.8zm56.9-95.2l-21 50.8h42.3zm135 98.2q-13.7 0-25.6-6.2-5.4-2.7-9.1-6.4-2.7 4.4-6.8 7.9-3.4 2.5-3.8 2.7h-4.8v-36.7h7.7q2.9 9.5 8.1 17 11.7 16.8 30.5 16.8 10.9 0 17.5-6.5 6.6-6.6 6.6-17.6 0-6.4-3.9-11.4-3.7-5-9.3-8.9-5.5-3.9-15.6-9.7-12.7-7.1-20.6-12.9-7.9-5.8-13.5-14.5-5.6-8.9-5.6-20.9 0-9.4 5.2-17 5.4-7.7 16-12.1 10.6-4.7 26-4.7 11.2 0 22.4 6.4 4.3 2.3 8.5 6.2 3.3-5 6.8-7.9 3.4-2.5 3.8-2.7h4.8v36.7h-7.7q-2.5-9.3-7.5-16.8-4.6-7.4-11.6-12.2-6.7-4.8-15.6-4.8-7.5 0-12.9 6-5.4 5.9-5.4 15.2 0 7.2 4 13 4.3 5.6 10.3 9.8 6.1 4.3 16.5 10.2 12.2 7 19.7 12.4 7.5 5.4 12.8 13.5 5.2 8 5.2 18.4 0 10.4-6 19.1-6 8.5-18 13.5-11.9 5.1-29.1 5.1zm91.7-2.9v-2.9l11.5-2.9v-124.6h-22.2q0 11.7-6.3 22.6-2.7 4.4-6.2 7.3h-5.8v-34.8h112.9v34.8h-5.8q-3.7-2.9-6.4-7.3-6.2-10.5-6.2-22.6h-22.1v124.6l11.5 2.9v2.9z"/>
	<path id="2028 mon, June 13" class="s1" aria-label="2028 mon, June 13"  d="m887.5 233h-23.1q-1.4 0-2.3-0.9-0.9-1-0.9-2.3 0-1.4 0.9-2.2l17.7-20.8q1.9-2.2 2.9-4.1 1.1-2 1.1-3.7 0-2.8-1-4.8-0.9-2-2.7-3-1.7-1.1-4.2-1.1-2.3 0-4.3 1.2-1.8 1.2-3 3.3-1 2-1 4.4 0 1.2-1 2.2-0.9 0.9-2.2 0.9-1.3 0-2.3-0.9-0.9-1-0.9-2.2 0-4.3 1.9-7.6 2-3.3 5.3-5.3 3.4-1.9 7.5-1.9 4.3 0 7.4 1.8 3.2 1.8 4.8 5.1 1.8 3.3 1.8 7.9 0 2-0.9 4.1-0.8 2-2.1 3.9-1.3 1.9-2.6 3.4l-14.3 16.2h17.5q1.4 0 2.3 1 1 1 1 2.2 0 1.3-1 2.3-0.9 0.9-2.3 0.9zm24.5 0q-4.8 0-8.2-2.9-3.3-2.9-5-8.4-1.8-5.5-1.8-13.1 0-7.7 1.8-13.2 1.7-5.5 5-8.3 3.4-3 8.2-3 4.7 0 8 3 3.4 3 5.2 8.5 1.7 5.4 1.7 13 0 7.5-1.7 13-1.8 5.5-5.2 8.5-3.3 2.9-8 2.9zm0-6.5q2.9 0 4.7-2.3 1.9-2.4 2.8-6.5 1-4 1-9.1 0-5.2-1-9.2-0.9-4.1-2.8-6.5-1.8-2.3-4.7-2.3-2.9 0-4.8 2.3-1.9 2.3-2.8 6.4-0.9 4.1-0.9 9.3 0 5.1 0.9 9.2 0.9 4.1 2.8 6.4 2 2.3 4.8 2.3zm48.5 6.5h-23.2q-1.4 0-2.3-0.9-0.9-1-0.9-2.3 0-1.4 0.9-2.2l17.8-20.8q1.8-2.2 2.8-4.1 1.1-2 1.1-3.7 0-2.8-0.9-4.8-1-2-2.7-3-1.8-1.1-4.2-1.1-2.4 0-4.3 1.2-1.9 1.2-3 3.3-1.1 2-1.1 4.4 0 1.2-0.9 2.2-0.9 0.9-2.3 0.9-1.3 0-2.2-0.9-1-1-1-2.2 0-4.3 2-7.6 1.9-3.3 5.2-5.3 3.4-1.9 7.6-1.9 4.2 0 7.4 1.8 3.1 1.8 4.8 5.1 1.7 3.3 1.7 7.9 0 2-0.8 4.1-0.9 2-2.2 3.9-1.2 1.9-2.5 3.4l-14.4 16.2h17.6q1.3 0 2.3 1 0.9 1 0.9 2.2 0 1.3-0.9 2.3-1 0.9-2.3 0.9zm24.5-0.1q-4.1 0-7.4-1.9-3.3-2-5.1-5.4-1.9-3.4-1.9-7.7 0-4.1 1.9-7.3 1.8-3.4 5.1-5.2 3.3-1.9 7.4-1.9 4.2 0 7.4 1.9 3.3 1.8 5.2 5.2 1.9 3.2 1.8 7.3 0 4.3-1.9 7.7-1.9 3.4-5.1 5.4-3.3 1.9-7.4 1.9zm0-5.7q2.4 0 4.2-1.3 1.8-1.2 2.9-3.3 1.1-2.1 1.1-4.7 0-2.5-1-4.4-1.1-2-3-3.1-1.8-1.2-4.2-1.2-2.3 0-4.2 1.2-1.8 1.1-2.9 3.1-1.1 1.9-1.1 4.4 0 2.6 1 4.7 1.1 2.1 3 3.3 1.9 1.3 4.2 1.3zm0-19.1q-3.5 0-6.3-1.6-2.8-1.6-4.4-4.2-1.6-2.7-1.6-6.1 0-3.5 1.6-6.3 1.6-2.8 4.4-4.4 2.8-1.7 6.3-1.7 3.6-0.1 6.4 1.6 2.8 1.6 4.4 4.4 1.6 2.8 1.6 6.4 0 3.4-1.7 6.1-1.6 2.6-4.4 4.2-2.8 1.6-6.3 1.6zm0-5.2q1.8 0 3.2-1 1.3-0.9 2.2-2.4 0.8-1.6 0.8-3.4 0-1.9-0.8-3.4-0.8-1.4-2.2-2.2-1.3-0.9-3.2-0.9-2.6 0-4.3 1.8-1.8 1.8-1.9 4.7 0 2.8 1.7 4.8 1.9 2 4.5 2zm46 30.1q-1.4 0-2.3-0.9-0.9-1-0.9-2.4v-42.3q0-1.4 0.9-2.3 0.9-0.9 2.3-0.9 1.9 0 2.9 1.7l19.6 39.2h-2l19.1-39.2q1-1.7 2.8-1.7 1.4 0 2.3 0.9 1 0.9 1 2.3v42.3q0 1.4-1 2.4-1 0.9-2.3 0.9-1.3 0-2.3-0.9-0.9-1-0.9-2.4v-33.3l1.2-0.3-16.4 33.4q-1 1.6-2.8 1.6-2 0-3-1.9l-16.2-32.5 1.3-0.3v33.3q0 1.4-1 2.4-0.9 0.9-2.3 0.9zm73.1 0.3q-5.1 0-9-2.2-3.8-2.3-6.1-6.2-2.2-3.9-2.2-9 0-5.1 2.2-9 2.3-3.9 6.1-6.1 3.9-2.2 9-2.2 5 0 8.9 2.2 3.8 2.2 6 6.1 2.3 3.9 2.3 9 0 5.1-2.2 9-2.2 3.9-6.1 6.2-3.8 2.2-8.9 2.2zm0-5.7q3.2 0 5.7-1.5 2.5-1.5 3.9-4.1 1.5-2.6 1.5-6.1 0-3.4-1.5-6-1.4-2.7-3.9-4.2-2.5-1.5-5.7-1.5-3.3 0-5.8 1.5-2.5 1.5-3.9 4.2-1.5 2.6-1.5 6 0 3.5 1.5 6.1 1.4 2.6 3.9 4.1 2.5 1.5 5.8 1.5zm55.6 5.5q-1.4 0-2.3-0.9-0.9-1-0.9-2.3v-15.4q0-3.6-1.3-5.8-1.3-2.3-3.6-3.3-2.2-1.2-5-1.2-2.7 0-4.8 1.1-2.1 1.1-3.4 2.9-1.2 1.7-1.2 4h-4q0-3.9 1.9-7 2-3.1 5.3-4.9 3.3-1.8 7.4-1.8 4.3 0 7.7 1.9 3.4 1.8 5.4 5.3 2 3.6 2 8.8v15.4q0 1.3-1 2.3-0.8 0.9-2.2 0.9zm-25.7 0q-1.4 0-2.3-0.9-0.9-1-0.9-2.3v-27.9q0-1.4 0.9-2.3 0.9-0.9 2.3-0.9 1.4 0 2.3 0.9 0.9 0.9 0.9 2.3v27.9q0 1.3-0.9 2.3-0.9 0.9-2.3 0.9zm38.9 10.7q-0.8 0-1.2-0.5-0.4-0.5-0.4-1.1 0-1.3 0.7-2.1 0.8-1 1.5-2 0.7-1.1 0.7-2.6 0-1.1-0.5-1.7-0.5-0.7-1.1-1.3-0.6-0.6-1.1-1.4-0.5-0.7-0.5-1.9 0-1.6 1.1-2.8 1.1-1.1 3-1.1 2.4 0 3.6 1.6 1.3 1.7 1.3 4.4 0 2-0.7 4.2-0.6 2.2-1.7 4.1-1.1 1.8-2.3 3-1.3 1.2-2.4 1.2zm46.4-10.2q-4.4 0-7.8-1.9-3.4-1.9-5.3-5.3-1.9-3.4-1.9-7.8 0-1.4 0.9-2.3 1-0.9 2.4-0.9 1.4 0 2.3 0.9 0.9 0.9 0.9 2.3 0 2.7 1.1 4.8 1.1 2 3 3.2 1.9 1.1 4.4 1.1 2.5 0 4.5-1.1 1.9-1.2 3-3.2 1.1-2.1 1.1-4.8v-31.2q0-1.4 0.9-2.3 0.9-0.9 2.3-0.9 1.4 0 2.3 0.9 1 0.9 1 2.3v31.2q0 4.4-2 7.8-1.9 3.4-5.3 5.3-3.3 1.9-7.8 1.9zm41.4-0.3q-4.4 0-7.8-1.8-3.4-1.9-5.4-5.4-1.9-3.6-1.9-8.8v-15.4q0-1.3 0.9-2.2 0.9-1 2.3-1 1.4 0 2.2 1 1 0.9 1 2.2v15.4q0 3.5 1.3 5.8 1.3 2.3 3.5 3.4 2.3 1.1 5.1 1.1 2.7 0 4.8-1.1 2.1-1.1 3.3-2.9 1.3-1.8 1.3-4h3.9q0 3.8-1.9 7-1.9 3.1-5.2 4.9-3.2 1.8-7.4 1.8zm13.8-0.3q-1.4 0-2.3-0.9-0.9-0.9-0.9-2.3v-27.9q0-1.4 0.9-2.3 0.9-0.9 2.3-0.9 1.4 0 2.3 0.9 0.9 0.9 0.9 2.3v27.9q0 1.4-0.9 2.3-0.9 0.9-2.3 0.9zm43.3 0.1q-1.3 0-2.3-0.9-0.9-1-0.9-2.3v-15.4q0-3.6-1.3-5.8-1.3-2.3-3.5-3.3-2.2-1.2-5.1-1.2-2.6 0-4.8 1.1-2.1 1.1-3.3 2.9-1.3 1.7-1.3 4h-3.9q0-3.9 1.9-7 1.9-3.1 5.2-4.9 3.3-1.8 7.5-1.8 4.3 0 7.6 1.9 3.5 1.8 5.4 5.3 2 3.6 2 8.8v15.4q0 1.3-0.9 2.3-0.9 0.9-2.3 0.9zm-25.7 0q-1.4 0-2.3-0.9-0.9-1-0.9-2.3v-27.9q0-1.4 0.9-2.3 0.9-0.9 2.3-0.9 1.5 0 2.3 0.9 0.9 0.9 0.9 2.3v27.9q0 1.3-0.9 2.3-0.8 0.9-2.3 0.9zm55.6 0.2q-5.2 0-9.3-2.2-4-2.3-6.3-6.2-2.3-3.9-2.3-9 0-5.1 2.2-9 2.2-3.9 6-6.1 3.8-2.2 8.7-2.2 4.9 0 8.4 2.1 3.5 2.2 5.3 6 1.9 3.7 1.9 8.7 0 1.2-0.8 2-0.8 0.7-2.1 0.7h-25.2v-5h25l-2.5 1.8q-0.1-3.2-1.3-5.6-1.2-2.5-3.3-3.9-2.2-1.5-5.4-1.5-3.5 0-6.1 1.6-2.5 1.6-3.8 4.3-1.3 2.7-1.3 6.1 0 3.5 1.5 6.2 1.6 2.6 4.4 4.2 2.7 1.6 6.3 1.6 1.9 0 3.9-0.7 2.1-0.8 3.3-1.7 1-0.7 2-0.7 1.2-0.1 2 0.6 1 1 1.1 2.1 0.1 1.1-1 1.9-2.1 1.7-5.3 2.8-3.1 1.1-6 1.1zm50.5-0.3q-1.2 0-2.2-0.9-0.9-1-0.9-2.3v-38.1l-4.6 1.9q-1 0.5-2 0.5-1.4 0-2.3-0.9-0.9-0.9-0.9-2.3 0-1 0.5-1.8 0.5-0.8 1.6-1.2l9.8-3.5q0.3-0.1 0.6-0.2 0.3 0 0.5 0 1.5 0 2.3 0.9 0.9 0.9 0.9 2.3v42.4q0 1.3-1 2.3-0.9 0.9-2.3 0.9zm29 0q-4.6 0-8.3-1.9-3.6-2-5.7-5.4-2-3.5-2-7.7 0-1.4 0.8-2.3 0.9-1 2-1 1.3 0 2.1 1 0.8 0.9 0.8 2.3 0 2.6 1.3 4.7 1.4 2.2 3.6 3.5 2.3 1.2 5.1 1.2 4.1 0 6.6-2.2 2.6-2.3 2.6-6.5 0-2.6-1.2-4.6-1.1-2.2-3-3.4-2-1.3-4.4-1.3-1.4 0-2.3-0.9-0.9-0.9-0.9-2.3 0-1.4 0.9-2.3 0.9-0.9 2.3-0.9 1.7 0 3.4-0.9 1.6-0.9 2.7-2.4 1-1.6 1-3.5 0-2.8-2-4.6-2-1.9-5.1-1.9-2.4 0-4.4 0.9-1.9 1-3.1 2.5-1.1 1.6-1.1 3.5 0 1.5-0.8 2.5-0.9 0.9-2.1 0.9-1.2 0-2.1-0.9-0.8-0.9-0.8-2.3 0-3.6 1.9-6.5 1.9-2.9 5.1-4.5 3.3-1.7 7.3-1.7 3.7 0 6.6 1.6 3 1.6 4.7 4.4 1.7 2.6 1.7 6.1 0 2.4-1.1 4.3-1 1.9-2.7 3.2-1.7 1.4-3.6 2.2 3.3 1.2 5.4 3.1 2 1.9 3 4.4 1 2.5 1 5.4 0 4.1-2.1 7.3-2 3.2-5.5 5.1-3.4 1.8-7.6 1.8z"/>
	<path id="partly cloudy" class="s1" aria-label="partly cloudy"  d="m879.4 101.6v5.6q0 2.5 0.9 3.4 0.9 0.9 4 0.9h2.1q4.5 0 7.4-3.4 2.8-3.3 2.8-9.5v-0.4q0-6.2-3.3-9.8-3.2-3.5-8.2-3.5h-1.1q-3.6 0-4.3 1.8-0.2 0.6-0.2 6.6v6.6zm-17.9 36.3q0-3.1 2.6-4.8 2.6-1.8 3-4 0.6-3.4 0.6-19.7 0-16.2-0.8-19.4-0.8-3.3-2.2-4.5-3.2-2.6-3.2-3.4v-0.7q0-1.8 3.3-2.3 0.9-0.1 9.3-0.1l5.8-0.1h1.1l3.5 0.1h3.4q15.5 0 20.7 9.6 1.9 3.6 1.9 7.7v1.3q0 7.3-5.3 12.4-5.4 5-15.2 5.9-5.8 0.5-6.5 0.8-2.9 1.3-2.9 9.8 0 3.8 2.7 6 3.6 3 3.6 5 0 1.5-3.4 2.1-3.3 0.7-9.6 0.7-12.4 0-12.4-2.4zm69.7-24.2v0.4q0 0.5 4 0.5h5q6 0 6-0.7 0-1.8-3.7-11.5-3.7-9.6-3.8-9.6-0.1 0-3.8 9.7-3.7 9.6-3.7 11.2zm8.6-34.3h1.2q3.3 0 7.3 6.9 1.4 2.4 4.2 9.9 2.8 7.6 4.8 12.5 2 5 4.4 11.9 2.4 6.9 3.4 9.1 1.1 2.3 3.9 4.3 2.7 2.1 2.7 3.6 0 1.5-1.9 2-3 0.7-15.1 0.7-5.5 0-5.5-2.4 0-0.6 0.8-2.9 0.9-2.4 0.9-3.6 0-5.3-2.6-9-1-1.5-6.6-1.5-10.1 0-11.5 0.7-1.3 0.6-2.7 3.3-1.4 2.7-1.4 4.9 0 2.3 1.3 4.9 1.2 2.6 1.2 4.1 0 1.9-3.9 1.9-9.4 0-12.5-0.9-2-0.6-2-2.9 0-0.3 4-3.8 2.1-1.9 3.5-5 9.4-22.5 11.9-32.5 2.6-10.2 4.4-13.2 1.8-3 5.8-3zm61.7 5.9h-1.3q-3 0-3.7 0.9-0.6 0.8-0.6 4.2v15.8q0 1.8 0.8 2.5 0.7 0.7 3.2 0.7h1.7 0.4 1q0.3-0.1 0.6-0.1 3.1 0 6.1-2.9 2.9-3 2.9-7.7v-2.1q0-4.8-2.9-8-3-3.3-8.2-3.3zm-2-5.8h2.9q11.2 0 17.5 4.3 6.3 4.3 6.3 12.1 0 4.4-1.8 7.7-1.9 3.3-3.8 5-4.2 3.9-4.2 4.2 0 1.7 1.5 4.3 1.7 2.7 3.7 6.4 2.1 3.7 2.9 4.9 2.3 3 5 4.2 4.7 2.1 4.7 3.1 0 2.8-2.3 3.5-3.4 1-7.9 1-4.5 0-7.2-2.8-2.8-2.9-6.4-10.4-3.7-7.5-4.7-8.8-2.2-2.9-5.7-2.9-1.9 0-2.6 2-0.7 1.8-0.7 9.4 0 1.8 1.9 5.7l1.6 3q1.2 2.2 1.2 2.4 0 2.3-7.1 2.3-12.5 0-14.6-0.6-2.1-0.6-2.1-2.5 0-1.8 2.7-3.4 2.6-1.6 3.2-3.8 0.6-2.2 0.6-19.2 0-17-0.7-19.9-0.6-2.9-2.3-4.6-3.1-2.9-3.1-3.8 0-1.7 3.6-2.2 3.7-0.6 17.9-0.6zm53.9 6.8q-3.7 0-7.7 3.3-6.4 5.3-6.7 5.3-2.3 0-2.3-2.8v-1.4q0-4.7 0.8-8.5 0.4-2 1.7-2.4 1.4-0.4 26.3-0.4h16.4 2.9q4.7 0 5.6 1.5 0.9 1.5 0.9 6.7v2.8q0 4.6-2.1 4.6-1.9 0-4.6-3-2.7-3-4.9-4.3-2.2-1.4-5.8-1.4-2.9 0-3.4 3.8-0.2 1.3-0.2 19.5 0 18.2 0.5 20.1 0.5 2 3.6 4.3 3.1 2.2 3.1 3.8 0 1.5-1.6 1.9-1.6 0.4-10.2 0.4h-7.3q-4.3 0-5.9-0.3-1.6-0.3-1.6-1.8 0-1.4 3-4.1 2.9-2.6 3.4-4.6 0.6-2 0.6-19.8 0-17.8-0.4-19.6-0.3-1.9-1.2-2.7-0.8-0.9-2.9-0.9zm68.9-4.3q0 0.6-2.7 3.6-2.7 3.1-3.2 5.2-0.5 2.1-0.5 20 0 17.9 0.5 19.8 0.5 1.8 2.2 2.5 1.6 0.7 5.5 0.7 3.9 0 6.9-1.4 2.9-1.5 6.3-5.2 3.5-3.7 5.9-3.7 1.9 0 1.9 2.4v1.1q0 3.3-1.1 7.3-1 4-1.6 4.5-1.4 1.3-6.6 1.3h-23.4q-11.5 0-12.8-0.2-2.1-0.4-2.1-2.4 0-1 2.4-3.4 2.3-2.3 3.1-6 0.4-1.5 0.4-19.5 0-18.1-0.5-19.9-0.5-1.7-3.4-3.5-2.8-1.8-2.8-4 0-1.8 8.5-1.8h11.6q3.4 0 4.4 0.5 1.1 0.5 1.1 2.1zm55.2 46.8q0 3.3 1.5 5.4 0.6 0.8 2 2.2 1.3 1.4 1.3 2.3 0 2.5-4.1 2.5-1.3 0-3-0.1l-2.7-0.3q-2.7-0.1-6.9-0.1-4.2 0-5.6-0.3-1.4-0.3-1.4-1.5 0-1.3 2.3-3.6 2.4-2.3 3.2-4 0.8-1.8 0.8-7.4 0-5.7-2.9-10.8-9.9-17.6-13.7-22.7-1.1-1.5-4-3.5-2.8-2-2.8-3.9 0-1.8 2-2.6 3.1-1.1 12.5-1.1h1.5q6.3 0 6.3 3.1l-0.2 1-0.2 0.9q-0.4 2.1-0.4 2.7 0 3.1 6.9 16.6 1.9 3.7 2.8 3.7 1.7 0 7.1-9.6 2.8-5 2.8-7.2 0-2.1-1.1-4.2-1-2.2-1-3.3 0-1.9 2.2-2.6 3.4-1 10.9-1 5.5 0 5.5 2.2 0 2.7-2.1 4.2-3.9 2.7-4.9 4.3-4.9 7.4-11.6 21.4-3 6.3-3 17.3zm100.6-38.1q0 4.4-2.6 4.4-1.1 0-5.4-3.4-4.2-3.4-7.1-4.7-2.8-1.4-6.5-1.4-0.1 0-0.1 0-3.6 0-6.8 1.9-9.1 5.3-9.1 22.7 0 5 1.6 9.7 4.6 13.9 17.5 13.9 0.1 0 0.1 0 6 0 12.4-4.5 4.1-2.8 4.7-2.8 2.1 0 2.1 2v1.1q0 1-2 4.1-2 3-5.5 4.6-5.9 2.7-13.9 2.7h-1.5q-6.4 0-11.8-2.3-10.7-4.7-14.9-15.6-2.2-5.8-2.2-11.3v-3.1q0-5.4 2.1-11.1 4.4-11.7 15.2-16.4 5.6-2.4 11.1-2.4h1.4q13.8 0 18.3 2.6 2.9 1.7 2.9 9.3zm34-8.7q0 0.6-2.7 3.6-2.7 3.1-3.2 5.2-0.5 2.1-0.5 20 0 17.9 0.5 19.8 0.5 1.8 2.1 2.5 1.6 0.7 5.6 0.7 3.9 0 6.8-1.4 3-1.5 6.4-5.2 3.4-3.7 5.9-3.7 1.8 0 1.8 2.4v1.1q0 3.3-1 7.3-1.1 4-1.7 4.5-1.3 1.3-6.5 1.3h-23.5q-11.5 0-12.7-0.2-2.1-0.4-2.1-2.4 0-1 2.3-3.4 2.3-2.3 3.2-6 0.4-1.5 0.4-19.5 0-18.1-0.6-19.9-0.5-1.7-3.3-3.5-2.9-1.8-2.9-4 0-1.8 8.5-1.8h11.6q3.4 0 4.5 0.5 1.1 0.5 1.1 2.1zm71.5 30.1v-2.9q0-4.4-1.2-9.3-2.4-9.8-8.3-13.5-2.7-1.7-6.1-1.7h-0.7q-2.8 0-5.8 1.7-5.8 3.4-7.9 11.7-1.4 5.3-1.4 10.5v1.5q0 5.1 1.3 10 2.7 9.9 9 13.7 2.7 1.5 5.5 1.5h1.3q2.9 0 5.7-1.7 2.7-1.7 4.5-4.6 4.1-6.8 4.1-16.9zm-44-1.8q0-7 2.2-13 4.1-11.6 14.5-16.1 6.1-2.6 12.4-2.6l1 0.1h1q5.1 0 10.5 2.3 5.5 2.3 9.4 6.6 3.8 4.2 5.8 9.9 2.1 5.6 2.1 11.4v1q0 6.6-2.3 12.6-2.2 6-6.3 10.3-8.4 8.7-22.2 8.7-5.7 0-11-2.1-5.3-2.2-8.8-6.1-8.3-9.1-8.3-23zm95.3 30.4h-1.9q-6.2 0-11.1-2.6-9.2-5-10.5-16.4l-0.1-1.7q0-1 0-3.7l0.1-8.7v-9.8q0-8-0.4-9.1-0.5-1-3.2-2.4-2.7-1.5-2.7-3.3v-1.4q0-1.5 3.2-1.8 6.5-0.7 14.7-0.7 5.3 0 5.3 2 0 0.1-1.6 3.3-1.5 3.2-2.2 6.9-0.5 3.6-0.5 17.7 0 14 2.2 18.5 3 6.2 11 6.2 7.9 0 11.5-5.9 2.5-4.3 2.5-20.3 0-16-2.1-20.9l-0.6-1.1-0.8-1q-1.3-2.1-1.3-2.8 0-1.7 2-2.1 0.8-0.2 6.9-0.2 6 0 9 1.2 1.1 0.4 1.1 2.4 0 1.9-1.6 3.2-3.5 2.6-3.9 3.9-0.4 1.3-0.4 12l0.1 5.2 0.1 1.7q0 10.5-1.1 15.7-1 5.1-4.1 8.7-6.3 7.3-19.6 7.3zm80.3-29v-3q0-4.6-1.3-9-2.7-9.4-10.1-12.7-3.3-1.5-7.3-1.5l-0.6 0.1q-5 0-5.6 2.2-0.1 0.5-0.1 13v16.8l-0.1 0.7q0 0.6 0 1.3l-0.1 4.6q0 0.6 0 1.3v1.9 0.7q0 3.7 0.9 4.9 0.9 1.1 4.6 1.1h2.7q3.6 0 7-1.8 3.3-1.9 5.3-4.5 2-2.7 3.3-7 1.4-4.3 1.4-9.1zm-40.5-26.3q-2.5-1.2-2.5-3 0-1.8 2.1-2.1 5.9-1 20.3-1h2.3q15.3 0 24 8 8.8 8 8.8 22 0 14-8.8 22.5-8.7 8.5-23.1 8.5h-3.5l-1.1-0.1h-2.4q-1.1-0.1-2.2-0.1l-9.8-0.3q-4.9 0-5.8-0.5-0.9-0.6-0.9-2.3 0-0.9 2.6-2.6 2.5-1.7 3.1-4 0.7-2.3 0.7-15.4l-0.1-5.6 0.1-6.6 0.1-1q0-1.2 0-2.3l0.1-3.2q0-6-0.9-8.2-0.6-1.4-3.1-2.7zm95.2 43.4q0 3.3 1.5 5.4 0.6 0.8 2 2.2 1.3 1.4 1.3 2.3 0 2.5-4.1 2.5-1.3 0-3-0.1l-2.7-0.3q-2.7-0.1-6.9-0.1-4.2 0-5.6-0.3-1.4-0.3-1.4-1.5 0-1.3 2.3-3.6 2.4-2.3 3.2-4 0.8-1.8 0.8-7.4 0-5.7-2.9-10.8-9.9-17.6-13.7-22.7-1.1-1.5-4-3.5-2.8-2-2.8-3.9 0-1.8 2-2.6 3.1-1.1 12.6-1.1h1.4q6.3 0 6.3 3.1l-0.2 1-0.2 0.9q-0.4 2.1-0.4 2.7 0 3.1 6.9 16.6 1.9 3.7 2.8 3.7 1.7 0 7.1-9.6 2.8-5 2.8-7.2 0-2.1-1.1-4.2-1-2.2-1-3.3 0-1.9 2.3-2.6 3.3-1 10.8-1 5.5 0 5.5 2.2 0 2.7-2.1 4.2-3.8 2.7-4.9 4.3-4.9 7.4-11.6 21.4-3 6.3-3 17.3z"/>
	<path id="city" class="s1" aria-label="city"  d="m-479 639.5q0 3.6-2.1 3.6-1 0-4.5-2.8-3.5-2.8-5.8-3.9-2.3-1.1-5.4-1.1 0 0-0.1 0-2.9 0-5.5 1.6-7.5 4.3-7.5 18.6 0 4.1 1.3 8 3.8 11.4 14.4 11.4 0.1 0 0.1 0 4.9 0 10.1-3.7 3.4-2.3 3.9-2.3 1.7 0 1.7 1.6v0.9q0 0.9-1.7 3.4-1.6 2.5-4.4 3.8-4.9 2.2-11.5 2.2h-1.2q-5.3 0-9.7-1.9-8.8-3.9-12.2-12.8-1.8-4.8-1.8-9.3v-2.5q0-4.5 1.8-9.1 3.6-9.7 12.4-13.4 4.6-2.1 9.1-2.1h1.2q11.3 0 15 2.2 2.4 1.4 2.4 7.6zm10.6-5v-1q0-2 1.6-3.5 1.6-1.4 3.5-1.4h1.2q0.5 0.1 0.9 0.1 1.7 0 3 1.5 1.3 1.6 1.3 3v0.9q0 0.4 0 0.6 0 1.5-1.7 2.9-1.7 1.4-3.7 1.4h-1.2q-2 0-3.4-1.2-1.5-1.3-1.5-3zm6.8 45.7h-3.4q-4.7 0-5.7-0.2-0.9-0.3-0.9-1.6 0-1.3 1.8-3.1 1.8-1.8 2.2-3.6 0.5-1.8 0.5-9.4 0-7.6-0.4-9-0.4-1.3-2.5-2.3-2-1-2-2.4 0-1.4 1.9-2 4.3-1.4 9.5-1.4h0.5q2.1 0 2.4 1.7 0.2 1 0.2 12.1 0 11 0.5 12.9 0.5 1.8 2.5 3.9 2 2.1 2 2.7v0.4q0 1.3-9.1 1.3zm15.1-29.9q-1.6-1-1.6-2 0-1.1 1.9-2.1 1.9-1 2.4-1.6 0.5-0.6 1.5-3.4 1-2.7 2.2-4.2 1.1-1.5 3-1.5 1.8 0 2.7 1.5 0.3 0.7 0.9 3.2 0.6 2.6 1.4 3.3 0.8 0.7 3.2 1.6 2.3 0.9 2.4 0.9 1.2 1 1.2 2.3 0 1.1-3.4 2-3.4 0.9-4.4 2.8-0.9 1.8-0.9 9.1 0 7.3 1.1 9.5 1.2 2.2 3.8 2.2l1.2-0.1q0.9-0.1 1.9-0.1 2.2 0 2.2 1.6 0 2.1-2.7 3.4-3.8 1.8-8 1.8-2 0-3.9-1.1-2-1.1-3-2.6-2.1-3-2.1-8.6v-0.8q-0.1-0.7-0.1-1.7v-2.1q0-6.2-1-10.6-0.3-1.6-1.9-2.7zm58.8-4.8h1.1q4.9 0 4.9 2.5 0 0.9-1.7 2.7-1.6 1.8-2.7 3.9-1 2.1-7.4 17.8-6.4 15.7-8.1 18.5-3.3 5.3-8.9 5.3-2.1 0-4.1-1-1.9-1.1-1.9-2.8 0-1.6 1.2-2.7 1.3-1.1 3.3-1.1 3.4 0 5.5-2.3 2.1-2.3 2.1-4.8 0-2.6-1.3-5.4-8.7-20-9.3-21.2-0.6-1.1-2.7-3.5-2.2-2.3-2.2-4.1 0-1.8 10-1.8 3.3 0 4.5 0.4 1.2 0.3 1.2 2.1 0 0.6-0.5 1.7-0.4 1-0.4 2 0 1 1.7 6.6 1.8 5.7 3.1 8.1 1.3 2.5 1.6 2.5 1.1 0 4.7-10.3 1.1-2.9 1.1-7 0-0.9-0.6-2-0.6-1-0.6-1.8 0-0.8 0.8-1.6 0.8-0.7 5.6-0.7z"/>
	<path id="Humidity  " class="s2" aria-label="Humidity 
"  d="m864.5 378q-1.3 0-2.1-0.9-0.9-0.8-0.9-2.1v-39.1q0-1.3 0.9-2.1 0.8-0.9 2.1-0.9 1.3 0 2.1 0.9 0.9 0.8 0.9 2.1v16.6h26.9v-16.6q0-1.3 0.8-2.1 0.9-0.9 2.2-0.9 1.3 0 2.1 0.9 0.8 0.8 0.8 2.1v39.1q0 1.3-0.8 2.1-0.8 0.9-2.1 0.9-1.3 0-2.2-0.9-0.8-0.8-0.8-2.1v-17.2h-26.9v17.2q0 1.3-0.9 2.1-0.8 0.9-2.1 0.9zm60.2 0.3q-4 0-7.2-1.7-3.1-1.7-5-5-1.8-3.3-1.8-8.1v-14.2q0-1.3 0.8-2.1 0.9-0.8 2.2-0.8 1.2 0 2 0.8 0.9 0.8 0.9 2.1v14.2q0 3.2 1.2 5.4 1.2 2.1 3.3 3.1 2.1 1 4.7 1 2.5 0 4.4-1 2-1 3.2-2.7 1.1-1.6 1.1-3.7h3.7q0 3.6-1.8 6.5-1.8 2.8-4.8 4.5-3.1 1.7-6.9 1.7zm12.8-0.3q-1.3 0-2.2-0.8-0.8-0.9-0.8-2.1v-25.8q0-1.3 0.8-2.1 0.9-0.8 2.2-0.8 1.3 0 2.1 0.8 0.8 0.8 0.8 2.1v25.8q0 1.2-0.8 2.1-0.8 0.8-2.1 0.8zm54.9 0.1q-1.3 0-2.1-0.9-0.8-0.8-0.8-2.1v-16.5q0-3.6-1.8-5.4-1.8-1.8-4.7-1.8-3 0-5 2.1-1.9 2.1-1.9 5.3h-4.8q0-3.7 1.6-6.6 1.6-2.8 4.5-4.5 3-1.6 6.7-1.6 3.3 0 5.9 1.5 2.5 1.4 3.9 4.2 1.5 2.8 1.5 6.8v16.5q0 1.3-0.8 2.1-0.9 0.9-2.2 0.9zm-38.6 0q-1.3 0-2.1-0.9-0.9-0.8-0.9-2.1v-25.7q0-1.3 0.9-2.1 0.8-0.8 2.1-0.8 1.3 0 2.1 0.8 0.8 0.8 0.8 2.1v25.7q0 1.3-0.8 2.1-0.8 0.9-2.1 0.9zm19.3 0q-1.2 0-2.1-0.9-0.8-0.8-0.8-2.1v-16.5q0-3.6-1.8-5.4-1.8-1.8-4.7-1.8-3 0-5 2.1-2 2.1-2 5.3h-3.6q0-3.7 1.5-6.6 1.5-2.8 4.2-4.5 2.6-1.6 6.1-1.6 3.3 0 5.8 1.5 2.5 1.4 3.9 4.2 1.5 2.8 1.5 6.8v16.5q0 1.3-0.8 2.1-0.8 0.9-2.2 0.9zm35.6-0.1q-1.3 0-2.2-0.8-0.8-0.9-0.8-2.1v-25.7q0-1.4 0.8-2.2 0.9-0.8 2.2-0.8 1.3 0 2.1 0.8 0.8 0.8 0.8 2.2v25.7q0 1.2-0.8 2.1-0.8 0.8-2.1 0.8zm0-36.7q-1.6 0-2.7-1.1-1.1-1.2-1.1-2.7 0-1.6 1.1-2.7 1.1-1.2 2.7-1.2 1.6 0 2.7 1.2 1.1 1.1 1.1 2.7 0 1.5-1.1 2.7-1.1 1.1-2.7 1.1zm28.3 36.9q-4.5 0-8.2-2-3.5-2.2-5.7-5.8-2.1-3.7-2.1-8.2 0-4.6 1.9-8.2 2-3.6 5.4-5.7 3.3-2.1 7.5-2.1 3.5 0 6.4 1.4 2.9 1.4 4.8 3.8v-15.6q0-1.3 0.8-2.1 0.9-0.8 2.2-0.8 1.3 0 2.1 0.8 0.8 0.8 0.8 2.1v26.4q0 4.5-2.1 8.2-2.1 3.6-5.7 5.8-3.6 2-8.1 2zm0-5.2q3 0 5.3-1.4 2.3-1.4 3.6-3.9 1.4-2.5 1.4-5.5 0-3.1-1.4-5.6-1.3-2.4-3.6-3.8-2.3-1.4-5.3-1.4-2.9 0-5.3 1.4-2.3 1.4-3.7 3.8-1.3 2.5-1.3 5.6 0 3 1.3 5.5 1.4 2.5 3.7 3.9 2.4 1.4 5.3 1.4zm29.9 5q-1.3 0-2.2-0.8-0.8-0.9-0.8-2.1v-25.7q0-1.4 0.8-2.2 0.9-0.8 2.2-0.8 1.3 0 2.1 0.8 0.8 0.8 0.8 2.2v25.7q0 1.2-0.8 2.1-0.8 0.8-2.1 0.8zm0-36.7q-1.6 0-2.7-1.1-1.1-1.2-1.1-2.7 0-1.6 1.1-2.7 1.1-1.2 2.7-1.2 1.6 0 2.7 1.2 1.1 1.1 1.1 2.7 0 1.5-1.1 2.7-1.1 1.1-2.7 1.1zm26.5 36.7h-1q-2.9 0-5.2-1.4-2.4-1.5-3.7-4.1-1.3-2.5-1.3-5.7v-27.6q0-1.2 0.8-2 0.8-0.8 2.1-0.8 1.2 0 2.1 0.8 0.8 0.8 0.8 2v27.6q0 2.3 1.2 3.9 1.3 1.5 3.2 1.5h1.9q1.1 0 1.8 0.8 0.7 0.8 0.7 2.1 0 1.3-1 2.1-0.9 0.8-2.4 0.8zm-0.5-25.5h-13.4q-1.2 0-2-0.7-0.7-0.7-0.7-1.7 0-1.1 0.7-1.8 0.8-0.7 2-0.7h13.4q1.2 0 2 0.7 0.7 0.7 0.7 1.8 0 1-0.7 1.7-0.8 0.7-2 0.7zm16.8 39.4q-0.5 0-1.3-0.4-2.6-1.1-1.4-3.6l17.6-39.8q1.2-2.4 3.7-1.4 2.6 1.1 1.4 3.6l-17.7 39.8q-0.7 1.8-2.3 1.8zm6.9-15.2q-1.1 0.5-2.1 0.1-0.9-0.4-1.5-1.5l-13.3-25.1q-0.6-1.1-0.2-2.1 0.5-1 1.6-1.5 1.1-0.4 2.1 0 1 0.3 1.5 1.4l12.7 25.1q0.6 1.1 0.4 2.2-0.1 1-1.2 1.4z"/>
	<path id="68%" class="s2" aria-label="68%"  d="m874.8 470q-4 0-7.2-1.7-3-1.8-4.8-4.9-1.7-3.1-1.7-7.1 0-4 1.7-7.1 1.8-3.1 4.8-4.8 3.2-1.8 7.2-1.8 4 0 7 1.8 3.1 1.7 4.8 4.8 1.8 3.1 1.8 7.1 0 4-1.8 7.1-1.7 3.1-4.8 4.9-3 1.7-7 1.7zm-0.1-5.2q2.4 0 4.2-1 1.8-1.1 2.9-3 1-2 1-4.5 0-2.5-1-4.4-1.1-1.9-2.9-3-1.8-1.1-4.2-1.1-2.4 0-4.2 1.1-1.8 1.1-2.9 3-1 1.9-1 4.4 0 2.5 1 4.5 1.1 1.9 2.9 3 1.8 1 4.2 1zm-1.2-21.7l-10.5 5.8 13.4-22.3q1.1-1.6 2.7-1.6 1.2 0 2 0.6 0.8 0.7 1 1.8 0.2 1-0.4 2.1zm34.3 26.8q-3.8 0-6.8-1.8-3.1-1.8-4.8-4.9-1.7-3.2-1.7-7.1 0-3.9 1.7-6.9 1.7-3 4.8-4.8 3-1.7 6.8-1.7 3.9 0 6.9 1.7 3 1.8 4.7 4.8 1.8 3 1.8 6.9 0 3.9-1.8 7.1-1.8 3.1-4.8 4.9-3 1.8-6.8 1.8zm0-5.3q2.2 0 3.9-1.2 1.7-1.1 2.7-3 1-2 1-4.3 0-2.4-1-4.1-0.9-1.9-2.7-2.9-1.7-1.1-3.9-1.1-2.1 0-3.8 1.1-1.8 1-2.8 2.9-0.9 1.7-0.9 4.1 0 2.3 0.9 4.3 1 1.9 2.7 3 1.7 1.2 3.9 1.2zm0-17.7q-3.3 0-5.9-1.4-2.5-1.5-4-3.9-1.5-2.5-1.5-5.6 0-3.3 1.5-5.8 1.5-2.6 4-4.1 2.6-1.6 5.9-1.6 3.3 0 5.9 1.5 2.6 1.5 4.1 4.1 1.5 2.6 1.5 5.9 0 3.1-1.6 5.6-1.5 2.4-4.1 3.9-2.5 1.4-5.8 1.4zm0-4.8q1.7 0 2.9-0.8 1.3-0.9 2.1-2.3 0.7-1.4 0.7-3.2 0.1-1.7-0.7-3-0.7-1.4-2-2.1-1.3-0.8-3-0.8-2.4 0-4 1.7-1.6 1.6-1.7 4.2 0 2.6 1.6 4.5 1.7 1.8 4.1 1.8zm26.5 27.9q-1.3 0-2.1-0.9-0.8-0.9-0.8-2.1 0-1.2 0.6-1.9l30.5-39.1q0.5-0.6 1.1-0.8 0.6-0.3 1.3-0.3 1.3 0 2.1 0.8 0.9 0.9 0.9 2.1 0 1-0.6 1.8l-30.8 39.4q-0.9 1-2.2 1zm3.5-22.1q-3.2 0-5.9-1.6-2.6-1.6-4.1-4.2-1.6-2.6-1.6-5.7 0-3.1 1.6-5.7 1.5-2.7 4.1-4.2 2.7-1.6 5.9-1.6 3.2 0 5.8 1.6 2.6 1.5 4.1 4.2 1.6 2.6 1.6 5.7 0 3.1-1.6 5.7-1.5 2.6-4.1 4.2-2.6 1.6-5.8 1.6zm0-5.9q1.5 0 2.8-0.7 1.3-0.8 2-2.1 0.8-1.3 0.8-2.8 0-1.5-0.8-2.8-0.8-1.3-2-2-1.3-0.8-2.8-0.8-1.6 0-2.9 0.8-1.3 0.7-2 2-0.8 1.3-0.8 2.8 0 1.5 0.8 2.8 0.7 1.3 2 2.1 1.3 0.7 2.9 0.7zm23.5 28q-3.1 0-5.8-1.6-2.6-1.5-4.2-4.1-1.5-2.7-1.5-5.8 0-3.2 1.5-5.8 1.6-2.6 4.2-4.2 2.6-1.5 5.8-1.5 3.1 0 5.7 1.5 2.7 1.5 4.3 4.1 1.6 2.6 1.6 5.8 0 3.3-1.6 5.9-1.6 2.6-4.2 4.1-2.6 1.6-5.8 1.6zm0-5.9q1.6 0 2.8-0.8 1.4-0.7 2.1-2 0.8-1.3 0.8-2.8 0-1.6-0.8-2.9-0.7-1.2-2.1-2-1.2-0.7-2.8-0.7-1.5 0-2.8 0.7-1.3 0.8-2.1 2-0.7 1.3-0.7 2.9 0 1.5 0.7 2.8 0.8 1.3 2.1 2 1.3 0.8 2.8 0.8z"/>
	<path id="temperature" class="s2" aria-label="temperature"  d="m-232.4 417q-1.2 0-2.1-0.9-0.9-0.8-0.9-2.1v-41.5h6v41.5q0 1.3-0.9 2.1-0.8 0.9-2.1 0.9zm15.3-39h-30.6q-1.2 0-2-0.7-0.7-0.8-0.7-2 0-1.2 0.7-2 0.8-0.8 2-0.8h30.6q1.2 0 1.9 0.8 0.8 0.8 0.8 2 0 1.2-0.8 2-0.7 0.7-1.9 0.7zm14.8 39.2q-4.7 0-8.5-2-3.6-2-5.7-5.5-2.1-3.6-2.1-8.2 0-4.7 2-8.2 2-3.6 5.4-5.6 3.5-2.1 8-2.1 4.5 0 7.7 2 3.2 2 4.8 5.4 1.7 3.5 1.7 7.9 0 1.1-0.7 1.9-0.7 0.7-1.9 0.7h-23v-4.6h22.9l-2.4 1.6q0-2.9-1.1-5.1-1.1-2.2-3.1-3.6-2-1.3-4.9-1.3-3.2 0-5.6 1.5-2.2 1.4-3.4 3.9-1.2 2.4-1.2 5.6 0 3.1 1.4 5.5 1.4 2.5 3.9 3.9 2.5 1.4 5.8 1.4 1.8 0 3.6-0.6 1.9-0.7 3-1.5 0.9-0.7 1.8-0.7 1.1 0 1.8 0.6 1 0.9 1 1.9 0.1 1-0.9 1.8-1.9 1.5-4.8 2.5-2.9 0.9-5.5 0.9zm61.7-0.1q-1.2 0-2.1-0.8-0.8-0.9-0.8-2.1v-16.3q0-3.6-1.7-5.3-1.8-1.8-4.7-1.8-2.9 0-4.9 2.1-1.8 2-1.8 5.2h-4.8q0-3.7 1.6-6.5 1.6-2.8 4.5-4.4 2.9-1.6 6.6-1.6 3.2 0 5.7 1.4 2.6 1.4 3.9 4.2 1.5 2.7 1.5 6.7v16.3q0 1.2-0.8 2.1-0.8 0.8-2.2 0.8zm-38 0q-1.3 0-2.1-0.8-0.8-0.9-0.8-2.1v-25.4q0-1.3 0.8-2.1 0.8-0.8 2.1-0.8 1.3 0 2.1 0.8 0.8 0.8 0.8 2.1v25.4q0 1.2-0.8 2.1-0.8 0.8-2.1 0.8zm19 0q-1.2 0-2.1-0.8-0.8-0.9-0.8-2.1v-16.3q0-3.6-1.7-5.3-1.8-1.8-4.7-1.8-2.9 0-4.9 2.1-1.9 2-1.9 5.2h-3.6q0-3.7 1.5-6.5 1.5-2.8 4.1-4.4 2.6-1.6 6-1.6 3.2 0 5.7 1.4 2.6 1.4 3.9 4.2 1.5 2.7 1.5 6.7v16.3q0 1.2-0.8 2.1-0.8 0.8-2.2 0.8zm34.5 13.2q-1.2 0-2.1-0.8-0.8-0.8-0.8-2.1v-25.9q0.1-4.5 2.1-8.1 2.1-3.6 5.6-5.7 3.5-2.1 8-2.1 4.5 0 8 2.1 3.6 2.1 5.6 5.7 2.1 3.6 2.1 8.1 0 4.5-1.9 8-1.9 3.6-5.2 5.7-3.3 2-7.5 2-3.3 0-6.2-1.3-2.8-1.5-4.8-3.9v15.4q0 1.3-0.8 2.1-0.8 0.8-2.1 0.8zm12.8-18.2q2.9 0 5.2-1.4 2.3-1.4 3.6-3.8 1.4-2.4 1.4-5.4 0-3.1-1.4-5.5-1.3-2.5-3.6-3.8-2.3-1.4-5.2-1.4-2.9 0-5.2 1.4-2.3 1.3-3.6 3.8-1.3 2.4-1.3 5.5 0 3 1.3 5.4 1.3 2.4 3.6 3.8 2.3 1.4 5.2 1.4zm39.1 5.1q-4.7 0-8.5-2-3.6-2-5.7-5.5-2.1-3.6-2.1-8.2 0-4.7 2-8.2 2-3.6 5.4-5.6 3.5-2.1 8-2.1 4.5 0 7.7 2 3.2 2 4.8 5.4 1.7 3.5 1.7 7.9 0 1.1-0.7 1.9-0.7 0.7-1.9 0.7h-23v-4.6h22.8l-2.3 1.6q0-2.9-1.1-5.1-1.1-2.2-3.1-3.6-2-1.3-4.9-1.3-3.2 0-5.6 1.5-2.2 1.4-3.4 3.9-1.2 2.4-1.2 5.6 0 3.1 1.4 5.5 1.4 2.5 3.9 3.9 2.5 1.4 5.8 1.4 1.8 0 3.6-0.6 1.9-0.7 3-1.5 0.9-0.7 1.8-0.7 1.1 0 1.8 0.6 1 0.9 1 1.9 0.1 1-0.9 1.8-1.9 1.5-4.8 2.5-2.9 0.9-5.5 0.9zm26.5-19.7h-2.9q0-3.4 1.6-6.1 1.7-2.7 4.6-4.3 2.8-1.6 6.3-1.6 3.4 0 5 1.2 1.8 1 1.4 2.6-0.2 0.8-0.7 1.2-0.5 0.4-1.1 0.5-0.6 0.2-1.4 0-3.6-0.8-6.6-0.1-2.9 0.6-4.6 2.3-1.6 1.7-1.6 4.3zm-2.9 19.5q-1.4 0-2.1-0.7-0.7-0.7-0.7-2.1v-25.5q0-1.4 0.7-2.1 0.7-0.7 2.1-0.7 1.4 0 2.1 0.7 0.8 0.7 0.8 2.1v25.5q0 1.3-0.8 2.1-0.7 0.7-2.1 0.7zm35.6 0.2q-4.1 0-7.4-2-3.4-2.1-5.3-5.7-1.9-3.5-1.9-8 0-4.5 2.1-8.1 2.1-3.6 5.6-5.7 3.6-2.1 8.1-2.1 4.4 0 8 2.1 3.5 2.1 5.6 5.7 2.1 3.6 2.1 8.1h-2.3q0 4.5-1.9 8-1.9 3.6-5.2 5.7-3.3 2-7.5 2zm1.2-5.1q2.9 0 5.2-1.4 2.2-1.4 3.6-3.8 1.3-2.4 1.3-5.4 0-3.1-1.3-5.5-1.4-2.5-3.6-3.8-2.3-1.4-5.2-1.4-2.9 0-5.2 1.4-2.3 1.3-3.7 3.8-1.3 2.4-1.3 5.5 0 3 1.3 5.4 1.4 2.4 3.7 3.8 2.3 1.4 5.2 1.4zm12.8 5q-1.3 0-2.2-0.8-0.8-0.9-0.8-2.1v-8.8l1.1-6 4.8 2.1v12.7q0 1.2-0.9 2.1-0.8 0.8-2 0.8zm23.9-0.1h-1q-2.9 0-5.1-1.4-2.3-1.5-3.6-4-1.3-2.5-1.3-5.6v-27.2q0-1.2 0.8-2 0.8-0.8 2-0.8 1.3 0 2.1 0.8 0.8 0.8 0.8 2v27.2q0 2.2 1.2 3.8 1.3 1.5 3.1 1.5h1.9q1.1 0 1.8 0.8 0.7 0.8 0.7 2.1 0 1.2-1 2-0.9 0.8-2.4 0.8zm-0.5-25.1h-13.2q-1.2 0-1.9-0.7-0.8-0.7-0.8-1.7 0-1.1 0.8-1.8 0.7-0.7 1.9-0.7h13.2q1.2 0 2 0.7 0.7 0.7 0.7 1.8 0 1-0.7 1.7-0.8 0.7-2 0.7zm24.2 25.4q-4 0-7.1-1.7-3.1-1.7-4.9-4.9-1.8-3.3-1.8-8v-14q0-1.2 0.8-2 0.9-0.9 2.1-0.9 1.3 0 2.1 0.9 0.8 0.8 0.8 2v14q0 3.2 1.2 5.3 1.2 2.1 3.3 3.1 2 0.9 4.6 0.9 2.5 0 4.3-0.9 2-1 3.1-2.6 1.2-1.7 1.2-3.7h3.6q0 3.5-1.8 6.3-1.7 2.9-4.8 4.5-2.9 1.7-6.7 1.7zm12.6-0.3q-1.3 0-2.1-0.8-0.8-0.9-0.8-2.1v-25.4q0-1.3 0.8-2.1 0.8-0.8 2.1-0.8 1.3 0 2.1 0.8 0.8 0.8 0.8 2.1v25.4q0 1.2-0.8 2.1-0.8 0.8-2.1 0.8zm18.9-19.5h-3q0-3.4 1.7-6.1 1.7-2.7 4.6-4.3 2.8-1.6 6.2-1.6 3.5 0 5.1 1.2 1.7 1 1.3 2.6-0.1 0.8-0.6 1.2-0.5 0.4-1.1 0.5-0.7 0.2-1.4 0-3.7-0.8-6.6-0.1-2.9 0.6-4.6 2.3-1.6 1.7-1.6 4.3zm-2.9 19.5q-1.4 0-2.1-0.7-0.7-0.7-0.7-2.1v-25.5q0-1.4 0.7-2.1 0.7-0.7 2.1-0.7 1.4 0 2.1 0.7 0.8 0.7 0.8 2.1v25.5q0 1.3-0.8 2.1-0.7 0.7-2.1 0.7zm37.3 0.2q-4.8 0-8.5-2-3.6-2-5.7-5.5-2.1-3.6-2.1-8.2 0-4.7 1.9-8.2 2-3.6 5.5-5.6 3.5-2.1 8-2.1 4.5 0 7.7 2 3.2 2 4.8 5.4 1.7 3.5 1.7 7.9 0 1.1-0.7 1.9-0.8 0.7-1.9 0.7h-23v-4.6h22.8l-2.3 1.6q-0.1-2.9-1.2-5.1-1-2.2-3-3.6-2-1.3-4.9-1.3-3.2 0-5.6 1.5-2.3 1.4-3.5 3.9-1.2 2.4-1.2 5.6 0 3.1 1.5 5.5 1.4 2.5 3.9 3.9 2.5 1.4 5.8 1.4 1.7 0 3.6-0.6 1.9-0.7 3-1.5 0.8-0.7 1.8-0.7 1 0 1.8 0.6 1 0.9 1 1.9 0.1 1-0.9 1.8-1.9 1.5-4.8 2.5-2.9 0.9-5.5 0.9z"/>
	<path id="30-22" class="s2" aria-label="30-22"  d="m-233.7 491q-3.8 0-6.8-1.6-3-1.6-4.6-4.4-1.7-2.8-1.7-6.2 0-1.2 0.6-1.9 0.7-0.8 1.7-0.8 1 0 1.7 0.8 0.7 0.7 0.7 1.9 0 2.1 1 3.8 1.1 1.8 3 2.8 1.8 1.1 4.1 1.1 3.4 0 5.4-1.9 2.1-1.9 2.1-5.2 0-2.2-0.9-3.8-0.9-1.8-2.5-2.8-1.6-1-3.6-1-1.1 0-1.9-0.8-0.7-0.7-0.7-1.9 0-1.1 0.7-1.8 0.8-0.8 1.9-0.8 1.4 0 2.8-0.7 1.3-0.7 2.2-2 0.8-1.2 0.8-2.8 0-2.2-1.6-3.8-1.6-1.5-4.2-1.5-1.9 0-3.6 0.8-1.6 0.7-2.5 2-0.9 1.3-0.9 2.9 0 1.1-0.7 1.9-0.7 0.8-1.7 0.8-1 0-1.7-0.7-0.6-0.8-0.6-1.9 0-2.9 1.5-5.3 1.5-2.3 4.2-3.7 2.6-1.3 5.9-1.3 3 0 5.4 1.3 2.5 1.3 3.8 3.5 1.5 2.2 1.5 5 0 2-0.9 3.5-0.9 1.5-2.3 2.7-1.4 1-2.9 1.7 2.7 1 4.4 2.5 1.7 1.6 2.4 3.6 0.9 2 0.9 4.4 0 3.3-1.7 6-1.7 2.6-4.5 4.1-2.8 1.5-6.2 1.5zm29.4 0q-3.9 0-6.6-2.3-2.7-2.4-4.2-6.9-1.4-4.5-1.4-10.7 0-6.3 1.4-10.7 1.5-4.5 4.2-6.8 2.7-2.4 6.6-2.4 3.9 0 6.6 2.4 2.8 2.4 4.2 6.9 1.4 4.4 1.4 10.6 0 6.1-1.4 10.6-1.4 4.5-4.2 6.9-2.7 2.4-6.6 2.4zm0-5.3q2.4 0 3.9-1.9 1.5-1.9 2.3-5.2 0.8-3.3 0.8-7.5 0-4.2-0.8-7.5-0.8-3.3-2.3-5.3-1.5-1.9-3.9-1.9-2.3 0-3.9 1.9-1.5 1.9-2.3 5.2-0.7 3.4-0.7 7.6 0 4.2 0.7 7.5 0.8 3.3 2.3 5.2 1.6 1.9 3.9 1.9zm30.6-6.1h-11.4q-1.1 0-1.9-0.7-0.7-0.7-0.7-1.8 0-1.2 0.7-1.9 0.8-0.7 1.9-0.7h11.4q1.1 0 1.9 0.7 0.7 0.7 0.7 1.9 0 1.1-0.7 1.8-0.8 0.7-1.9 0.7zm26.4 11.4h-18.9q-1.1 0-1.9-0.8-0.7-0.7-0.7-1.8 0-1.1 0.7-1.8l14.5-16.9q1.6-1.8 2.4-3.4 0.9-1.6 0.9-3 0-2.3-0.8-3.9-0.8-1.6-2.2-2.5-1.4-0.9-3.4-0.9-2 0-3.6 1-1.5 1-2.4 2.7-0.9 1.6-0.9 3.6 0 1-0.7 1.8-0.8 0.7-1.9 0.7-1.1 0-1.8-0.7-0.8-0.8-0.8-1.8 0-3.5 1.6-6.2 1.6-2.7 4.3-4.3 2.7-1.6 6.2-1.6 3.4 0 6 1.5 2.6 1.5 3.9 4.2 1.5 2.7 1.5 6.4 0 1.6-0.8 3.3-0.6 1.7-1.7 3.2-1 1.5-2.1 2.8l-11.7 13.2h14.3q1.1 0 1.9 0.8 0.8 0.8 0.8 1.8 0 1.1-0.8 1.8-0.8 0.8-1.9 0.8zm30.1 0h-18.9q-1.2 0-1.9-0.8-0.8-0.7-0.8-1.8 0-1.1 0.8-1.8l14.5-16.9q1.5-1.8 2.3-3.4 0.9-1.6 0.9-3 0-2.3-0.8-3.9-0.7-1.6-2.2-2.5-1.4-0.9-3.4-0.9-1.9 0-3.5 1-1.6 1-2.5 2.7-0.8 1.6-0.8 3.6 0 1-0.8 1.8-0.7 0.7-1.8 0.7-1.1 0-1.9-0.7-0.8-0.8-0.8-1.8 0-3.5 1.6-6.2 1.6-2.7 4.3-4.3 2.8-1.6 6.2-1.6 3.5 0 6 1.5 2.6 1.5 4 4.2 1.4 2.7 1.4 6.4 0 1.6-0.7 3.3-0.7 1.7-1.8 3.2-1 1.5-2.1 2.8l-11.6 13.2h14.3q1.1 0 1.8 0.8 0.8 0.8 0.8 1.8 0 1.1-0.8 1.8-0.7 0.8-1.8 0.8z"/>
	<path id="椭圆 4" class="s1" d="m-322.7 432.1c19 0 34.4 15.4 34.4 34.4 0 19-15.4 34.4-34.4 34.4-19 0-34.4-15.4-34.4-34.4 0-19 15.4-34.4 34.4-34.4zm0-119c8.2 0 14.9 6.6 14.9 14.8v117.7c0 8.2-6.7 14.9-14.9 14.9-8.2 0-14.8-6.7-14.8-14.9v-117.7c0-8.2 6.6-14.8 14.8-14.8z"/>
	<path id="椭圆 4 拷贝" class="s3" d="m-322.2 441.2c13.7 0 24.8 11.2 24.8 24.9 0 13.7-11.1 24.8-24.8 24.8-13.8 0-24.9-11.1-24.9-24.8 0-13.7 11.1-24.9 24.9-24.9zm-0.6-94.3c5.7 0 10.2 4.5 10.2 10.1v94.5c0 5.6-4.5 10.2-10.2 10.2-5.6 0-10.2-4.6-10.2-10.2v-94.5c0-5.6 4.6-10.1 10.2-10.1z"/>
	<path id="椭圆 5" class="s3" d="m-322.5 324c3.6 0 6.5 2.9 6.5 6.5 0 3.6-2.9 6.5-6.5 6.5-3.6 0-6.5-2.9-6.5-6.5 0-3.6 2.9-6.5 6.5-6.5z"/>
	<path id="°c" class="s1" aria-label="°c"  d="m19.8 38.2q-5.2 0-9.6-2.6-4.4-2.5-7-6.9-2.5-4.5-2.5-9.9 0-5.4 2.5-9.8 2.6-4.5 7-7 4.4-2.6 9.6-2.6 5.3 0 9.7 2.6 4.4 2.5 6.9 7 2.6 4.4 2.6 9.8 0 5.4-2.6 9.9-2.5 4.4-6.9 6.9-4.4 2.6-9.7 2.6zm0-6.1q5.5 0 9.3-3.8 3.8-3.9 3.8-9.5 0-5.6-3.8-9.5-3.8-3.9-9.3-3.9-5.3 0-9.2 3.9-3.8 3.9-3.8 9.5 0 5.6 3.8 9.5 3.9 3.8 9.2 3.8zm49.3 66.9q-9.4 0-15.1-5.8-5.6-5.7-5.6-15.3v-45.3q0-9.5 5.6-15.3 5.7-5.7 15.1-5.7 9.5 0 15.2 5.7 5.7 5.6 5.7 15.3v2.1q0 1.2-1.2 1.2l-6.4 0.3q-1.2 0-1.2-1.2v-3q0-5.8-3.3-9.3-3.3-3.5-8.8-3.5-5.3 0-8.8 3.5-3.3 3.5-3.3 9.3v46.6q0 5.7 3.3 9.3 3.5 3.5 8.8 3.5 5.5 0 8.8-3.5 3.3-3.6 3.3-9.3v-3.1q0-1.2 1.2-1.2l6.4 0.4q1.2 0 1.2 1.2v2q0 9.6-5.7 15.3-5.8 5.8-15.2 5.8z"/>
	<g id="1">
		<path id="1" class="s4" d="m-520 720h238c11 0 20 9 20 20v368c0 11-9 20-20 20h-238c-11 0-20-9-20-20v-368c0-11 9-20 20-20z"/>
		<g id="组 2 拷贝">
			<g id="yang">
				<path id="椭圆 2" class="s5" d="m-343 866.3c21.6 6.3 33.9 28.9 27.6 50.5-6.4 21.5-29.1 33.8-50.7 27.5-21.6-6.4-33.9-29-27.6-50.5 6.4-21.6 29.1-33.9 50.7-27.5z"/>
				<path id="椭圆 2 拷贝" class="s6" d="m-345.9 869.3c20.6 6.1 32.4 27.7 26.3 48.2-6.1 20.6-27.7 32.3-48.3 26.2-20.6-6-32.4-27.6-26.3-48.2 6.1-20.5 27.7-32.2 48.3-26.2z"/>
				<path id="椭圆 2 拷贝 2" class="s7" d="m-351.2 876c17.8 5.3 28 23.9 22.8 41.7-5.3 17.7-24 27.8-41.8 22.6-17.8-5.3-28-23.9-22.7-41.6 5.2-17.8 23.9-27.9 41.7-22.7z"/>
				<path id="圆角矩形 2" class="s5" d="m-336.6 844.1l0.3 0.1c2 0.6 3 2.6 2.5 4.5l-3.4 11.4c-0.6 1.9-2.6 3-4.5 2.4l-0.4-0.1c-1.9-0.5-3-2.5-2.4-4.4l3.4-11.5c0.5-1.9 2.6-3 4.5-2.4z"/>
				<path id="圆角矩形 2 拷贝" class="s5" d="m-367.5 948.3l0.4 0.1c1.9 0.5 3 2.5 2.4 4.5l-3.4 11.4c-0.5 1.9-2.5 3-4.4 2.4l-0.4-0.1c-1.9-0.5-3-2.5-2.5-4.5l3.4-11.4c0.6-1.9 2.6-3 4.5-2.4z"/>
				<path id="圆角矩形 2 拷贝 2" class="s5" d="m-307 915.5l11.5 3.3c1.9 0.6 3 2.6 2.4 4.5l-0.1 0.4c-0.6 1.9-2.6 3-4.5 2.4l-11.5-3.4c-1.9-0.5-3-2.5-2.4-4.4l0.1-0.4c0.6-1.9 2.6-3 4.5-2.4z"/>
				<path id="圆角矩形 2 拷贝 2" class="s5" d="m-411.5 884.7l11.5 3.4c1.9 0.5 3 2.5 2.4 4.5l-0.1 0.3c-0.5 1.9-2.6 3-4.5 2.5l-11.4-3.4c-2-0.6-3-2.6-2.5-4.5l0.1-0.4c0.6-1.9 2.6-3 4.5-2.4z"/>
				<path id="圆角矩形 2 拷贝 3" class="s5" d="m-370.6 843.5l2-0.4c1.5-0.4 3 0.5 3.4 2l3.1 13.2c0.4 1.5-0.5 3-2 3.4l-2 0.4c-1.5 0.4-3-0.5-3.4-2l-3.1-13.2c-0.4-1.5 0.5-3 2-3.4z"/>
				<path id="圆角矩形 2 拷贝 3" class="s5" d="m-345 949.1l1.9-0.4c1.5-0.4 3 0.5 3.4 2.1l3.2 13.1c0.3 1.5-0.6 3-2.1 3.4l-1.9 0.4c-1.6 0.4-3.1-0.5-3.4-2l-3.2-13.2c-0.4-1.5 0.5-3 2.1-3.4z"/>
				<path id="圆角矩形 2 拷贝 3" class="s5" d="m-309.1 890.6l13.2-3.2c1.5-0.4 3 0.6 3.4 2.1l0.4 1.9c0.4 1.5-0.5 3-2.1 3.4l-13.1 3.2c-1.5 0.3-3.1-0.6-3.4-2.1l-0.5-1.9c-0.4-1.5 0.6-3.1 2.1-3.4z"/>
				<path id="圆角矩形 2 拷贝 3" class="s5" d="m-415 916l13.2-3.1c1.5-0.4 3 0.5 3.4 2l0.4 1.9c0.4 1.6-0.5 3.1-2.1 3.4l-13.1 3.2c-1.5 0.4-3.1-0.6-3.4-2.1l-0.5-1.9c-0.4-1.5 0.6-3 2.1-3.4z"/>
				<path id="圆角矩形 2 拷贝 4" class="s5" d="m-399.4 859.8l1.4-1.4c1.1-1 2.9-1 4 0.1l9.3 9.8c1.1 1.1 1 2.9-0.1 4l-1.4 1.4c-1.2 1-2.9 1-4-0.1l-9.3-9.8c-1.1-1.2-1.1-2.9 0.1-4z"/>
				<path id="圆角矩形 2 拷贝 4" class="s5" d="m-324.4 938.5l1.4-1.3c1.2-1.1 3-1.1 4 0.1l9.4 9.8c1 1.1 1 2.9-0.1 3.9l-1.5 1.4c-1.1 1.1-2.9 1-4-0.1l-9.3-9.8c-1.1-1.1-1-2.9 0.1-4z"/>
				<path id="圆角矩形 2 拷贝 4" class="s5" d="m-322.6 869.9l9.8-9.3c1.1-1.1 2.9-1 4 0.1l1.3 1.4c1.1 1.1 1 2.9-0.1 4l-9.8 9.3c-1.1 1.1-2.9 1-4-0.1l-1.3-1.4c-1.1-1.2-1.1-2.9 0.1-4z"/>
				<path id="圆角矩形 2 拷贝 4" class="s5" d="m-401.6 944.7l9.8-9.3c1.1-1 2.9-1 4 0.1l1.4 1.5c1 1.1 1 2.9-0.1 3.9l-9.8 9.3c-1.2 1.1-3 1.1-4-0.1l-1.4-1.4c-1.1-1.1-1-2.9 0.1-4z"/>
			</g>
			<path id="椭圆 4" class="s8" d="m-487.3 916.2c12.6 0 22.8 10.2 22.8 22.7 0 12.6-10.2 22.7-22.8 22.7-12.5 0-22.7-10.1-22.7-22.7 0-12.5 10.2-22.7 22.7-22.7zm30.6-31.6c16.3 0 29.5 13.2 29.5 29.4 0 16.3-13.2 29.5-29.5 29.5-16.3 0-29.5-13.2-29.5-29.5 0-16.2 13.2-29.4 29.5-29.4zm56-19.6c20.8 0 37.7 16.8 37.7 37.6 0 20.8-16.9 37.7-37.7 37.7-20.8 0-37.7-16.9-37.7-37.7 0-20.8 16.9-37.6 37.7-37.6zm43.9 35.1c13.4 0 24.4 10.9 24.4 24.3 0 13.5-11 24.3-24.4 24.3-13.5 0-24.4-10.8-24.4-24.3 0-13.4 10.9-24.3 24.4-24.3zm-89.2 17.9c18 0 32.6 14.6 32.6 32.5 0 17.9-14.6 32.5-32.6 32.5-18 0-32.6-14.6-32.6-32.5 0-17.9 14.6-32.5 32.6-32.5zm51.2-7.9c17.6 0 31.8 14.2 31.8 31.8 0 17.5-14.2 31.7-31.8 31.7-17.6 0-31.9-14.2-31.9-31.7 0-17.6 14.3-31.8 31.9-31.8zm29.5 23.4c10 0 18.2 8.1 18.2 18.2 0 10-8.2 18.1-18.2 18.1-10.1 0-18.2-8.1-18.2-18.1 0-10.1 8.1-18.2 18.2-18.2zm-70-62.1c8.5 0 15.4 6.9 15.4 15.4 0 8.5-6.9 15.4-15.4 15.4-8.5 0-15.4-6.9-15.4-15.4 0-8.5 6.9-15.4 15.4-15.4zm105.9 37.5c10.2 0 18.4 8.2 18.4 18.3 0 10.1-8.2 18.3-18.4 18.3-10.1 0-18.3-8.2-18.3-18.3 0-10.1 8.2-18.3 18.3-18.3zm-5.8 22c11.7 0 21.2 9.5 21.2 21.2 0 11.7-9.5 21.2-21.2 21.2-11.8 0-21.3-9.5-21.3-21.2 0-11.7 9.5-21.2 21.3-21.2z"/>
		</g>
		<path id="28" class="s2" aria-label="28"  d="m-413.7 1090.5q0 0.1 0 0.1 0.1 0.1 0.2 0.1h8.8q0.3 0 0.3 0.3v1.6q0 0.4-0.3 0.4h-11.8q-0.4 0-0.4-0.4v-1.7q0-0.3 0.2-0.5 1.1-1.8 1.3-2.1 3.3-5.2 5.2-8.4 2.4-4.2 2.4-6.9 0-1.9-0.9-3.1-0.9-1.1-2.4-1.1-1.4 0-2.3 1.1-0.9 1.2-0.8 3v1.5q0 0.3-0.4 0.3h-1.9q-0.4 0-0.4-0.3v-1.5q0.1-2.9 1.7-4.7 1.6-1.8 4.2-1.8 2.7 0 4.3 1.9 1.6 1.8 1.6 4.7 0 3.6-2.7 8-1.3 2.3-3.8 6.1zm21.5-11.5q-0.2 0.1 0 0.3 1.3 0.7 1.9 2.1 0.9 1.8 0.9 4.3 0 2.1-0.6 3.6-0.6 1.9-2 3-1.4 1.1-3.4 1.1-1.9 0-3.4-1.1-1.4-1-2-3-0.6-1.6-0.6-3.6 0-2.4 0.8-4 0.6-1.6 2.1-2.4 0.1-0.2 0-0.3-1.3-0.6-2-2-0.9-1.6-0.9-3.8 0-2.3 0.9-3.8 0.7-1.4 2-2.2 1.3-0.8 3.1-0.8 1.7 0 3 0.8 1.4 0.7 2.1 2.1 0.9 1.6 0.9 3.9 0 2.3-0.8 3.7-0.8 1.4-2 2.1zm-6-8.4q-0.5 1.2-0.5 2.8 0 1.7 0.6 2.8 0.8 1.9 2.7 1.9 1 0 1.7-0.6 0.7-0.5 1.1-1.4 0.5-1.2 0.5-2.7 0-1.8-0.6-2.9-0.9-1.7-2.7-1.7-1.9 0-2.8 1.8zm5.8 17.6q0.3-1.2 0.3-2.6 0-2-0.5-3.2-0.8-2.2-2.8-2.2-1 0-1.8 0.6-0.7 0.6-1.1 1.7-0.4 1.3-0.4 3.1 0 1.5 0.3 2.7 0.3 1.3 1.1 2 0.8 0.7 1.9 0.7 1.1 0 1.9-0.7 0.8-0.7 1.1-2.1z"/>
		<path id="°c" class="s2" aria-label="°c"  d="m-384.3 1068q-0.8 0-1.5-0.4-0.7-0.4-1-1-0.4-0.7-0.4-1.5 0-0.8 0.4-1.5 0.3-0.7 1-1.1 0.7-0.4 1.5-0.4 0.7 0 1.4 0.4 0.7 0.4 1.1 1.1 0.3 0.7 0.3 1.5 0 0.8-0.3 1.5-0.4 0.6-1.1 1-0.7 0.4-1.4 0.4zm0-0.9q0.8 0 1.3-0.6 0.6-0.6 0.6-1.4 0-0.9-0.6-1.5-0.5-0.6-1.3-0.6-0.9 0-1.4 0.6-0.6 0.6-0.6 1.5 0 0.8 0.6 1.4 0.5 0.6 1.4 0.6zm7.4 10q-1.4 0-2.3-0.8-0.8-0.9-0.8-2.3v-6.9q0-1.4 0.8-2.3 0.9-0.8 2.3-0.8 1.4 0 2.3 0.8 0.8 0.9 0.8 2.3v0.4q0 0.1-0.2 0.1l-0.9 0.1q-0.2 0-0.2-0.2v-0.4q0-0.9-0.5-1.4-0.5-0.6-1.3-0.6-0.8 0-1.3 0.6-0.5 0.5-0.5 1.4v7q0 0.8 0.5 1.4 0.5 0.5 1.3 0.5 0.8 0 1.3-0.5 0.5-0.6 0.5-1.4v-0.5q0-0.2 0.2-0.2l0.9 0.1q0.2 0 0.2 0.2v0.3q0 1.4-0.8 2.3-0.9 0.8-2.3 0.8z"/>
		<path id="Mon" class="s2" aria-label="Mon"  d="m-424.6 751.6q0.2-0.5 0.9-0.5h3.8q0.7 0 0.7 0.7v49.5q0 0.7-0.7 0.7h-3.7q-0.8 0-0.8-0.7v-39q0-0.2-0.1-0.2-0.1 0-0.2 0.1l-7.6 15.7q-0.2 0.5-0.7 0.5-0.6 0-0.8-0.5l-7.6-15.6q-0.1-0.2-0.3-0.2 0 0 0 0.3v38.9q0 0.7-0.8 0.7h-3.7q-0.7 0-0.7-0.7v-49.5q0-0.7 0.7-0.7h3.8q0.7 0 0.9 0.5l8.3 16.8q0 0.1 0.2 0.1 0.1 0 0.2-0.1zm25.5 51q-5.2 0-8.3-3.1-3.1-3-3.1-8v-15.7q0-4.9 3.2-8.1 3.1-3.1 8.2-3.1 5.3 0 8.4 3.1 3.1 3.2 3.1 8.1v15.7q0 5-3.1 8-3.1 3.1-8.4 3.1zm0-4.6q2.8 0 4.6-1.9 1.8-1.9 1.8-5v-15q0-3.1-1.8-5-1.8-2-4.6-2-2.7 0-4.5 2-1.7 1.9-1.7 5v15q0 3.1 1.7 5 1.8 1.9 4.5 1.9zm32.7-33.3q4.4 0 6.8 3 2.5 3.1 2.5 8.6v25q0 0.7-0.7 0.7h-3.7q-0.8 0-0.8-0.7v-24.6q0-3.6-1.6-5.5-1.5-2-4.2-2-3 0-4.6 2.1-1.6 2.1-1.6 5.8v24.2q0 0.7-0.8 0.7h-3.7q-0.7 0-0.7-0.7v-35.4q0-0.7 0.7-0.7h3.7q0.8 0 0.8 0.7v2.4q0 0.1 0.1 0.2 0.2 0 0.2-0.2 1.3-1.8 3.3-2.7 2-0.9 4.3-0.9z"/>
	</g>
	<g id="2">
		<path id="2" class="s4" d="m-198 720h238c11 0 20 9 20 20v368c0 11-9 20-20 20h-238c-11 0-20-9-20-20v-368c0-11 9-20 20-20z"/>
		<g id="组 1">
			<path id="椭圆 4 拷贝 2" class="s9" d="m-154.5 889.8c12.5 0 22.5 10.1 22.5 22.5 0 12.4-10 22.5-22.5 22.5-12.4 0-22.5-10.1-22.5-22.5 0-12.4 10.1-22.5 22.5-22.5zm30.2-31.3c16.2 0 29.2 13 29.2 29.1 0 16.1-13 29.2-29.2 29.2-16.1 0-29.2-13.1-29.2-29.2 0-16.1 13.1-29.1 29.2-29.1zm55.5-19.5c20.6 0 37.4 16.7 37.4 37.3 0 20.6-16.8 37.3-37.4 37.3-20.6 0-37.3-16.7-37.3-37.3 0-20.6 16.7-37.3 37.3-37.3zm43.5 34.8c13.3 0 24.1 10.8 24.1 24.1 0 13.3-10.8 24.1-24.1 24.1-13.3 0-24.1-10.8-24.1-24.1 0-13.3 10.8-24.1 24.1-24.1zm-88.4 17.8c17.9 0 32.3 14.4 32.3 32.2 0 17.8-14.4 32.2-32.3 32.2-17.8 0-32.2-14.4-32.2-32.2 0-17.8 14.4-32.2 32.2-32.2zm50.7-7.9c17.4 0 31.6 14.1 31.6 31.5 0 17.4-14.2 31.5-31.6 31.5-17.4 0-31.5-14.1-31.5-31.5 0-17.4 14.1-31.5 31.5-31.5zm29.2 23.2c10 0 18.1 8.1 18.1 18 0 10-8.1 18-18.1 18-9.9 0-18-8-18-18 0-9.9 8.1-18 18-18zm-69.3-61.5c8.5 0 15.3 6.8 15.3 15.2 0 8.4-6.8 15.3-15.3 15.3-8.4 0-15.2-6.9-15.2-15.3 0-8.4 6.8-15.2 15.2-15.2zm104.9 37.1c10.1 0 18.2 8.2 18.2 18.2 0 10-8.1 18.1-18.2 18.1-10 0-18.1-8.1-18.1-18.1 0-10 8.1-18.2 18.1-18.2zm-5.8 21.8c11.7 0 21.1 9.4 21.1 21.1 0 11.6-9.4 21-21.1 21-11.6 0-21-9.4-21-21 0-11.7 9.4-21.1 21-21.1z"/>
			<path id="形状 1" class="s10" d="m-93.4 913h47.6l-21.4 26.4 21.2 4.6-78.9 56 28.9-52.5-20-1.8z"/>
		</g>
		<path id="22 拷贝" class="s2" aria-label="22"  d="m-97.7 1089.5q0 0.1 0 0.1 0.1 0.1 0.2 0.1h8.8q0.3 0 0.3 0.3v1.6q0 0.4-0.3 0.4h-11.8q-0.4 0-0.4-0.4v-1.7q0-0.3 0.2-0.5 1.1-1.8 1.3-2.1 3.3-5.2 5.2-8.4 2.4-4.2 2.4-6.9 0-1.9-0.9-3.1-0.9-1.1-2.4-1.1-1.4 0-2.3 1.1-0.9 1.2-0.8 3v1.5q0 0.3-0.4 0.3h-1.9q-0.4 0-0.4-0.3v-1.5q0.1-2.9 1.7-4.7 1.6-1.8 4.2-1.8 2.7 0 4.3 1.9 1.6 1.8 1.6 4.7 0 3.6-2.7 8-1.3 2.3-3.8 6.1zm15.1 0q0 0.1 0 0.2 0.1 0 0.1 0h8.8q0.4 0 0.4 0.4v1.6q0 0.4-0.4 0.4h-11.7q-0.4 0-0.4-0.4v-1.7q0-0.3 0.1-0.5 1.2-1.8 1.4-2.1 3.3-5.2 5.2-8.5 2.4-4.1 2.4-6.8 0-1.9-0.9-3.1-0.9-1.2-2.4-1.2-1.4 0-2.3 1.2-0.9 1.1-0.8 3v1.4q0 0.4-0.4 0.4h-2q-0.3 0-0.3-0.4v-1.5q0-2.9 1.6-4.6 1.7-1.8 4.3-1.8 2.6 0 4.3 1.8 1.6 1.8 1.6 4.8 0 3.5-2.7 8-1.3 2.2-3.8 6.1z"/>
		<path id="°c 拷贝" class="s2" aria-label="°c"  d="m-68.3 1067q-0.8 0-1.5-0.4-0.7-0.4-1-1-0.4-0.7-0.4-1.5 0-0.8 0.4-1.5 0.3-0.7 1-1.1 0.7-0.4 1.5-0.4 0.7 0 1.4 0.4 0.7 0.4 1.1 1.1 0.3 0.7 0.3 1.5 0 0.8-0.3 1.5-0.4 0.6-1.1 1-0.7 0.4-1.4 0.4zm0-0.9q0.8 0 1.3-0.6 0.6-0.6 0.6-1.4 0-0.9-0.6-1.5-0.5-0.6-1.3-0.6-0.9 0-1.4 0.6-0.6 0.6-0.6 1.5 0 0.8 0.6 1.4 0.5 0.6 1.4 0.6zm7.4 10q-1.4 0-2.3-0.8-0.8-0.9-0.8-2.3v-6.9q0-1.4 0.8-2.3 0.9-0.8 2.3-0.8 1.4 0 2.3 0.8 0.8 0.9 0.8 2.3v0.4q0 0.1-0.2 0.1l-0.9 0.1q-0.2 0-0.2-0.2v-0.4q0-0.9-0.5-1.4-0.5-0.6-1.3-0.6-0.8 0-1.3 0.6-0.5 0.5-0.5 1.4v7q0 0.8 0.5 1.4 0.5 0.5 1.3 0.5 0.8 0 1.3-0.5 0.5-0.6 0.5-1.4v-0.5q0-0.2 0.2-0.2l0.9 0.1q0.2 0 0.2 0.2v0.3q0 1.4-0.8 2.3-0.9 0.8-2.3 0.8z"/>
		<path id="tue" class="s2" aria-label="tue"  d="m-103.4 751.1q0.7 0 0.7 0.7v3.1q0 0.7-0.7 0.7h-9.6q-0.3 0-0.3 0.3v45.4q0 0.7-0.7 0.7h-3.8q-0.7 0-0.7-0.7v-45.4q0-0.3-0.3-0.3h-9q-0.7 0-0.7-0.7v-3.1q0-0.7 0.7-0.7zm23.5 14.8q0-0.7 0.7-0.7h3.7q0.8 0 0.8 0.7v35.4q0 0.7-0.8 0.7h-3.7q-0.7 0-0.7-0.7v-2.5q0-0.2-0.1-0.2-0.1 0-0.3 0.1-2.2 3.8-7.2 3.8-4.4 0-7-2.6-2.6-2.7-2.6-8.1v-25.9q0-0.7 0.8-0.7h3.7q0.7 0 0.7 0.7v24.8q0 3.6 1.5 5.5 1.5 1.8 4.3 1.8 2.9 0 4.5-2.1 1.7-2.1 1.7-5.8zm36 19q0 0.7-0.7 0.7h-16.6q-0.3 0-0.3 0.3v5.3q0 3 1.7 5 1.7 1.9 4.5 1.9 2.3 0 3.9-1.4 1.7-1.4 2.2-3.7 0.2-0.7 0.8-0.7l3.6 0.2q0.3 0 0.5 0.2 0.3 0.2 0.2 0.6-0.6 4.3-3.6 6.8-2.9 2.5-7.6 2.5-5.2 0-8.3-3.1-3.1-3-3.1-8v-15.7q0-5 3.1-8 3.1-3.2 8.3-3.2 5.2 0 8.3 3.2 3.1 3 3.1 8zm-11.4-15.7q-2.8 0-4.5 1.9-1.7 1.9-1.7 5v4.9q0 0.3 0.3 0.3h11.9q0.3 0 0.3-0.3v-4.9q0-3.1-1.7-5-1.8-1.9-4.6-1.9z"/>
	</g>
	<g id="3">
		<path id="3" class="s4" d="m124 720h238c11 0 20 9 20 20v368c0 11-9 20-20 20h-238c-11 0-20-9-20-20v-368c0-11 9-20 20-20z"/>
		<g id="组 1 拷贝">
			<path id="椭圆 4 拷贝 2" class="s11" d="m175.5 885.8c12.5 0 22.5 10.1 22.5 22.5 0 12.4-10 22.5-22.5 22.5-12.4 0-22.5-10.1-22.5-22.5 0-12.4 10.1-22.5 22.5-22.5zm30.2-31.3c16.2 0 29.2 13 29.2 29.1 0 16.1-13 29.2-29.2 29.2-16.1 0-29.2-13.1-29.2-29.2 0-16.1 13.1-29.1 29.2-29.1zm55.5-19.5c20.6 0 37.4 16.7 37.4 37.3 0 20.6-16.8 37.3-37.4 37.3-20.6 0-37.3-16.7-37.3-37.3 0-20.6 16.7-37.3 37.3-37.3zm43.5 34.8c13.3 0 24.1 10.8 24.1 24.1 0 13.3-10.8 24.1-24.1 24.1-13.3 0-24.1-10.8-24.1-24.1 0-13.3 10.8-24.1 24.1-24.1zm-88.4 17.8c17.9 0 32.3 14.4 32.3 32.2 0 17.8-14.4 32.2-32.3 32.2-17.8 0-32.2-14.4-32.2-32.2 0-17.8 14.4-32.2 32.2-32.2zm50.7-7.9c17.4 0 31.6 14.1 31.6 31.5 0 17.4-14.2 31.5-31.6 31.5-17.4 0-31.5-14.1-31.5-31.5 0-17.4 14.1-31.5 31.5-31.5zm29.2 23.2c10 0 18.1 8.1 18.1 18 0 10-8.1 18-18.1 18-9.9 0-18-8-18-18 0-9.9 8.1-18 18-18zm-69.3-61.5c8.5 0 15.3 6.8 15.3 15.2 0 8.4-6.8 15.3-15.3 15.3-8.4 0-15.2-6.9-15.2-15.3 0-8.4 6.8-15.2 15.2-15.2zm104.9 37.1c10.1 0 18.2 8.2 18.2 18.2 0 10-8.1 18.1-18.2 18.1-10 0-18.1-8.1-18.1-18.1 0-10 8.1-18.2 18.1-18.2zm-5.8 21.8c11.7 0 21.1 9.4 21.1 21.1 0 11.6-9.4 21-21.1 21-11.6 0-21-9.4-21-21 0-11.7 9.4-21.1 21-21.1z"/>
			<path id="圆角矩形 3" class="s10" d="m223.7 922.3c2.5 0.2 4.2 2.4 3.9 4.7l-2.4 20.8c-0.2 2.2-2.3 3.8-4.7 3.6-2.3-0.3-4-2.3-3.8-4.5l2.2-20.8c0.2-2.4 2.4-4.1 4.8-3.8z"/>
			<path id="圆角矩形 3 拷贝" class="s10" d="m245.5 934.3c2.4 0.2 4 2.3 3.7 4.6l-3 20.2c-0.4 2.1-2.5 3.7-4.8 3.4-2.3-0.2-3.9-2.2-3.6-4.3l2.7-20.2c0.4-2.3 2.6-4 5-3.7z"/>
			<path id="圆角矩形 3 拷贝 2" class="s10" d="m271.6 917.2c2.5 0.3 4.1 2.5 3.7 4.9l-3.9 21.2c-0.4 2.3-2.6 3.9-5 3.7-2.3-0.3-3.9-2.3-3.6-4.6l3.6-21.2c0.5-2.4 2.8-4.2 5.2-4z"/>
			<path id="圆角矩形 3 拷贝 3" class="s10" d="m289.9 944.2c2.4 0.2 4 2.3 3.5 4.5l-4.3 19.8c-0.4 2.1-2.7 3.6-4.9 3.4-2.3-0.3-3.8-2.2-3.4-4.3l4-19.8c0.5-2.2 2.8-3.9 5.1-3.6z"/>
			<path id="圆角矩形 3 拷贝 4" class="s10" d="m318.5 922.1c2.4 0.3 3.9 2.4 3.3 4.8l-5.2 21.1c-0.6 2.3-2.9 3.9-5.3 3.6-2.3-0.2-3.8-2.2-3.3-4.5l5-21.1c0.5-2.4 3-4.1 5.5-3.9z"/>
			<path id="圆角矩形 3 拷贝 5" class="s10" d="m260 962.2c2.3 0.2 3.9 2.1 3.5 4.2l-2.9 18.4c-0.4 1.9-2.4 3.3-4.6 3.1-2.2-0.2-3.7-2-3.4-4l2.7-18.3c0.3-2.1 2.4-3.6 4.7-3.4z"/>
			<path id="圆角矩形 3 拷贝 6" class="s10" d="m207 956.2c2.3 0.2 3.9 2.1 3.5 4.2l-2.9 18.4c-0.4 1.9-2.4 3.3-4.6 3.1-2.2-0.2-3.7-2-3.4-4l2.7-18.3c0.3-2.1 2.4-3.6 4.7-3.4z"/>
			<path id="圆角矩形 3 拷贝 7" class="s10" d="m186 921.2c2.3 0.2 3.9 2.1 3.5 4.2l-2.9 18.4c-0.4 1.9-2.4 3.3-4.6 3.1-2.2-0.2-3.7-2-3.4-4l2.7-18.3c0.3-2.1 2.4-3.6 4.7-3.4z"/>
		</g>
		<path id="24" class="s2" aria-label="24"  d="m240.3 1088.5q0 0.1 0 0.1 0.1 0.1 0.2 0.1h8.8q0.3 0 0.3 0.3v1.6q0 0.4-0.3 0.4h-11.8q-0.4 0-0.4-0.4v-1.7q0-0.3 0.2-0.5 1.1-1.8 1.3-2.1 3.3-5.2 5.2-8.4 2.4-4.2 2.4-6.9 0-1.9-0.9-3.1-0.9-1.1-2.4-1.1-1.4 0-2.3 1.1-0.9 1.2-0.8 3v1.5q0 0.3-0.4 0.3h-1.9q-0.4 0-0.4-0.3v-1.5q0.1-2.9 1.7-4.7 1.6-1.8 4.2-1.8 2.7 0 4.3 1.9 1.6 1.8 1.6 4.7 0 3.6-2.7 8-1.3 2.3-3.8 6.1zm24.8-7q0.3 0 0.3 0.3v1.7q0 0.4-0.3 0.4h-1.2q-0.2 0-0.2 0.1v6.7q0 0.4-0.3 0.4h-1.9q-0.4 0-0.4-0.4v-6.7q0-0.1-0.2-0.1h-9q-0.4 0-0.4-0.4v-1.4q0-0.2 0.1-0.5l5.6-16.5q0.1-0.3 0.5-0.3h2q0.4 0 0.3 0.4l-5.4 16.1q0 0 0 0.1 0.1 0.1 0.1 0.1h6.2q0.2 0 0.2-0.2v-5.7q0-0.4 0.4-0.4h1.9q0.3 0 0.3 0.4v5.7q0 0.2 0.2 0.2z"/>
		<path id="°c 拷贝 2" class="s2" aria-label="°c"  d="m269.7 1066q-0.8 0-1.5-0.4-0.7-0.4-1-1-0.4-0.7-0.4-1.5 0-0.8 0.4-1.5 0.3-0.7 1-1.1 0.7-0.4 1.5-0.4 0.7 0 1.4 0.4 0.7 0.4 1.1 1.1 0.3 0.7 0.3 1.5 0 0.8-0.3 1.5-0.4 0.6-1.1 1-0.7 0.4-1.4 0.4zm0-0.9q0.8 0 1.3-0.6 0.6-0.6 0.6-1.4 0-0.9-0.6-1.5-0.5-0.6-1.3-0.6-0.9 0-1.4 0.6-0.6 0.6-0.6 1.5 0 0.8 0.6 1.4 0.5 0.6 1.4 0.6zm7.4 10q-1.4 0-2.3-0.8-0.8-0.9-0.8-2.3v-6.9q0-1.4 0.8-2.3 0.9-0.8 2.3-0.8 1.4 0 2.3 0.8 0.8 0.9 0.8 2.3v0.4q0 0.1-0.2 0.1l-0.9 0.1q-0.2 0-0.2-0.2v-0.4q0-0.9-0.5-1.4-0.5-0.6-1.3-0.6-0.8 0-1.3 0.6-0.5 0.5-0.5 1.4v7q0 0.8 0.5 1.4 0.5 0.5 1.3 0.5 0.8 0 1.3-0.5 0.5-0.6 0.5-1.4v-0.5q0-0.2 0.2-0.2l0.9 0.1q0.2 0 0.2 0.2v0.3q0 1.4-0.8 2.3-0.9 0.8-2.3 0.8z"/>
		<path id="Wed" class="s2" aria-label="Wed"  d="m208.5 802q-0.6 0-0.8-0.7l-9.6-49.4v-0.2q0-0.6 0.7-0.6h3.8q0.8 0 0.8 0.6l6.9 38.3q0 0.1 0.1 0.1 0.1 0 0.2-0.1l5.8-38.3q0.2-0.6 0.8-0.6h3.3q0.7 0 0.7 0.6l6.2 38.3q0.1 0.1 0.2 0.1 0 0 0.1-0.1l6.3-38.3q0.1-0.6 0.7-0.6h3.9q0.3 0 0.5 0.2 0.2 0.2 0.1 0.6l-9 49.4q-0.1 0.7-0.8 0.7h-3.6q-0.6 0-0.7-0.7l-6.1-38.4q-0.1-0.1-0.2-0.1-0.1 0-0.1 0.1l-6 38.4q0 0.7-0.7 0.7zm56.5-17.2q0 0.8-0.8 0.8h-16.6q-0.2 0-0.2 0.3v5.3q0 3 1.6 5 1.8 1.9 4.5 1.9 2.4 0 4-1.4 1.6-1.5 2.1-3.7 0.3-0.7 0.8-0.7l3.7 0.2q0.3 0 0.5 0.2 0.2 0.2 0.1 0.6-0.5 4.3-3.5 6.8-2.9 2.5-7.7 2.5-5.1 0-8.3-3.1-3-3-3-8v-15.8q0-4.9 3-8 3.2-3.1 8.3-3.1 5.3 0 8.3 3.1 3.2 3.1 3.2 8zm-11.5-15.7q-2.7 0-4.5 2-1.6 1.9-1.6 5v4.9q0 0.3 0.2 0.3h12q0.3 0 0.3-0.3v-4.9q0-3.1-1.8-5-1.7-2-4.6-2zm35.8-17.3q0-0.7 0.8-0.7h3.7q0.7 0 0.7 0.7v49.5q0 0.7-0.7 0.7h-3.7q-0.8 0-0.8-0.7v-1.6q0-0.2-0.1-0.2-0.1-0.1-0.2 0-2.8 3.1-7 3.1-4.7 0-7.4-3.1-2.8-3.1-2.8-8v-15.8q0-5 2.8-8 2.7-3.1 7.4-3.1 4.3 0 7 3.1 0.1 0.2 0.2 0.1 0.1-0.1 0.1-0.2zm-6.1 46.3q2.7 0 4.4-1.9 1.7-2 1.7-5v-15.1q0-3.1-1.7-5-1.7-2-4.4-2-2.7 0-4.6 2-1.7 1.9-1.7 5v15.1q0 3 1.7 5 1.9 1.9 4.6 1.9z"/>
	</g>
	<g id="4">
		<path id="4" class="s4" d="m446 720h238c11 0 20 9 20 20v368c0 11-9 20-20 20h-238c-11 0-20-9-20-20v-368c0-11 9-20 20-20z"/>
		<g id="组 2 拷贝 2">
			<g id="yang">
				<path id="椭圆 2" class="s5" d="m576.1 866.5c24.5 7.2 38.5 32.9 31.3 57.4-7.2 24.5-32.9 38.5-57.4 31.3-24.5-7.2-38.5-33-31.3-57.4 7.2-24.5 32.9-38.5 57.4-31.3z"/>
				<path id="椭圆 2 拷贝" class="s6" d="m572.9 870c23.4 6.9 36.7 31.4 29.8 54.8-6.9 23.3-31.4 36.7-54.8 29.8-23.4-6.9-36.7-31.4-29.8-54.8 6.9-23.4 31.4-36.7 54.8-29.8z"/>
				<path id="椭圆 2 拷贝 2" class="s7" d="m566.9 877.6c20.2 6 31.7 27.2 25.8 47.3-6 20.2-27.2 31.7-47.4 25.8-20.2-6-31.7-27.2-25.8-47.4 6-20.1 27.2-31.7 47.4-25.7z"/>
				<path id="圆角矩形 2" class="s5" d="m583.4 841.3l0.4 0.1c2.2 0.6 3.4 2.9 2.8 5.1l-3.9 13c-0.6 2.2-2.9 3.4-5.1 2.8l-0.4-0.2c-2.2-0.6-3.4-2.9-2.8-5.1l3.9-13c0.6-2.1 2.9-3.4 5.1-2.7z"/>
				<path id="圆角矩形 2 拷贝" class="s5" d="m548.4 959.7l0.4 0.2c2.2 0.6 3.4 2.9 2.8 5.1l-3.9 13c-0.6 2.1-2.9 3.4-5.1 2.7l-0.4-0.1c-2.2-0.6-3.4-2.9-2.8-5.1l3.9-13c0.6-2.2 2.9-3.4 5.1-2.8z"/>
				<path id="圆角矩形 2 拷贝 2" class="s5" d="m617 922.4l13 3.9c2.2 0.6 3.4 2.9 2.8 5.1l-0.2 0.4c-0.6 2.2-2.9 3.4-5.1 2.8l-13-3.9c-2.1-0.6-3.4-2.9-2.7-5.1l0.1-0.4c0.6-2.2 2.9-3.4 5.1-2.8z"/>
				<path id="圆角矩形 2 拷贝 2" class="s5" d="m498.5 887.4l13 3.9c2.2 0.6 3.4 2.9 2.8 5.1l-0.2 0.4c-0.6 2.2-2.9 3.4-5.1 2.8l-13-3.9c-2.1-0.6-3.4-2.9-2.7-5.1l0.1-0.4c0.6-2.2 2.9-3.4 5.1-2.8z"/>
				<path id="圆角矩形 2 拷贝 3" class="s5" d="m544.9 840.6l2.2-0.5c1.7-0.4 3.4 0.7 3.8 2.4l3.6 14.9c0.4 1.7-0.6 3.5-2.3 3.9l-2.2 0.5c-1.7 0.4-3.5-0.6-3.9-2.4l-3.6-14.9c-0.4-1.7 0.7-3.4 2.4-3.9z"/>
				<path id="圆角矩形 2 拷贝 3" class="s5" d="m573.8 960.7l2.2-0.5c1.7-0.4 3.5 0.6 3.9 2.4l3.6 14.9c0.4 1.7-0.7 3.4-2.4 3.9l-2.2 0.5c-1.7 0.4-3.4-0.7-3.8-2.4l-3.6-14.9c-0.4-1.7 0.6-3.5 2.3-3.9z"/>
				<path id="圆角矩形 2 拷贝 3" class="s5" d="m614.6 894.1l14.9-3.6c1.7-0.4 3.5 0.7 3.9 2.4l0.5 2.2c0.4 1.7-0.6 3.4-2.4 3.8l-14.9 3.6c-1.7 0.4-3.4-0.6-3.9-2.3l-0.5-2.2c-0.4-1.7 0.7-3.5 2.4-3.9z"/>
				<path id="圆角矩形 2 拷贝 3" class="s5" d="m494.5 923.1l14.9-3.6c1.7-0.4 3.4 0.6 3.9 2.3l0.5 2.2c0.4 1.7-0.7 3.5-2.4 3.9l-14.9 3.6c-1.7 0.4-3.5-0.7-3.9-2.4l-0.5-2.2c-0.4-1.7 0.6-3.4 2.4-3.8z"/>
				<path id="圆角矩形 2 拷贝 4" class="s5" d="m512.1 859.1l1.7-1.5c1.2-1.2 3.3-1.2 4.5 0.1l10.6 11.1c1.2 1.3 1.1 3.3-0.2 4.6l-1.6 1.5c-1.3 1.2-3.3 1.2-4.5-0.1l-10.6-11.2c-1.2-1.2-1.2-3.3 0.1-4.5z"/>
				<path id="圆角矩形 2 拷贝 4" class="s5" d="m597.3 948.7l1.6-1.6c1.3-1.2 3.3-1.2 4.5 0.1l10.6 11.2c1.2 1.2 1.2 3.3-0.1 4.5l-1.6 1.5c-1.3 1.2-3.4 1.2-4.6-0.1l-10.6-11.1c-1.2-1.3-1.1-3.3 0.2-4.5z"/>
				<path id="圆角矩形 2 拷贝 4" class="s5" d="m599.2 870.6l11.2-10.6c1.3-1.2 3.3-1.1 4.5 0.1l1.5 1.7c1.3 1.2 1.2 3.3-0.1 4.5l-11.1 10.6c-1.3 1.2-3.3 1.1-4.5-0.1l-1.6-1.7c-1.2-1.3-1.1-3.3 0.1-4.5z"/>
				<path id="圆角矩形 2 拷贝 4" class="s5" d="m509.7 955.7l11.1-10.6c1.3-1.2 3.3-1.1 4.5 0.1l1.6 1.7c1.2 1.3 1.2 3.3-0.1 4.5l-11.2 10.6c-1.2 1.2-3.3 1.1-4.5-0.1l-1.5-1.7c-1.3-1.2-1.2-3.3 0.1-4.5z"/>
			</g>
		</g>
		<path id="30" class="s2" aria-label="30"  d="m559.4 1081.8q0.6 1.9 0.6 4.2 0 2-0.4 3.7-1.1 4.6-5.6 4.6-2.4 0-3.9-1.3-1.5-1.3-1.9-3.7-0.2-1.3-0.2-2.8 0-0.4 0.4-0.4h1.9q0.4 0 0.4 0.4 0 1.3 0.2 2.4 0.6 3.1 3.1 3.1 1.2 0 2-0.7 0.7-0.8 1.1-2.1 0.3-1.6 0.3-3.4 0-2.3-0.5-3.9-0.3-1.2-1.1-1.8-0.7-0.7-1.8-0.7-0.3 0-0.9 0.3-0.3 0.2-0.5-0.1l-1-1q-0.1-0.2 0-0.5l5-7.8q0-0.1 0-0.2 0 0-0.1 0h-7.9q-0.4 0-0.4-0.4v-1.6q0-0.4 0.4-0.4h10.9q0.4 0 0.4 0.4v1.7q0 0.2-0.2 0.5l-4.6 7.3q0 0 0 0.1 0 0.1 0.1 0.1 1.5 0.1 2.6 1.2 1.1 1 1.6 2.8zm10.8 12.6q-2.8 0-4.6-1.9-1.7-1.8-1.7-4.8v-13.6q0-3 1.7-4.9 1.8-1.8 4.6-1.8 2.9 0 4.7 1.8 1.7 1.9 1.7 4.9v13.6q0 3-1.7 4.8-1.8 1.9-4.7 1.9zm0-2.4q1.7 0 2.7-1.1 1.1-1.2 1.1-3.1v-13.9q0-1.9-1.1-3-1-1.2-2.7-1.2-1.6 0-2.7 1.2-1 1.1-1 3v13.9q0 1.9 1 3.1 1.1 1.1 2.7 1.1z"/>
		<path id="°c 拷贝 3" class="s2" aria-label="°c"  d="m580.7 1069q-0.8 0-1.5-0.4-0.7-0.4-1-1-0.4-0.7-0.4-1.5 0-0.8 0.4-1.5 0.3-0.7 1-1.1 0.7-0.4 1.5-0.4 0.7 0 1.4 0.4 0.7 0.4 1.1 1.1 0.3 0.7 0.3 1.5 0 0.8-0.3 1.5-0.4 0.6-1.1 1-0.7 0.4-1.4 0.4zm0-0.9q0.8 0 1.3-0.6 0.6-0.6 0.6-1.4 0-0.9-0.6-1.5-0.5-0.6-1.3-0.6-0.9 0-1.4 0.6-0.6 0.6-0.6 1.5 0 0.8 0.6 1.4 0.5 0.6 1.4 0.6zm7.4 10q-1.4 0-2.3-0.8-0.8-0.9-0.8-2.3v-6.9q0-1.4 0.8-2.3 0.9-0.8 2.3-0.8 1.4 0 2.3 0.8 0.8 0.9 0.8 2.3v0.4q0 0.1-0.2 0.1l-0.9 0.1q-0.2 0-0.2-0.2v-0.4q0-0.9-0.5-1.4-0.5-0.6-1.3-0.6-0.8 0-1.3 0.6-0.5 0.5-0.5 1.4v7q0 0.8 0.5 1.4 0.5 0.5 1.3 0.5 0.8 0 1.3-0.5 0.5-0.6 0.5-1.4v-0.5q0-0.2 0.2-0.2l0.9 0.1q0.2 0 0.2 0.2v0.3q0 1.4-0.8 2.3-0.9 0.8-2.3 0.8z"/>
		<path id="thur" class="s2" aria-label="thur"  d="m535.6 751.1q0.7 0 0.7 0.7v3.1q0 0.7-0.7 0.7h-9.6q-0.3 0-0.3 0.3v45.4q0 0.7-0.7 0.7h-3.8q-0.7 0-0.7-0.7v-45.4q0-0.3-0.3-0.3h-9q-0.7 0-0.7-0.7v-3.1q0-0.7 0.7-0.7zm20.7 13.6q4.5 0 6.9 3 2.4 3.1 2.4 8.6v25q0 0.7-0.7 0.7h-3.7q-0.7 0-0.7-0.7v-24.6q0-3.6-1.6-5.5-1.5-2-4.3-2-2.9 0-4.6 2.1-1.6 2.1-1.6 5.8v24.2q0 0.7-0.7 0.7h-3.7q-0.8 0-0.8-0.7v-49.5q0-0.7 0.8-0.7h3.7q0.7 0 0.7 0.7v16.4q0 0.2 0.2 0.3 0.1 0 0.2-0.2 1.3-1.8 3.2-2.7 2.1-0.9 4.3-0.9zm34.6 1.2q0-0.7 0.7-0.7h3.7q0.8 0 0.8 0.7v35.4q0 0.7-0.8 0.7h-3.7q-0.7 0-0.7-0.7v-2.5q0-0.2-0.2-0.2 0 0-0.2 0.1-2.2 3.8-7.2 3.8-4.4 0-7-2.6-2.6-2.7-2.6-8.1v-25.9q0-0.7 0.8-0.7h3.7q0.7 0 0.7 0.7v24.8q0 3.6 1.4 5.5 1.6 1.8 4.4 1.8 2.9 0 4.5-2.1 1.7-2.1 1.7-5.8zm26.5-1q1.8 0 3.1 0.8 0.5 0.2 0.4 0.9l-0.9 3.8q-0.1 0.6-0.9 0.4-0.9-0.4-2.2-0.4-0.6 0-0.8 0.1-2.7 0.1-4.3 2.7-1.7 2.6-1.7 6.3v21.8q0 0.7-0.7 0.7h-3.7q-0.8 0-0.8-0.7v-35.4q0-0.7 0.8-0.7h3.7q0.7 0 0.7 0.7v4.4q0 0.2 0.1 0.2 0.1 0 0.3-0.1 2.1-5.5 6.9-5.5z"/>
	</g>
	<g id="5">
		<path id="5" class="s4" d="m768 720h238c11 0 20 9 20 20v368c0 11-9 20-20 20h-238c-11 0-20-9-20-20v-368c0-11 9-20 20-20z"/>
		<g id="组 3">
			<path id="椭圆 4 拷贝 3" class="s12" d="m819.5 886.8c12.5 0 22.5 10.1 22.5 22.5 0 12.4-10 22.5-22.5 22.5-12.4 0-22.5-10.1-22.5-22.5 0-12.4 10.1-22.5 22.5-22.5zm30.2-31.3c16.2 0 29.2 13 29.2 29.1 0 16.1-13 29.2-29.2 29.2-16.1 0-29.2-13.1-29.2-29.2 0-16.1 13.1-29.1 29.2-29.1zm55.5-19.5c20.6 0 37.4 16.7 37.4 37.3 0 20.6-16.8 37.3-37.4 37.3-20.6 0-37.3-16.7-37.3-37.3 0-20.6 16.7-37.3 37.3-37.3zm43.5 34.8c13.3 0 24.1 10.8 24.1 24.1 0 13.3-10.8 24.1-24.1 24.1-13.3 0-24.1-10.8-24.1-24.1 0-13.3 10.8-24.1 24.1-24.1zm-88.4 17.8c17.9 0 32.3 14.4 32.3 32.2 0 17.8-14.4 32.2-32.3 32.2-17.8 0-32.2-14.4-32.2-32.2 0-17.8 14.4-32.2 32.2-32.2zm50.7-7.9c17.4 0 31.6 14.1 31.6 31.5 0 17.4-14.2 31.5-31.6 31.5-17.4 0-31.5-14.1-31.5-31.5 0-17.4 14.1-31.5 31.5-31.5zm29.2 23.2c10 0 18.1 8.1 18.1 18 0 10-8.1 18-18.1 18-9.9 0-18-8-18-18 0-9.9 8.1-18 18-18zm-69.3-61.5c8.5 0 15.3 6.8 15.3 15.2 0 8.4-6.8 15.3-15.3 15.3-8.4 0-15.2-6.9-15.2-15.3 0-8.4 6.8-15.2 15.2-15.2zm104.9 37.1c10.1 0 18.2 8.2 18.2 18.2 0 10-8.1 18.1-18.2 18.1-10 0-18.1-8.1-18.1-18.1 0-10 8.1-18.2 18.1-18.2zm-5.8 21.8c11.7 0 21.1 9.4 21.1 21.1 0 11.6-9.4 21-21.1 21-11.6 0-21-9.4-21-21 0-11.7 9.4-21.1 21-21.1z"/>
			<path id="形状 2" class="s13" d="m815 943c0 0 87.8 0 93 0 5.2 0 25.2-6.9 22-29-3.2-22.1-30.1-19.6-35-6-4.9 13.6 8.9 25.7 22 13"/>
			<path id="形状 3" class="s13" d="m815 953c0 0 71 0 77 0 6 0 22.7 5.7 23 17"/>
			<path id="形状 4" class="s13" d="m815 963h55"/>
		</g>
		<path id="22" class="s2" aria-label="22"  d="m871.3 1091.5q0 0.1 0 0.1 0.1 0.1 0.2 0.1h8.8q0.3 0 0.3 0.3v1.6q0 0.4-0.3 0.4h-11.8q-0.4 0-0.4-0.4v-1.7q0-0.3 0.2-0.5 1.1-1.8 1.3-2.1 3.3-5.2 5.2-8.4 2.4-4.2 2.4-6.9 0-1.9-0.9-3.1-0.9-1.1-2.4-1.1-1.4 0-2.3 1.1-0.9 1.2-0.8 3v1.5q0 0.3-0.4 0.3h-1.9q-0.4 0-0.4-0.3v-1.5q0.1-2.9 1.7-4.7 1.6-1.8 4.2-1.8 2.7 0 4.3 1.9 1.6 1.8 1.6 4.7 0 3.6-2.7 8-1.3 2.3-3.8 6.1zm15.1 0q0 0.1 0 0.2 0.1 0 0.1 0h8.8q0.4 0 0.4 0.4v1.6q0 0.4-0.4 0.4h-11.7q-0.4 0-0.4-0.4v-1.7q0-0.3 0.1-0.5 1.2-1.8 1.4-2.1 3.3-5.2 5.2-8.5 2.4-4.1 2.4-6.8 0-1.9-0.9-3.1-0.9-1.2-2.4-1.2-1.4 0-2.3 1.2-0.9 1.1-0.8 3v1.4q0 0.4-0.4 0.4h-2q-0.3 0-0.3-0.4v-1.5q0-2.9 1.6-4.6 1.7-1.8 4.3-1.8 2.6 0 4.3 1.8 1.6 1.8 1.6 4.8 0 3.5-2.7 8-1.3 2.2-3.8 6.1z"/>
		<path id="°c 拷贝 4" class="s2" aria-label="°c"  d="m900.7 1069q-0.8 0-1.5-0.4-0.7-0.4-1-1-0.4-0.7-0.4-1.5 0-0.8 0.4-1.5 0.3-0.7 1-1.1 0.7-0.4 1.5-0.4 0.7 0 1.4 0.4 0.7 0.4 1.1 1.1 0.3 0.7 0.3 1.5 0 0.8-0.3 1.5-0.4 0.6-1.1 1-0.7 0.4-1.4 0.4zm0-0.9q0.8 0 1.3-0.6 0.6-0.6 0.6-1.4 0-0.9-0.6-1.5-0.5-0.6-1.3-0.6-0.9 0-1.4 0.6-0.6 0.6-0.6 1.5 0 0.8 0.6 1.4 0.5 0.6 1.4 0.6zm7.4 10q-1.4 0-2.3-0.8-0.8-0.9-0.8-2.3v-6.9q0-1.4 0.8-2.3 0.9-0.8 2.3-0.8 1.4 0 2.3 0.8 0.8 0.9 0.8 2.3v0.4q0 0.1-0.2 0.1l-0.9 0.1q-0.2 0-0.2-0.2v-0.4q0-0.9-0.5-1.4-0.5-0.6-1.3-0.6-0.8 0-1.3 0.6-0.5 0.5-0.5 1.4v7q0 0.8 0.5 1.4 0.5 0.5 1.3 0.5 0.8 0 1.3-0.5 0.5-0.6 0.5-1.4v-0.5q0-0.2 0.2-0.2l0.9 0.1q0.2 0 0.2 0.2v0.3q0 1.4-0.8 2.3-0.9 0.8-2.3 0.8z"/>
		<path id="fri" class="s2" aria-label="fri"  d="m880.2 754.9q0 0.7-0.8 0.7h-16.7q-0.3 0-0.3 0.3v18q0 0.3 0.3 0.3h10.5q0.8 0 0.8 0.7v3.2q0 0.7-0.8 0.7h-10.5q-0.3 0-0.3 0.3v22.2q0 0.7-0.7 0.7h-3.7q-0.8 0-0.8-0.7v-49.5q0-0.7 0.8-0.7h21.4q0.8 0 0.8 0.7zm16.2 10q1.8 0 3.1 0.8 0.5 0.3 0.4 0.9l-0.9 3.8q-0.1 0.7-0.9 0.4-0.8-0.4-2.2-0.4-0.5 0-0.8 0.1-2.6 0.1-4.3 2.7-1.7 2.6-1.7 6.3v21.8q0 0.7-0.7 0.7h-3.7q-0.8 0-0.8-0.7v-35.3q0-0.8 0.8-0.8h3.7q0.7 0 0.7 0.8v4.3q0 0.2 0.1 0.2 0.1 0 0.3-0.1 2.1-5.5 6.9-5.5zm11.9-6.4q-1.8 0-3-1.1-1.1-1.2-1.1-2.9 0-1.8 1.1-2.9 1.2-1.2 3-1.2 1.8 0 2.8 1.2 1.2 1.1 1.2 2.9 0 1.7-1.2 2.9-1 1.1-2.8 1.1zm-1.8 43.5q-0.7 0-0.7-0.7v-35.3q0-0.8 0.7-0.8h3.7q0.7 0 0.7 0.8v35.3q0 0.7-0.7 0.7z"/>
	</g>
	<g id="5">
		<path id="6" class="s4" d="m1084 720h238c11 0 20 9 20 20v368c0 11-9 20-20 20h-238c-11 0-20-9-20-20v-368c0-11 9-20 20-20z"/>
		<g id="组 3 拷贝">
			<path id="椭圆 4 拷贝 3" class="s14" d="m1137.5 890.8c12.5 0 22.5 10.1 22.5 22.5 0 12.4-10 22.5-22.5 22.5-12.4 0-22.5-10.1-22.5-22.5 0-12.4 10.1-22.5 22.5-22.5zm30.2-31.3c16.2 0 29.2 13 29.2 29.1 0 16.1-13 29.2-29.2 29.2-16.1 0-29.2-13.1-29.2-29.2 0-16.1 13.1-29.1 29.2-29.1zm55.5-19.5c20.6 0 37.4 16.7 37.4 37.3 0 20.6-16.8 37.3-37.4 37.3-20.6 0-37.3-16.7-37.3-37.3 0-20.6 16.7-37.3 37.3-37.3zm43.5 34.8c13.3 0 24.1 10.8 24.1 24.1 0 13.3-10.8 24.1-24.1 24.1-13.3 0-24.1-10.8-24.1-24.1 0-13.3 10.8-24.1 24.1-24.1zm-88.4 17.8c17.9 0 32.3 14.4 32.3 32.2 0 17.8-14.4 32.2-32.3 32.2-17.8 0-32.2-14.4-32.2-32.2 0-17.8 14.4-32.2 32.2-32.2zm50.7-7.9c17.4 0 31.6 14.1 31.6 31.5 0 17.4-14.2 31.5-31.6 31.5-17.4 0-31.5-14.1-31.5-31.5 0-17.4 14.1-31.5 31.5-31.5zm29.2 23.2c10 0 18.1 8.1 18.1 18 0 10-8.1 18-18.1 18-9.9 0-18-8-18-18 0-9.9 8.1-18 18-18zm-69.3-61.5c8.5 0 15.3 6.8 15.3 15.2 0 8.4-6.8 15.3-15.3 15.3-8.4 0-15.2-6.9-15.2-15.3 0-8.4 6.8-15.2 15.2-15.2zm104.9 37.1c10.1 0 18.2 8.2 18.2 18.2 0 10-8.1 18.1-18.2 18.1-10 0-18.1-8.1-18.1-18.1 0-10 8.1-18.2 18.1-18.2zm-5.8 21.8c11.7 0 21.1 9.4 21.1 21.1 0 11.6-9.4 21-21.1 21-11.6 0-21-9.4-21-21 0-11.7 9.4-21.1 21-21.1z"/>
			<path id="形状 2" class="s13" d="m1133 947c0 0 87.8 0 93 0 5.2 0 25.2-6.9 22-29-3.2-22.1-30.1-19.6-35-6-4.9 13.6 8.9 25.7 22 13"/>
			<path id="形状 3" class="s13" d="m1133 957c0 0 71 0 77 0 6 0 22.7 5.7 23 17"/>
			<path id="形状 4" class="s13" d="m1133 967h55"/>
		</g>
		<path id="20" class="s2" aria-label="20"  d="m1193.3 1096.5q0 0.1 0 0.1 0.1 0.1 0.2 0.1h8.8q0.3 0 0.3 0.3v1.6q0 0.4-0.3 0.4h-11.8q-0.4 0-0.4-0.4v-1.7q0-0.3 0.2-0.5 1.1-1.8 1.3-2.1 3.3-5.2 5.2-8.4 2.4-4.2 2.4-6.9 0-1.9-0.9-3.1-0.9-1.1-2.4-1.1-1.4 0-2.3 1.1-0.9 1.2-0.8 3v1.5q0 0.3-0.4 0.3h-1.9q-0.4 0-0.4-0.3v-1.5q0.1-2.9 1.7-4.7 1.6-1.8 4.2-1.8 2.7 0 4.3 1.9 1.6 1.8 1.6 4.7 0 3.6-2.7 8-1.3 2.3-3.8 6.1zm18.7 2.9q-2.9 0-4.6-1.8-1.8-1.9-1.8-4.9v-13.6q0-3 1.8-4.8 1.7-1.9 4.6-1.9 2.9 0 4.6 1.9 1.8 1.8 1.8 4.8v13.6q0 3-1.8 4.9-1.7 1.8-4.6 1.8zm0-2.3q1.7 0 2.7-1.2 1-1.1 1-3v-13.9q0-1.9-1-3.1-1-1.1-2.7-1.1-1.7 0-2.7 1.1-1 1.2-1 3.1v13.9q0 1.9 1 3 1 1.2 2.7 1.2z"/>
		<path id="°c 拷贝 5" class="s2" aria-label="°c"  d="m1222.7 1074q-0.8 0-1.5-0.4-0.7-0.4-1-1-0.4-0.7-0.4-1.5 0-0.8 0.4-1.5 0.3-0.7 1-1.1 0.7-0.4 1.5-0.4 0.7 0 1.4 0.4 0.7 0.4 1.1 1.1 0.3 0.7 0.3 1.5 0 0.8-0.3 1.5-0.4 0.6-1.1 1-0.7 0.4-1.4 0.4zm0-0.9q0.8 0 1.3-0.6 0.6-0.6 0.6-1.4 0-0.9-0.6-1.5-0.5-0.6-1.3-0.6-0.9 0-1.4 0.6-0.6 0.6-0.6 1.5 0 0.8 0.6 1.4 0.5 0.6 1.4 0.6zm7.4 10q-1.4 0-2.3-0.8-0.8-0.9-0.8-2.3v-6.9q0-1.4 0.8-2.3 0.9-0.8 2.3-0.8 1.4 0 2.3 0.8 0.8 0.9 0.8 2.3v0.4q0 0.1-0.2 0.1l-0.9 0.1q-0.2 0-0.2-0.2v-0.4q0-0.9-0.5-1.4-0.5-0.6-1.3-0.6-0.8 0-1.3 0.6-0.5 0.5-0.5 1.4v7q0 0.8 0.5 1.4 0.5 0.5 1.3 0.5 0.8 0 1.3-0.5 0.5-0.6 0.5-1.4v-0.5q0-0.2 0.2-0.2l0.9 0.1q0.2 0 0.2 0.2v0.3q0 1.4-0.8 2.3-0.9 0.8-2.3 0.8z"/>
		<path id="sat" class="s2" aria-label="sat"  d="m1185.1 806.6q-5.3 0-8.7-3.6-3.3-3.5-3.3-9.3v-1.7q0-0.7 0.7-0.7h3.6q0.7 0 0.7 0.7v1.5q0 3.8 1.9 6.2 2 2.4 5.1 2.4 3.1 0 5.1-2.3 2.1-2.2 2.1-5.9 0-2.5-1.1-4.3-0.9-1.8-2.5-3.1-1.5-1.4-5.2-4.1-3.6-2.7-5.7-4.6-2.1-2-3.5-4.7-1.3-2.7-1.3-6.3 0-5.7 3.3-9 3.2-3.3 8.5-3.3 5.5 0 8.8 3.6 3.3 3.6 3.3 9.6v1.8q0 0.7-0.7 0.7h-3.6q-0.8 0-0.8-0.7v-1.9q0-3.9-1.9-6.2-1.9-2.4-5.1-2.4-2.9 0-4.8 2.1-1.9 2.1-1.9 5.8 0 2.3 0.8 4 0.9 1.7 2.5 3.2 1.7 1.6 5 4 4.3 3.2 6.4 5.3 2.2 1.9 3.4 4.3 1.2 2.4 1.2 5.7 0 6-3.5 9.6-3.4 3.6-8.8 3.6zm30.4-38q5.1 0 8.1 3.4 3.1 3.2 3.1 8.8v24.5q0 0.7-0.8 0.7h-3.7q-0.7 0-0.7-0.7v-2.2q0-0.2-0.1-0.2-0.1 0-0.3 0.1-2.6 3.6-8 3.6-4 0-7-2.3-2.9-2.3-2.9-8.1 0-6.2 3.5-9 3.6-2.9 9.4-2.9h5.1q0.3 0 0.3-0.3v-2.9q0-3.6-1.7-5.8-1.6-2.2-4.5-2.2-2.2 0-3.8 1.5-1.5 1.4-1.8 3.7 0 0.7-0.7 0.7l-4.1-0.1q-0.3 0-0.6-0.2-0.1-0.2 0-0.5 0.3-4.3 3.5-6.9 3.1-2.7 7.7-2.7zm-1.3 33.5q2.9 0 5.1-1.9 2.2-2 2.2-5.4v-6.1q0-0.3-0.3-0.3h-5.1q-3.5 0-5.6 1.9-2 1.8-2 5.4 0 3.2 1.5 4.8 1.6 1.6 4.2 1.6zm33.5-29.8q0 0.7-0.7 0.7h-5.6q-0.3 0-0.3 0.3v22.3q0 3.3 1.2 4.7 1.2 1.2 3.6 1.1h0.7q0.7 0 0.7 0.7v3.2q0 0.7-0.7 0.7h-1.8q-4.3 0-6.6-1.8-2.1-1.9-2.1-7.1v-23.8q0-0.3-0.3-0.3h-2.9q-0.7 0-0.7-0.7v-2.4q0-0.7 0.7-0.7h2.9q0.3 0 0.3-0.3v-8.1q0-0.8 0.7-0.8h3.6q0.7 0 0.7 0.8v8.1q0 0.3 0.3 0.3h5.6q0.7 0 0.7 0.7z"/>
	</g>
	<path id="7" class="s4" d="m1406 720h238c11 0 20 9 20 20v368c0 11-9 20-20 20h-238c-11 0-20-9-20-20v-368c0-11 9-20 20-20z"/>
	<g id="组 1 拷贝 2">
		<path id="椭圆 4 拷贝 2" class="s15" d="m1448.5 885.8c12.5 0 22.5 10.1 22.5 22.5 0 12.4-10 22.5-22.5 22.5-12.4 0-22.5-10.1-22.5-22.5 0-12.4 10.1-22.5 22.5-22.5zm30.2-31.3c16.2 0 29.2 13 29.2 29.1 0 16.1-13 29.2-29.2 29.2-16.1 0-29.2-13.1-29.2-29.2 0-16.1 13.1-29.1 29.2-29.1zm55.5-19.5c20.6 0 37.4 16.7 37.4 37.3 0 20.6-16.8 37.3-37.4 37.3-20.6 0-37.3-16.7-37.3-37.3 0-20.6 16.7-37.3 37.3-37.3zm43.5 34.8c13.3 0 24.1 10.8 24.1 24.1 0 13.3-10.8 24.1-24.1 24.1-13.3 0-24.1-10.8-24.1-24.1 0-13.3 10.8-24.1 24.1-24.1zm-88.4 17.8c17.9 0 32.3 14.4 32.3 32.2 0 17.8-14.4 32.2-32.3 32.2-17.8 0-32.2-14.4-32.2-32.2 0-17.8 14.4-32.2 32.2-32.2zm50.7-7.9c17.4 0 31.6 14.1 31.6 31.5 0 17.4-14.2 31.5-31.6 31.5-17.4 0-31.5-14.1-31.5-31.5 0-17.4 14.1-31.5 31.5-31.5zm29.2 23.2c10 0 18.1 8.1 18.1 18 0 10-8.1 18-18.1 18-9.9 0-18-8-18-18 0-9.9 8.1-18 18-18zm-69.3-61.5c8.5 0 15.3 6.8 15.3 15.2 0 8.4-6.8 15.3-15.3 15.3-8.4 0-15.2-6.9-15.2-15.3 0-8.4 6.8-15.2 15.2-15.2zm104.9 37.1c10.1 0 18.2 8.2 18.2 18.2 0 10-8.1 18.1-18.2 18.1-10 0-18.1-8.1-18.1-18.1 0-10 8.1-18.2 18.1-18.2zm-5.8 21.8c11.7 0 21.1 9.4 21.1 21.1 0 11.6-9.4 21-21.1 21-11.6 0-21-9.4-21-21 0-11.7 9.4-21.1 21-21.1z"/>
		<path id="圆角矩形 3" class="s10" d="m1496.7 922.3c2.5 0.2 4.2 2.4 3.9 4.7l-2.4 20.8c-0.2 2.2-2.3 3.8-4.7 3.6-2.3-0.3-4-2.3-3.8-4.5l2.2-20.8c0.2-2.4 2.4-4.1 4.8-3.8z"/>
		<path id="圆角矩形 3 拷贝" class="s10" d="m1518.5 934.3c2.4 0.2 4 2.3 3.7 4.6l-3 20.2c-0.4 2.1-2.5 3.7-4.8 3.4-2.3-0.2-3.9-2.2-3.6-4.3l2.7-20.2c0.4-2.3 2.6-4 5-3.7z"/>
		<path id="圆角矩形 3 拷贝 2" class="s10" d="m1544.6 917.2c2.5 0.3 4.1 2.5 3.7 4.9l-3.9 21.2c-0.4 2.3-2.6 3.9-5 3.7-2.3-0.3-3.9-2.3-3.6-4.6l3.6-21.2c0.5-2.4 2.8-4.2 5.2-4z"/>
		<path id="圆角矩形 3 拷贝 3" class="s10" d="m1562.9 944.2c2.4 0.2 4 2.3 3.5 4.5l-4.3 19.8c-0.4 2.1-2.7 3.6-4.9 3.4-2.3-0.3-3.8-2.2-3.4-4.3l4-19.8c0.5-2.2 2.8-3.9 5.1-3.6z"/>
		<path id="圆角矩形 3 拷贝 4" class="s10" d="m1591.5 922.1c2.4 0.3 3.9 2.4 3.3 4.8l-5.2 21.1c-0.6 2.3-2.9 3.9-5.3 3.6-2.3-0.2-3.8-2.2-3.3-4.5l5-21.1c0.5-2.4 3-4.1 5.5-3.9z"/>
		<path id="圆角矩形 3 拷贝 5" class="s10" d="m1533 962.2c2.3 0.2 3.9 2.1 3.5 4.2l-2.9 18.4c-0.4 1.9-2.4 3.3-4.6 3.1-2.2-0.2-3.7-2-3.4-4l2.7-18.3c0.3-2.1 2.4-3.6 4.7-3.4z"/>
		<path id="圆角矩形 3 拷贝 6" class="s10" d="m1480 956.2c2.3 0.2 3.9 2.1 3.5 4.2l-2.9 18.4c-0.4 1.9-2.4 3.3-4.6 3.1-2.2-0.2-3.7-2-3.4-4l2.7-18.3c0.3-2.1 2.4-3.6 4.7-3.4z"/>
		<path id="圆角矩形 3 拷贝 7" class="s10" d="m1459 921.2c2.3 0.2 3.9 2.1 3.5 4.2l-2.9 18.4c-0.4 1.9-2.4 3.3-4.6 3.1-2.2-0.2-3.7-2-3.4-4l2.7-18.3c0.3-2.1 2.4-3.6 4.7-3.4z"/>
	</g>
	<path id="18" class="s2" aria-label="18"  d="m1513.1 1064.9q0.2-0.2 0.5-0.2h2q0.4 0 0.4 0.4v25.5q0 0.4-0.4 0.4h-1.9q-0.4 0-0.4-0.4v-22.7q0-0.1 0-0.1-0.1-0.1-0.1 0l-3.6 1.1-0.1 0.1q-0.2 0-0.3-0.4l-0.2-1.3v-0.1q0-0.2 0.3-0.4zm16.1 12.1q-0.2 0.1 0 0.2 1.4 0.8 2 2.2 0.8 1.8 0.8 4.3 0 2.1-0.5 3.6-0.6 1.9-2.1 3-1.4 1.1-3.4 1.1-1.9 0-3.3-1.1-1.4-1-2.1-3-0.5-1.6-0.5-3.6 0-2.4 0.7-4.1 0.7-1.5 2.1-2.4 0.2-0.1 0-0.2-1.2-0.6-2-2-0.8-1.6-0.8-3.8 0-2.3 0.8-3.9 0.7-1.3 2.1-2.1 1.3-0.8 3-0.8 1.8 0 3.1 0.8 1.3 0.7 2 2.1 0.9 1.5 0.9 3.9 0 2.3-0.8 3.7-0.7 1.4-2 2.1zm-5.9-8.4q-0.6 1.1-0.6 2.8 0 1.7 0.6 2.8 0.9 1.8 2.7 1.8 1 0 1.8-0.5 0.7-0.5 1.1-1.4 0.5-1.2 0.5-2.7 0-1.8-0.6-2.9-0.9-1.8-2.8-1.8-1.9 0-2.7 1.9zm5.8 17.6q0.3-1.2 0.3-2.6 0-2-0.5-3.2-0.8-2.2-2.9-2.2-1 0-1.7 0.6-0.7 0.6-1.1 1.7-0.5 1.2-0.5 3.1 0 1.5 0.4 2.7 0.3 1.3 1.1 2 0.7 0.7 1.8 0.7 1.2 0 1.9-0.7 0.9-0.7 1.2-2.1z"/>
	<path id="°c 拷贝 6" class="s2" aria-label="°c"  d="m1542.7 1066q-0.8 0-1.5-0.4-0.7-0.4-1-1-0.4-0.7-0.4-1.5 0-0.8 0.4-1.5 0.3-0.7 1-1.1 0.7-0.4 1.5-0.4 0.7 0 1.4 0.4 0.7 0.4 1.1 1.1 0.3 0.7 0.3 1.5 0 0.8-0.3 1.5-0.4 0.6-1.1 1-0.7 0.4-1.4 0.4zm0-0.9q0.8 0 1.3-0.6 0.6-0.6 0.6-1.4 0-0.9-0.6-1.5-0.5-0.6-1.3-0.6-0.9 0-1.4 0.6-0.6 0.6-0.6 1.5 0 0.8 0.6 1.4 0.5 0.6 1.4 0.6zm7.4 10q-1.4 0-2.3-0.8-0.8-0.9-0.8-2.3v-6.9q0-1.4 0.8-2.3 0.9-0.8 2.3-0.8 1.4 0 2.3 0.8 0.8 0.9 0.8 2.3v0.4q0 0.1-0.2 0.1l-0.9 0.1q-0.2 0-0.2-0.2v-0.4q0-0.9-0.5-1.4-0.5-0.6-1.3-0.6-0.8 0-1.3 0.6-0.5 0.5-0.5 1.4v7q0 0.8 0.5 1.4 0.5 0.5 1.3 0.5 0.8 0 1.3-0.5 0.5-0.6 0.5-1.4v-0.5q0-0.2 0.2-0.2l0.9 0.1q0.2 0 0.2 0.2v0.3q0 1.4-0.8 2.3-0.9 0.8-2.3 0.8z"/>
	<path id="sun" class="s2" aria-label="sun"  d="m1484.1 802.6q-5.3 0-8.7-3.6-3.3-3.5-3.3-9.3v-1.7q0-0.7 0.7-0.7h3.6q0.7 0 0.7 0.7v1.5q0 3.8 1.9 6.2 2 2.4 5.1 2.4 3.1 0 5.1-2.3 2.1-2.2 2.1-5.9 0-2.5-1.1-4.3-0.9-1.8-2.5-3.1-1.5-1.4-5.2-4.1-3.6-2.7-5.7-4.6-2.1-2-3.5-4.7-1.3-2.7-1.3-6.3 0-5.7 3.3-9 3.2-3.3 8.5-3.3 5.5 0 8.8 3.6 3.3 3.6 3.3 9.6v1.8q0 0.7-0.7 0.7h-3.6q-0.8 0-0.8-0.7v-1.9q0-3.9-1.9-6.2-1.9-2.4-5.1-2.4-2.9 0-4.8 2.1-1.9 2.1-1.9 5.8 0 2.3 0.8 4 0.9 1.7 2.5 3.2 1.7 1.6 5 4 4.3 3.2 6.4 5.3 2.2 1.9 3.4 4.3 1.2 2.4 1.2 5.7 0 6-3.5 9.6-3.4 3.6-8.8 3.6zm36.4-36.7q0-0.7 0.7-0.7h3.7q0.8 0 0.8 0.7v35.4q0 0.7-0.8 0.7h-3.7q-0.7 0-0.7-0.7v-2.5q0-0.2-0.1-0.2-0.1 0-0.3 0.1-2.2 3.8-7.2 3.8-4.4 0-7-2.6-2.6-2.7-2.6-8.1v-25.9q0-0.7 0.8-0.7h3.7q0.7 0 0.7 0.7v24.8q0 3.6 1.5 5.5 1.5 1.8 4.3 1.8 2.9 0 4.5-2.1 1.7-2.1 1.7-5.8zm27.1-1.2q4.5 0 6.9 3.1 2.5 3 2.5 8.5v25q0 0.7-0.8 0.7h-3.7q-0.7 0-0.7-0.7v-24.6q0-3.6-1.6-5.5-1.5-2-4.3-2-2.9 0-4.6 2.1-1.6 2.1-1.6 5.8v24.2q0 0.7-0.7 0.7h-3.7q-0.8 0-0.8-0.7v-35.4q0-0.7 0.8-0.7h3.7q0.7 0 0.7 0.7v2.4q0 0.1 0.2 0.2 0.1 0.1 0.2-0.2 1.3-1.8 3.2-2.6 2.1-1 4.3-1z"/>
</svg>