<svg version="1.2" xmlns="http://www.w3.org/2000/svg" viewBox="0 0 984 984" width="984" height="984">
	<title>c4</title>
	<style>
		tspan { white-space:pre } 
		.s0 { fill-opacity: .2;fill: #98bae2 } 
	</style>
	<path id="椭圆 1 拷贝" class="s0" d="m492 0c271.7 0 492 220.3 492 492 0 271.7-220.3 492-492 492-271.7 0-492-220.3-492-492 0-271.7 220.3-492 492-492z"/>
	<path id="椭圆 1 拷贝 copy" class="s0" d="m492 0c271.7 0 492 220.3 492 492 0 271.7-220.3 492-492 492-271.7 0-492-220.3-492-492 0-271.7 220.3-492 492-492z"/>
	<path id="椭圆 1 拷贝 copy 2" class="s0" d="m492 0c271.7 0 492 220.3 492 492 0 271.7-220.3 492-492 492-271.7 0-492-220.3-492-492 0-271.7 220.3-492 492-492z"/>
</svg>