<svg version="1.2" xmlns="http://www.w3.org/2000/svg" viewBox="0 0 15 16" width="93" height="99">
	<title>c4</title>
	<defs>
		<linearGradient id="g1" x1="309.5" y1="-105" x2="309.5" y2="-222" gradientUnits="userSpaceOnUse">
			<stop offset="0" stop-color="#87b2e4"/>
			<stop offset=".997" stop-color="#d2dfee"/>
			<stop offset="1" stop-color="#d2dfee"/>
		</linearGradient>
		<linearGradient id="g2" x1="639.5" y1="-109" x2="639.5" y2="-226" gradientUnits="userSpaceOnUse">
			<stop offset="0" stop-color="#87b2e4"/>
			<stop offset=".997" stop-color="#d2dfee"/>
			<stop offset="1" stop-color="#d2dfee"/>
		</linearGradient>
		<linearGradient id="g3" x1="1283.5" y1="-108" x2="1283.5" y2="-225" gradientUnits="userSpaceOnUse">
			<stop offset="0" stop-color="#87b2e4"/>
			<stop offset=".997" stop-color="#d2dfee"/>
			<stop offset="1" stop-color="#d2dfee"/>
		</linearGradient>
		<linearGradient id="g4" x1="1601.5" y1="-104" x2="1601.5" y2="-221" gradientUnits="userSpaceOnUse">
			<stop offset="0" stop-color="#87b2e4"/>
			<stop offset=".997" stop-color="#d2dfee"/>
			<stop offset="1" stop-color="#d2dfee"/>
		</linearGradient>
		<linearGradient id="g5" x1="1912.5" y1="-109" x2="1912.5" y2="-226" gradientUnits="userSpaceOnUse">
			<stop offset="0" stop-color="#87b2e4"/>
			<stop offset=".997" stop-color="#d2dfee"/>
			<stop offset="1" stop-color="#d2dfee"/>
		</linearGradient>
	</defs>
	<style>
		.s0 { fill: #000000 } 
		.s1 { fill: #f8b122 } 
		.s2 { fill: #fabd43 } 
		.s3 { fill: #fcce72 } 
		.s4 { fill: #ffffff } 
		.s5 { fill: #c11111 } 
		.s6 { fill: #dfe9f5 } 
		.s7 { fill: url(#g1) } 
		.s8 { fill: #75a1d5 } 
		.s9 { fill: url(#g2) } 
		.s10 { fill: url(#g3) } 
		.s11 { fill: none;stroke: #75a1d5;stroke-width: 6 } 
		.s12 { fill: url(#g4) } 
		.s13 { fill: url(#g5) } 
	</style>
	<path id="Weather forecast" class="s0" aria-label="Weather forecast"  d="m-34.3-1231.1l-52.1-132.3-10.6-1.9v-2.9h23.1q10.3 0 16.8 4.6 6.6 4.7 9.3 11.8l29.1 74.4 17-49.9-14.3-36.1-10.6-1.9v-2.9h23.2q10.2 0 16.6 4.6 6.3 4.5 9.4 11.8l29.1 74.4 27.8-82.1-14.4-5.8v-2.9h35.6v2.9l-15.4 5.8-43.4 128.4h-5.8l-34.7-88.2-29.9 88.2zm140.8-1.9v-2.9l11.6-2.9v-123.6l-11.6-2.9v-2.9h103.2v34.7h-5.8q-3.6-2.8-6.3-7.3-6.2-10.4-6.2-22.6h-41.5v60.9h22.2q1.4-7.4 5-13.8 1.6-2.9 3.7-5.6h5.8v43.5h-5.8q-2.1-2.7-3.7-5.6-3.6-6.4-5-13.7h-22.2v59.9h45.4q0-12.2 6.1-22.6 2.7-4.5 6.4-7.4h5.8v34.8zm110.9 0v-2.9l15.5-5.8 53-128.5h5.8l55 131.4 9.6 2.9v2.9h-23.1q-10.1 0-16.4-4.4-6.4-4.7-9.5-12l-9.8-23.2h-46.1l-12.8 30.9 14.5 5.8v2.9zm56.9-95.2l-21 50.8h42.2zm100.4 95.2v-2.9l11.5-2.9v-124.6h-22.1q0 11.8-6.4 22.6-2.7 4.5-6.2 7.4h-5.8v-34.8h112.9v34.8h-5.8q-3.7-2.9-6.4-7.4-6.1-10.4-6.1-22.6h-22.2v124.6l11.6 2.9v2.9zm153.3 0h-55v-2.9l11.6-2.9v-123.6l-11.6-2.9v-2.9h55v2.9l-11.5 2.9v59.9h41.4v-59.9l-11.5-2.9v-2.9h54.9v2.9l-11.5 2.9v123.6l11.5 2.9v2.9h-54.9v-2.9l11.5-2.9v-58.9h-41.4v58.9l11.5 2.9zm90.7 0v-2.9l11.6-2.9v-123.6l-11.6-2.9v-2.9h103.2v34.8h-5.8q-3.6-2.9-6.3-7.4-6.2-10.4-6.2-22.6h-41.5v60.9h22.2q1.3-7.4 5-13.8 1.6-2.8 3.7-5.6h5.8v43.5h-5.8q-2.1-2.7-3.7-5.6-3.7-6.4-5-13.7h-22.2v59.9h45.3q0-12.2 6.2-22.6 2.7-4.5 6.4-7.4h5.8v34.8zm124.4 0v-2.9l11.6-2.9v-123.6l-11.6-2.9v-2.9h51.1q32.8 0 47.3 10 14.5 9.9 14.5 27.7 0 11.9-6.4 19.5-6.4 7.3-16.4 11-10.6 4-22.6 4.2v1q7.2 0.4 12.6 2.1 13.5 4.3 18.3 15.3l17.4 38.6 9.6 2.9v2.9h-27q-15.8 0-23.1-16.4l-19.3-43.5h-12.6v54.1l13.5 2.9v2.9zm43.4-64.7h7.7q13.6 0 21.3-8.5 7.7-8.5 7.7-24.3 0-15.9-7.7-24.4-7.7-8.5-21.3-8.5h-7.7zm145.7 64.7v-2.9l11.6-2.9v-123.6l-11.6-2.9v-2.9h103.2v34.8h-5.8q-3.6-2.9-6.3-7.4-6.2-10.4-6.2-22.6h-41.5v60.9h22.2q1.3-7.4 5-13.7 1.5-2.9 3.7-5.6h5.8v43.4h-5.8q-2.2-2.7-3.7-5.6-3.7-6.3-5-13.7h-22.2v58.9l11.6 2.9v2.9zm175.5 2.9q-18.9 0-33.1-8.1-14.1-8.3-21.8-24.1-7.8-15.9-7.8-38.3 0-22.4 7.8-38.2 7.7-15.9 21.8-24 14.2-8.3 33.1-8.3 18.9 0 33 8.3 14.3 8.1 22 24 7.7 15.8 7.7 38.2 0 22.4-7.7 38.3-7.7 15.8-22 24.1-14.1 8.1-33 8.1zm0-3.8q7.6 0 13.9-6.4 6.6-6.4 10.8-21.3 4.3-14.8 4.3-39 0-24.1-4.3-39-4.2-14.9-10.8-21.3-6.3-6.3-13.9-6.3-7.5 0-14 6.3-6.4 6.4-10.7 21.3-4.2 14.9-4.2 39 0 24.2 4.2 39 4.3 14.9 10.7 21.3 6.5 6.4 14 6.4zm81.1 0.9v-2.9l11.5-2.9v-123.6l-11.5-2.9v-2.9h51.1q32.8 0 47.3 10.1 14.4 9.8 14.4 27.6 0 12-6.3 19.5-6.4 7.3-16.4 11-10.7 4.1-22.6 4.2v1q7.1 0.4 12.5 2.1 13.5 4.3 18.4 15.3l17.3 38.6 9.7 2.9v2.9h-27q-15.9 0-23.2-16.4l-19.3-43.5h-12.5v54.1l13.5 2.9v2.9zm43.4-64.7h7.7q13.5 0 21.2-8.5 7.7-8.5 7.7-24.3 0-15.9-7.7-24.4-7.7-8.5-21.2-8.5h-7.7zm91.6 64.7v-2.8l11.6-2.9v-123.7l-11.6-2.9v-2.9h103.2v34.8h-5.8q-3.6-2.9-6.3-7.3-6.2-10.5-6.2-22.6h-41.5v60.8h22.2q1.4-7.3 5-13.7 1.6-2.9 3.7-5.6h5.8v43.5h-5.8q-2.1-2.8-3.7-5.6-3.6-6.4-5-13.8h-22.2v59.9h45.4q0-12.2 6.1-22.6 2.7-4.4 6.4-7.3h5.8v34.7zm187.1 2.9q-30.8 0-48.2-18.3-17.4-18.4-17.4-52.2 0-22.2 7.6-38 7.7-16.1 21.4-24.2 13.9-8.3 32-8.3 11 0 22.2 6.4 4.2 2.3 8.5 6.2 3.3-5 6.7-7.9 3.5-2.5 3.9-2.7h4.8v36.7h-7.7q-2.5-9.3-7.5-16.8-4.7-7.4-11.6-12.2-6.8-4.8-15.6-4.8-13.3 0-22.2 15.4-8.7 15.5-8.7 50.2 0 35.4 9.5 50.6 9.6 15.1 26.2 15.1 9.1 0 17.2-5 8.3-5.2 13.3-13.7 5.2-8.5 5.2-18h4.8q0 11-6 20.7-5.8 9.4-16 15.2-10 5.6-22.4 5.6zm43.4-2.9v-2.8l15.5-5.8 53-128.5h5.8l55 131.4 9.6 2.9v2.8h-23.1q-10 0-16.4-4.4-6.4-4.6-9.5-12l-9.8-23.2h-46.1l-12.7 31 14.4 5.8v2.8zm56.9-95.2l-21 50.8h42.3zm135 98.2q-13.7 0-25.6-6.2-5.4-2.7-9.1-6.4-2.7 4.4-6.8 7.9-3.4 2.5-3.8 2.7h-4.8v-36.7h7.7q2.9 9.5 8.1 17 11.7 16.8 30.5 16.8 10.9 0 17.5-6.5 6.6-6.6 6.6-17.6 0-6.4-3.9-11.4-3.7-5-9.3-8.9-5.5-3.9-15.6-9.7-12.7-7.1-20.6-12.9-7.9-5.8-13.5-14.5-5.6-8.9-5.6-20.9 0-9.4 5.2-17 5.4-7.7 16-12.1 10.6-4.7 26-4.7 11.2 0 22.4 6.4 4.3 2.3 8.5 6.2 3.3-5 6.8-7.9 3.4-2.5 3.8-2.7h4.8v36.7h-7.7q-2.5-9.3-7.5-16.8-4.6-7.4-11.6-12.2-6.7-4.8-15.6-4.8-7.5 0-12.9 6-5.4 5.9-5.4 15.2 0 7.2 4 13 4.3 5.6 10.3 9.8 6.1 4.3 16.5 10.2 12.2 7 19.7 12.4 7.5 5.4 12.8 13.5 5.2 8 5.2 18.4 0 10.4-6 19.1-6 8.5-18 13.5-11.9 5.1-29.1 5.1zm91.7-2.9v-2.9l11.5-2.9v-124.6h-22.2q0 11.7-6.3 22.6-2.7 4.4-6.2 7.3h-5.8v-34.8h112.9v34.8h-5.8q-3.7-2.9-6.4-7.3-6.2-10.5-6.2-22.6h-22.1v124.6l11.5 2.9v2.9z"/>
	<g id="组 2">
		<g id="yang">
			<path id="椭圆 2" class="s1" d="m1003.2-960.5c65.3 19.3 102.6 87.8 83.3 153-19.3 65.2-87.9 102.5-153.2 83.2-65.3-19.2-102.7-87.7-83.4-153 19.3-65.2 87.9-102.5 153.3-83.2z"/>
			<path id="椭圆 2 拷贝" class="s2" d="m994.5-951.2c62.3 18.3 98 83.7 79.6 145.9-18.5 62.2-83.9 97.8-146.2 79.4-62.4-18.4-98-83.7-79.6-145.9 18.4-62.3 83.9-97.8 146.2-79.4z"/>
			<path id="椭圆 2 拷贝 2" class="s3" d="m978.5-930.9c53.9 15.9 84.6 72.3 68.8 126-15.9 53.7-72.5 84.4-126.4 68.5-53.8-15.8-84.6-72.3-68.8-126 15.9-53.7 72.5-84.4 126.4-68.5z"/>
			<path id="圆角矩形 2" class="s1" d="m1022.4-1027.7l1.1 0.3c5.8 1.8 9.1 7.8 7.4 13.6l-10.2 34.6c-1.7 5.8-7.8 9.1-13.6 7.4l-1.1-0.3c-5.8-1.7-9.1-7.8-7.4-13.6l10.2-34.6c1.7-5.8 7.8-9.1 13.6-7.4z"/>
			<path id="圆角矩形 2 拷贝" class="s1" d="m929.1-712.2l1.1 0.3c5.8 1.8 9.1 7.8 7.4 13.6l-10.2 34.6c-1.7 5.8-7.8 9.1-13.6 7.4l-1.1-0.3c-5.8-1.7-9.1-7.8-7.4-13.6l10.2-34.6c1.7-5.8 7.8-9.1 13.6-7.4z"/>
			<path id="圆角矩形 2 拷贝 2" class="s1" d="m1112-811.5l34.7 10.2c5.8 1.7 9.1 7.8 7.4 13.5l-0.3 1.2c-1.7 5.7-7.8 9.1-13.6 7.3l-34.7-10.2c-5.8-1.7-9.1-7.8-7.4-13.6l0.3-1.1c1.8-5.8 7.8-9.1 13.6-7.3z"/>
			<path id="圆角矩形 2 拷贝 2" class="s1" d="m796-904.7l34.7 10.2c5.8 1.7 9.1 7.8 7.4 13.6l-0.3 1.1c-1.7 5.8-7.8 9.1-13.6 7.4l-34.7-10.2c-5.8-1.7-9.1-7.8-7.4-13.6l0.3-1.1c1.7-5.8 7.8-9.1 13.6-7.4z"/>
			<path id="圆角矩形 2 拷贝 3" class="s1" d="m919.8-1029.4l5.8-1.4c4.6-1.1 9.2 1.8 10.3 6.3l9.6 39.8c1.1 4.6-1.7 9.2-6.3 10.3l-5.8 1.4c-4.6 1.1-9.2-1.7-10.3-6.3l-9.6-39.8c-1.1-4.6 1.7-9.2 6.3-10.3z"/>
			<path id="圆角矩形 2 拷贝 3" class="s1" d="m997-709.5l5.8-1.4c4.6-1.1 9.2 1.7 10.3 6.2l9.6 39.8c1.1 4.6-1.7 9.2-6.3 10.3l-5.8 1.4c-4.6 1.1-9.2-1.7-10.3-6.3l-9.6-39.8c-1.1-4.5 1.7-9.1 6.3-10.2z"/>
			<path id="圆角矩形 2 拷贝 3" class="s1" d="m1105.7-886.9l39.8-9.6c4.6-1.1 9.2 1.7 10.3 6.3l1.4 5.8c1.1 4.6-1.7 9.2-6.3 10.3l-39.8 9.6c-4.6 1.1-9.2-1.8-10.3-6.3l-1.4-5.8c-1.1-4.6 1.7-9.2 6.3-10.3z"/>
			<path id="圆角矩形 2 拷贝 3" class="s1" d="m785.3-809.8l39.9-9.6c4.5-1.1 9.1 1.7 10.3 6.3l1.4 5.8c1.1 4.5-1.8 9.1-6.3 10.3l-39.9 9.5c-4.6 1.1-9.2-1.7-10.3-6.3l-1.4-5.8c-1.1-4.5 1.7-9.1 6.3-10.2z"/>
			<path id="圆角矩形 2 拷贝 4" class="s1" d="m832.4-980.1l4.4-4.2c3.4-3.2 8.8-3.1 12 0.4l28.3 29.6c3.2 3.4 3.1 8.8-0.3 12.1l-4.4 4.1c-3.4 3.2-8.8 3.1-12-0.3l-28.3-29.7c-3.2-3.4-3.1-8.8 0.3-12z"/>
			<path id="圆角矩形 2 拷贝 4" class="s1" d="m1059.5-741.7l4.3-4.1c3.4-3.3 8.8-3.1 12.1 0.3l28.2 29.6c3.2 3.4 3.1 8.8-0.3 12.1l-4.3 4.1c-3.5 3.2-8.9 3.1-12.1-0.3l-28.2-29.7c-3.3-3.4-3.2-8.8 0.3-12z"/>
			<path id="圆角矩形 2 拷贝 4" class="s1" d="m1064.7-949.6l29.7-28.1c3.4-3.3 8.8-3.1 12.1 0.3l4.1 4.3c3.3 3.4 3.1 8.8-0.3 12l-29.7 28.2c-3.4 3.3-8.8 3.1-12.1-0.3l-4.1-4.3c-3.2-3.4-3.1-8.8 0.3-12.1z"/>
			<path id="圆角矩形 2 拷贝 4" class="s1" d="m825.9-722.9l29.7-28.2c3.4-3.2 8.8-3.1 12.1 0.3l4.1 4.3c3.2 3.5 3.1 8.9-0.3 12.1l-29.7 28.2c-3.4 3.2-8.8 3.1-12.1-0.3l-4.1-4.3c-3.2-3.5-3.1-8.9 0.3-12.1z"/>
		</g>
		<path id="椭圆 4" class="s4" d="m566.8-809.2c38 0 68.8 30.8 68.8 68.7 0 38-30.8 68.7-68.8 68.7-38 0-68.8-30.7-68.8-68.7 0-37.9 30.8-68.7 68.8-68.7zm92.3-95.7c49.3 0 89.2 39.9 89.2 89.1 0 49.2-39.9 89.1-89.2 89.1-49.3 0-89.2-39.9-89.2-89.1 0-49.2 39.9-89.1 89.2-89.1zm169.6-59.5c63 0 114.1 51.1 114.1 114 0 62.9-51.1 114-114.1 114-63 0-114.1-51.1-114.1-114 0-62.9 51.1-114 114.1-114zm132.7 106.4c40.7 0 73.7 33 73.7 73.7 0 40.6-33 73.6-73.7 73.6-40.7 0-73.7-33-73.7-73.6 0-40.7 33-73.7 73.7-73.7zm-269.9 54.1c54.4 0 98.6 44.1 98.6 98.5 0 54.3-44.2 98.4-98.6 98.4-54.4 0-98.5-44.1-98.5-98.4 0-54.4 44.1-98.5 98.5-98.5zm154.9-23.9c53.2 0 96.4 43.1 96.4 96.2 0 53.2-43.2 96.2-96.4 96.2-53.2 0-96.3-43-96.3-96.2 0-53.1 43.1-96.2 96.3-96.2zm89.3 71c30.4 0 55 24.6 55 54.9 0 30.4-24.6 55-55 55-30.4 0-55.1-24.6-55.1-55 0-30.3 24.7-54.9 55.1-54.9zm-211.8-188.1c25.8 0 46.6 20.9 46.6 46.6 0 25.7-20.8 46.6-46.6 46.6-25.7 0-46.6-20.9-46.6-46.6 0-25.7 20.9-46.6 46.6-46.6zm320.5 113.5c30.7 0 55.5 24.9 55.5 55.5 0 30.6-24.8 55.4-55.5 55.4-30.6 0-55.5-24.8-55.5-55.4 0-30.6 24.9-55.5 55.5-55.5zm-17.7 66.6c35.5 0 64.3 28.7 64.3 64.3 0 35.5-28.8 64.2-64.3 64.2-35.6 0-64.4-28.7-64.4-64.2 0-35.6 28.8-64.3 64.4-64.3z"/>
	</g>
	<path id="2028 mon, June 13" class="s4" aria-label="2028 mon, June 13"  d="m1275.5-828h-23.1q-1.4 0-2.3-0.9-0.9-1-0.9-2.3 0-1.4 0.9-2.2l17.7-20.8q1.9-2.2 2.9-4.1 1.1-2 1.1-3.7 0-2.8-1-4.8-0.9-2-2.7-3-1.7-1.1-4.2-1.1-2.3 0-4.3 1.2-1.8 1.2-3 3.3-1 2-1 4.4 0 1.2-1 2.2-0.9 0.9-2.2 0.9-1.3 0-2.3-0.9-0.9-1-0.9-2.2 0-4.3 1.9-7.6 2-3.3 5.3-5.3 3.4-1.9 7.5-1.9 4.3 0 7.4 1.8 3.2 1.8 4.8 5.1 1.8 3.3 1.8 7.9 0 2-0.9 4.1-0.8 2-2.1 3.9-1.3 1.9-2.6 3.4l-14.3 16.2h17.5q1.4 0 2.3 1 1 1 1 2.2 0 1.3-1 2.3-0.9 0.9-2.3 0.9zm24.5 0q-4.8 0-8.2-2.9-3.3-2.9-5-8.4-1.8-5.5-1.8-13.1 0-7.7 1.8-13.2 1.7-5.5 5-8.3 3.4-3 8.2-3 4.7 0 8 3 3.4 3 5.2 8.5 1.7 5.4 1.7 13 0 7.5-1.7 13-1.8 5.5-5.2 8.5-3.3 2.9-8 2.9zm0-6.5q2.9 0 4.7-2.3 1.9-2.4 2.8-6.5 1-4 1-9.1 0-5.2-1-9.2-0.9-4.1-2.8-6.5-1.8-2.3-4.7-2.3-2.9 0-4.8 2.3-1.9 2.3-2.8 6.4-0.9 4.1-0.9 9.3 0 5.1 0.9 9.2 0.9 4.1 2.8 6.4 2 2.3 4.8 2.3zm48.5 6.5h-23.2q-1.4 0-2.3-0.9-0.9-1-0.9-2.3 0-1.4 0.9-2.2l17.8-20.8q1.8-2.2 2.8-4.1 1.1-2 1.1-3.7 0-2.8-0.9-4.8-1-2-2.7-3-1.8-1.1-4.2-1.1-2.4 0-4.3 1.2-1.9 1.2-3 3.3-1.1 2-1.1 4.4 0 1.2-0.9 2.2-0.9 0.9-2.3 0.9-1.3 0-2.2-0.9-1-1-1-2.2 0-4.3 2-7.6 1.9-3.3 5.2-5.3 3.4-1.9 7.6-1.9 4.2 0 7.4 1.8 3.1 1.8 4.8 5.1 1.7 3.3 1.7 7.9 0 2-0.8 4.1-0.9 2-2.2 3.9-1.2 1.9-2.5 3.4l-14.4 16.2h17.6q1.3 0 2.3 1 0.9 1 0.9 2.2 0 1.3-0.9 2.3-1 0.9-2.3 0.9zm24.5-0.1q-4.1 0-7.4-1.9-3.3-2-5.1-5.4-1.9-3.4-1.9-7.7 0-4.1 1.9-7.3 1.8-3.4 5.1-5.2 3.3-1.9 7.4-1.9 4.2 0 7.4 1.9 3.3 1.8 5.2 5.2 1.9 3.2 1.8 7.3 0 4.3-1.9 7.7-1.9 3.4-5.1 5.4-3.3 1.9-7.4 1.9zm0-5.7q2.4 0 4.2-1.3 1.8-1.2 2.9-3.3 1.1-2.1 1.1-4.7 0-2.5-1-4.4-1.1-2-3-3.1-1.8-1.2-4.2-1.2-2.3 0-4.2 1.2-1.8 1.1-2.9 3.1-1.1 1.9-1.1 4.4 0 2.6 1 4.7 1.1 2.1 3 3.3 1.9 1.3 4.2 1.3zm0-19.1q-3.5 0-6.3-1.6-2.8-1.6-4.4-4.2-1.6-2.7-1.6-6.1 0-3.5 1.6-6.3 1.6-2.8 4.4-4.4 2.8-1.7 6.3-1.7 3.6-0.1 6.4 1.6 2.8 1.6 4.4 4.4 1.6 2.8 1.6 6.4 0 3.4-1.7 6.1-1.6 2.6-4.4 4.2-2.8 1.6-6.3 1.6zm0-5.2q1.8 0 3.2-1 1.3-0.9 2.2-2.4 0.8-1.6 0.8-3.4 0-1.9-0.8-3.4-0.8-1.4-2.2-2.2-1.3-0.9-3.2-0.9-2.6 0-4.3 1.8-1.8 1.8-1.9 4.7 0 2.8 1.7 4.8 1.9 2 4.5 2zm46 30.1q-1.4 0-2.3-0.9-0.9-1-0.9-2.4v-42.3q0-1.4 0.9-2.3 0.9-0.9 2.3-0.9 1.9 0 2.9 1.7l19.6 39.2h-2l19.1-39.2q1-1.7 2.8-1.7 1.4 0 2.3 0.9 1 0.9 1 2.3v42.3q0 1.4-1 2.4-1 0.9-2.3 0.9-1.3 0-2.3-0.9-0.9-1-0.9-2.4v-33.3l1.2-0.3-16.4 33.4q-1 1.6-2.8 1.6-2 0-3-1.9l-16.2-32.5 1.3-0.3v33.3q0 1.4-1 2.4-0.9 0.9-2.3 0.9zm73.1 0.3q-5.1 0-9-2.2-3.8-2.3-6.1-6.2-2.2-3.9-2.2-9 0-5.1 2.2-9 2.3-3.9 6.1-6.1 3.9-2.2 9-2.2 5 0 8.9 2.2 3.8 2.2 6 6.1 2.3 3.9 2.3 9 0 5.1-2.2 9-2.2 3.9-6.1 6.2-3.8 2.2-8.9 2.2zm0-5.7q3.2 0 5.7-1.5 2.5-1.5 3.9-4.1 1.5-2.6 1.5-6.1 0-3.4-1.5-6-1.4-2.7-3.9-4.2-2.5-1.5-5.7-1.5-3.3 0-5.8 1.5-2.5 1.5-3.9 4.2-1.5 2.6-1.5 6 0 3.5 1.5 6.1 1.4 2.6 3.9 4.1 2.5 1.5 5.8 1.5zm55.6 5.5q-1.4 0-2.3-0.9-0.9-1-0.9-2.3v-15.4q0-3.6-1.3-5.8-1.3-2.3-3.6-3.3-2.2-1.2-5-1.2-2.7 0-4.8 1.1-2.1 1.1-3.4 2.9-1.2 1.7-1.2 4h-4q0-3.9 1.9-7 2-3.1 5.3-4.9 3.3-1.8 7.4-1.8 4.3 0 7.7 1.9 3.4 1.8 5.4 5.3 2 3.6 2 8.8v15.4q0 1.3-1 2.3-0.8 0.9-2.2 0.9zm-25.7 0q-1.4 0-2.3-0.9-0.9-1-0.9-2.3v-27.9q0-1.4 0.9-2.3 0.9-0.9 2.3-0.9 1.4 0 2.3 0.9 0.9 0.9 0.9 2.3v27.9q0 1.3-0.9 2.3-0.9 0.9-2.3 0.9zm38.9 10.7q-0.8 0-1.2-0.5-0.4-0.5-0.4-1.1 0-1.3 0.7-2.1 0.8-1 1.5-2 0.7-1.1 0.7-2.6 0-1.1-0.5-1.7-0.5-0.7-1.1-1.3-0.6-0.6-1.1-1.4-0.5-0.7-0.5-1.9 0-1.6 1.1-2.8 1.1-1.1 3-1.1 2.4 0 3.6 1.6 1.3 1.7 1.3 4.4 0 2-0.7 4.2-0.6 2.2-1.7 4.1-1.1 1.8-2.3 3-1.3 1.2-2.4 1.2zm46.4-10.2q-4.4 0-7.8-1.9-3.4-1.9-5.3-5.3-1.9-3.4-1.9-7.8 0-1.4 0.9-2.3 1-0.9 2.4-0.9 1.4 0 2.3 0.9 0.9 0.9 0.9 2.3 0 2.7 1.1 4.8 1.1 2 3 3.2 1.9 1.1 4.4 1.1 2.5 0 4.5-1.1 1.9-1.2 3-3.2 1.1-2.1 1.1-4.8v-31.2q0-1.4 0.9-2.3 0.9-0.9 2.3-0.9 1.4 0 2.3 0.9 1 0.9 1 2.3v31.2q0 4.4-2 7.8-1.9 3.4-5.3 5.3-3.3 1.9-7.8 1.9zm41.4-0.3q-4.4 0-7.8-1.8-3.4-1.9-5.4-5.4-1.9-3.6-1.9-8.8v-15.4q0-1.3 0.9-2.2 0.9-1 2.3-1 1.4 0 2.2 1 1 0.9 1 2.2v15.4q0 3.5 1.3 5.8 1.3 2.3 3.5 3.4 2.3 1.1 5.1 1.1 2.7 0 4.8-1.1 2.1-1.1 3.3-2.9 1.3-1.8 1.3-4h3.9q0 3.8-1.9 7-1.9 3.1-5.2 4.9-3.2 1.8-7.4 1.8zm13.8-0.3q-1.4 0-2.3-0.9-0.9-0.9-0.9-2.3v-27.9q0-1.4 0.9-2.3 0.9-0.9 2.3-0.9 1.4 0 2.3 0.9 0.9 0.9 0.9 2.3v27.9q0 1.4-0.9 2.3-0.9 0.9-2.3 0.9zm43.3 0.1q-1.3 0-2.3-0.9-0.9-1-0.9-2.3v-15.4q0-3.6-1.3-5.8-1.3-2.3-3.5-3.3-2.2-1.2-5.1-1.2-2.6 0-4.8 1.1-2.1 1.1-3.3 2.9-1.3 1.7-1.3 4h-3.9q0-3.9 1.9-7 1.9-3.1 5.2-4.9 3.3-1.8 7.5-1.8 4.3 0 7.6 1.9 3.5 1.8 5.4 5.3 2 3.6 2 8.8v15.4q0 1.3-0.9 2.3-0.9 0.9-2.3 0.9zm-25.7 0q-1.4 0-2.3-0.9-0.9-1-0.9-2.3v-27.9q0-1.4 0.9-2.3 0.9-0.9 2.3-0.9 1.5 0 2.3 0.9 0.9 0.9 0.9 2.3v27.9q0 1.3-0.9 2.3-0.8 0.9-2.3 0.9zm55.6 0.2q-5.2 0-9.3-2.2-4-2.3-6.3-6.2-2.3-3.9-2.3-9 0-5.1 2.2-9 2.2-3.9 6-6.1 3.8-2.2 8.7-2.2 4.9 0 8.4 2.1 3.5 2.2 5.3 6 1.9 3.7 1.9 8.7 0 1.2-0.8 2-0.8 0.7-2.1 0.7h-25.2v-5h25l-2.5 1.8q-0.1-3.2-1.3-5.6-1.2-2.5-3.3-3.9-2.2-1.5-5.4-1.5-3.5 0-6.1 1.6-2.5 1.6-3.8 4.3-1.3 2.7-1.3 6.1 0 3.5 1.5 6.2 1.6 2.6 4.4 4.2 2.7 1.6 6.3 1.6 1.9 0 3.9-0.7 2.1-0.8 3.3-1.7 1-0.7 2-0.7 1.2-0.1 2 0.6 1 1 1.1 2.1 0.1 1.1-1 1.9-2.1 1.7-5.3 2.8-3.1 1.1-6 1.1zm50.5-0.3q-1.2 0-2.2-0.9-0.9-1-0.9-2.3v-38.1l-4.6 1.9q-1 0.5-2 0.5-1.4 0-2.3-0.9-0.9-0.9-0.9-2.3 0-1 0.5-1.8 0.5-0.8 1.6-1.2l9.8-3.5q0.3-0.1 0.6-0.2 0.3 0 0.5 0 1.5 0 2.3 0.9 0.9 0.9 0.9 2.3v42.4q0 1.3-1 2.3-0.9 0.9-2.3 0.9zm29 0q-4.6 0-8.3-1.9-3.6-2-5.7-5.4-2-3.5-2-7.7 0-1.4 0.8-2.3 0.9-1 2-1 1.3 0 2.1 1 0.8 0.9 0.8 2.3 0 2.6 1.3 4.7 1.4 2.2 3.6 3.5 2.3 1.2 5.1 1.2 4.1 0 6.6-2.2 2.6-2.3 2.6-6.5 0-2.6-1.2-4.6-1.1-2.2-3-3.4-2-1.3-4.4-1.3-1.4 0-2.3-0.9-0.9-0.9-0.9-2.3 0-1.4 0.9-2.3 0.9-0.9 2.3-0.9 1.7 0 3.4-0.9 1.6-0.9 2.7-2.4 1-1.6 1-3.5 0-2.8-2-4.6-2-1.9-5.1-1.9-2.4 0-4.4 0.9-1.9 1-3.1 2.5-1.1 1.6-1.1 3.5 0 1.5-0.8 2.5-0.9 0.9-2.1 0.9-1.2 0-2.1-0.9-0.8-0.9-0.8-2.3 0-3.6 1.9-6.5 1.9-2.9 5.1-4.5 3.3-1.7 7.3-1.7 3.7 0 6.6 1.6 3 1.6 4.7 4.4 1.7 2.6 1.7 6.1 0 2.4-1.1 4.3-1 1.9-2.7 3.2-1.7 1.4-3.6 2.2 3.3 1.2 5.4 3.1 2 1.9 3 4.4 1 2.5 1 5.4 0 4.1-2.1 7.3-2 3.2-5.5 5.1-3.4 1.8-7.6 1.8z"/>
	<path id="partly cloudy" class="s4" aria-label="partly cloudy"  d="m1267.4-959.4v5.6q0 2.5 0.9 3.4 0.9 0.9 4 0.9h2.1q4.5 0 7.4-3.4 2.8-3.3 2.8-9.5v-0.4q0-6.2-3.3-9.8-3.2-3.5-8.2-3.5h-1.1q-3.6 0-4.3 1.8-0.2 0.6-0.2 6.6v6.6zm-17.9 36.3q0-3.1 2.6-4.8 2.6-1.8 3-4 0.6-3.4 0.6-19.7 0-16.2-0.8-19.4-0.8-3.3-2.2-4.5-3.2-2.6-3.2-3.4v-0.7q0-1.8 3.3-2.3 0.9-0.1 9.3-0.1l5.8-0.1h1.1l3.5 0.1h3.4q15.5 0 20.7 9.6 1.9 3.6 1.9 7.7v1.3q0 7.3-5.3 12.4-5.4 5-15.2 5.9-5.8 0.5-6.5 0.8-2.9 1.3-2.9 9.8 0 3.8 2.7 6 3.6 3 3.6 5 0 1.5-3.4 2.1-3.3 0.7-9.6 0.7-12.4 0-12.4-2.4zm69.7-24.2v0.4q0 0.5 4 0.5h5q6 0 6-0.7 0-1.8-3.7-11.5-3.7-9.6-3.8-9.6-0.1 0-3.8 9.7-3.7 9.6-3.7 11.2zm8.6-34.3h1.2q3.3 0 7.3 6.9 1.4 2.4 4.2 9.9 2.8 7.6 4.8 12.5 2 5 4.4 11.9 2.4 6.9 3.4 9.1 1.1 2.3 3.9 4.3 2.7 2.1 2.7 3.6 0 1.5-1.9 2-3 0.7-15.1 0.7-5.5 0-5.5-2.4 0-0.6 0.8-2.9 0.9-2.4 0.9-3.6 0-5.3-2.6-9-1-1.5-6.6-1.5-10.1 0-11.5 0.7-1.3 0.6-2.7 3.3-1.4 2.7-1.4 4.9 0 2.3 1.3 4.9 1.2 2.6 1.2 4.1 0 1.9-3.9 1.9-9.4 0-12.5-0.9-2-0.6-2-2.9 0-0.3 4-3.8 2.1-1.9 3.5-5 9.4-22.5 11.9-32.5 2.6-10.2 4.4-13.2 1.8-3 5.8-3zm61.7 5.9h-1.3q-3 0-3.7 0.9-0.6 0.8-0.6 4.2v15.8q0 1.8 0.8 2.5 0.7 0.7 3.2 0.7h1.7 0.4 1q0.3-0.1 0.6-0.1 3.1 0 6.1-2.9 2.9-3 2.9-7.7v-2.1q0-4.8-2.9-8-3-3.3-8.2-3.3zm-2-5.8h2.9q11.2 0 17.5 4.3 6.3 4.3 6.3 12.1 0 4.4-1.8 7.7-1.9 3.3-3.8 5-4.2 3.9-4.2 4.2 0 1.7 1.5 4.3 1.7 2.7 3.7 6.4 2.1 3.7 2.9 4.9 2.3 3 5 4.2 4.7 2.1 4.7 3.1 0 2.8-2.3 3.5-3.4 1-7.9 1-4.5 0-7.2-2.8-2.8-2.9-6.4-10.4-3.7-7.5-4.7-8.8-2.2-2.9-5.7-2.9-1.9 0-2.6 2-0.7 1.8-0.7 9.4 0 1.8 1.9 5.7l1.6 3q1.2 2.2 1.2 2.4 0 2.3-7.1 2.3-12.5 0-14.6-0.6-2.1-0.6-2.1-2.5 0-1.8 2.7-3.4 2.6-1.6 3.2-3.8 0.6-2.2 0.6-19.2 0-17-0.7-19.9-0.6-2.9-2.3-4.6-3.1-2.9-3.1-3.8 0-1.7 3.6-2.2 3.7-0.6 17.9-0.6zm53.9 6.8q-3.7 0-7.7 3.3-6.4 5.3-6.7 5.3-2.3 0-2.3-2.8v-1.4q0-4.7 0.8-8.5 0.4-2 1.7-2.4 1.4-0.4 26.3-0.4h16.4 2.9q4.7 0 5.6 1.5 0.9 1.5 0.9 6.7v2.8q0 4.6-2.1 4.6-1.9 0-4.6-3-2.7-3-4.9-4.3-2.2-1.4-5.8-1.4-2.9 0-3.4 3.8-0.2 1.3-0.2 19.5 0 18.2 0.5 20.1 0.5 2 3.6 4.3 3.1 2.2 3.1 3.8 0 1.5-1.6 1.9-1.6 0.4-10.2 0.4h-7.3q-4.3 0-5.9-0.3-1.6-0.3-1.6-1.8 0-1.4 3-4.1 2.9-2.6 3.4-4.6 0.6-2 0.6-19.8 0-17.8-0.4-19.6-0.3-1.9-1.2-2.7-0.8-0.9-2.9-0.9zm68.9-4.3q0 0.6-2.7 3.6-2.7 3.1-3.2 5.2-0.5 2.1-0.5 20 0 17.9 0.5 19.8 0.5 1.8 2.2 2.5 1.6 0.7 5.5 0.7 3.9 0 6.9-1.4 2.9-1.5 6.3-5.2 3.5-3.7 5.9-3.7 1.9 0 1.9 2.4v1.1q0 3.3-1.1 7.3-1 4-1.6 4.5-1.4 1.3-6.6 1.3h-23.4q-11.5 0-12.8-0.2-2.1-0.4-2.1-2.4 0-1 2.4-3.4 2.3-2.3 3.1-6 0.4-1.5 0.4-19.5 0-18.1-0.5-19.9-0.5-1.7-3.4-3.5-2.8-1.8-2.8-4 0-1.8 8.5-1.8h11.6q3.4 0 4.4 0.5 1.1 0.5 1.1 2.1zm55.2 46.8q0 3.3 1.5 5.4 0.6 0.8 2 2.2 1.3 1.4 1.3 2.3 0 2.5-4.1 2.5-1.3 0-3-0.1l-2.7-0.3q-2.7-0.1-6.9-0.1-4.2 0-5.6-0.3-1.4-0.3-1.4-1.5 0-1.3 2.3-3.6 2.4-2.3 3.2-4 0.8-1.8 0.8-7.4 0-5.7-2.9-10.8-9.9-17.6-13.7-22.7-1.1-1.5-4-3.5-2.8-2-2.8-3.9 0-1.8 2-2.6 3.1-1.1 12.5-1.1h1.5q6.3 0 6.3 3.1l-0.2 1-0.2 0.9q-0.4 2.1-0.4 2.7 0 3.1 6.9 16.6 1.9 3.7 2.8 3.7 1.7 0 7.1-9.6 2.8-5 2.8-7.2 0-2.1-1.1-4.2-1-2.2-1-3.3 0-1.9 2.2-2.6 3.4-1 10.9-1 5.5 0 5.5 2.2 0 2.7-2.1 4.2-3.9 2.7-4.9 4.3-4.9 7.4-11.6 21.4-3 6.3-3 17.3zm100.6-38.1q0 4.4-2.6 4.4-1.1 0-5.4-3.4-4.2-3.4-7.1-4.7-2.8-1.4-6.5-1.4-0.1 0-0.1 0-3.6 0-6.8 1.9-9.1 5.3-9.1 22.7 0 5 1.6 9.7 4.6 13.9 17.5 13.9 0.1 0 0.1 0 6 0 12.4-4.5 4.1-2.8 4.7-2.8 2.1 0 2.1 2v1.1q0 1-2 4.1-2 3-5.5 4.6-5.9 2.7-13.9 2.7h-1.5q-6.4 0-11.8-2.3-10.7-4.7-14.9-15.6-2.2-5.8-2.2-11.3v-3.1q0-5.4 2.1-11.1 4.4-11.7 15.2-16.4 5.6-2.4 11.1-2.4h1.4q13.8 0 18.3 2.6 2.9 1.7 2.9 9.3zm34-8.7q0 0.6-2.7 3.6-2.7 3.1-3.2 5.2-0.5 2.1-0.5 20 0 17.9 0.5 19.8 0.5 1.8 2.1 2.5 1.6 0.7 5.6 0.7 3.9 0 6.8-1.4 3-1.5 6.4-5.2 3.4-3.7 5.9-3.7 1.8 0 1.8 2.4v1.1q0 3.3-1 7.3-1.1 4-1.7 4.5-1.3 1.3-6.5 1.3h-23.5q-11.5 0-12.7-0.2-2.1-0.4-2.1-2.4 0-1 2.3-3.4 2.3-2.3 3.2-6 0.4-1.5 0.4-19.5 0-18.1-0.6-19.9-0.5-1.7-3.3-3.5-2.9-1.8-2.9-4 0-1.8 8.5-1.8h11.6q3.4 0 4.5 0.5 1.1 0.5 1.1 2.1zm71.5 30.1v-2.9q0-4.4-1.2-9.3-2.4-9.8-8.3-13.5-2.7-1.7-6.1-1.7h-0.7q-2.8 0-5.8 1.7-5.8 3.4-7.9 11.7-1.4 5.3-1.4 10.5v1.5q0 5.1 1.3 10 2.7 9.9 9 13.7 2.7 1.5 5.5 1.5h1.3q2.9 0 5.7-1.7 2.7-1.7 4.5-4.6 4.1-6.8 4.1-16.9zm-44-1.8q0-7 2.2-13 4.1-11.6 14.5-16.1 6.1-2.6 12.4-2.6l1 0.1h1q5.1 0 10.5 2.3 5.5 2.3 9.4 6.6 3.8 4.2 5.8 9.9 2.1 5.6 2.1 11.4v1q0 6.6-2.3 12.6-2.2 6-6.3 10.3-8.4 8.7-22.2 8.7-5.7 0-11-2.1-5.3-2.2-8.8-6.1-8.3-9.1-8.3-23zm95.3 30.4h-1.9q-6.2 0-11.1-2.6-9.2-5-10.5-16.4l-0.1-1.7q0-1 0-3.7l0.1-8.7v-9.8q0-8-0.4-9.1-0.5-1-3.2-2.4-2.7-1.5-2.7-3.3v-1.4q0-1.5 3.2-1.8 6.5-0.7 14.7-0.7 5.3 0 5.3 2 0 0.1-1.6 3.3-1.5 3.2-2.2 6.9-0.5 3.6-0.5 17.7 0 14 2.2 18.5 3 6.2 11 6.2 7.9 0 11.5-5.9 2.5-4.3 2.5-20.3 0-16-2.1-20.9l-0.6-1.1-0.8-1q-1.3-2.1-1.3-2.8 0-1.7 2-2.1 0.8-0.2 6.9-0.2 6 0 9 1.2 1.1 0.4 1.1 2.4 0 1.9-1.6 3.2-3.5 2.6-3.9 3.9-0.4 1.3-0.4 12l0.1 5.2 0.1 1.7q0 10.5-1.1 15.7-1 5.1-4.1 8.7-6.3 7.3-19.6 7.3zm80.3-29v-3q0-4.6-1.3-9-2.7-9.4-10.1-12.7-3.3-1.5-7.3-1.5l-0.6 0.1q-5 0-5.6 2.2-0.1 0.5-0.1 13v16.8l-0.1 0.7q0 0.6 0 1.3l-0.1 4.6q0 0.6 0 1.3v1.9 0.7q0 3.7 0.9 4.9 0.9 1.1 4.6 1.1h2.7q3.6 0 7-1.8 3.3-1.9 5.3-4.5 2-2.7 3.3-7 1.4-4.3 1.4-9.1zm-40.5-26.3q-2.5-1.2-2.5-3 0-1.8 2.1-2.1 5.9-1 20.3-1h2.3q15.3 0 24 8 8.8 8 8.8 22 0 14-8.8 22.5-8.7 8.5-23.1 8.5h-3.5l-1.1-0.1h-2.4q-1.1-0.1-2.2-0.1l-9.8-0.3q-4.9 0-5.8-0.5-0.9-0.6-0.9-2.3 0-0.9 2.6-2.6 2.5-1.7 3.1-4 0.7-2.3 0.7-15.4l-0.1-5.6 0.1-6.6 0.1-1q0-1.2 0-2.3l0.1-3.2q0-6-0.9-8.2-0.6-1.4-3.1-2.7zm95.2 43.4q0 3.3 1.5 5.4 0.6 0.8 2 2.2 1.3 1.4 1.3 2.3 0 2.5-4.1 2.5-1.3 0-3-0.1l-2.7-0.3q-2.7-0.1-6.9-0.1-4.2 0-5.6-0.3-1.4-0.3-1.4-1.5 0-1.3 2.3-3.6 2.4-2.3 3.2-4 0.8-1.8 0.8-7.4 0-5.7-2.9-10.8-9.9-17.6-13.7-22.7-1.1-1.5-4-3.5-2.8-2-2.8-3.9 0-1.8 2-2.6 3.1-1.1 12.6-1.1h1.4q6.3 0 6.3 3.1l-0.2 1-0.2 0.9q-0.4 2.1-0.4 2.7 0 3.1 6.9 16.6 1.9 3.7 2.8 3.7 1.7 0 7.1-9.6 2.8-5 2.8-7.2 0-2.1-1.1-4.2-1-2.2-1-3.3 0-1.9 2.3-2.6 3.3-1 10.8-1 5.5 0 5.5 2.2 0 2.7-2.1 4.2-3.8 2.7-4.9 4.3-4.9 7.4-11.6 21.4-3 6.3-3 17.3z"/>
	<path id="city" class="s4" aria-label="city"  d="m-91-421.5q0 3.6-2.1 3.6-1 0-4.5-2.8-3.5-2.8-5.8-3.9-2.3-1.1-5.4-1.1 0 0-0.1 0-2.9 0-5.5 1.6-7.5 4.3-7.5 18.6 0 4.1 1.3 8 3.8 11.4 14.4 11.4 0.1 0 0.1 0 4.9 0 10.1-3.7 3.4-2.3 3.9-2.3 1.7 0 1.7 1.6v0.9q0 0.9-1.7 3.4-1.6 2.5-4.4 3.8-4.9 2.2-11.5 2.2h-1.2q-5.3 0-9.7-1.9-8.8-3.9-12.2-12.8-1.8-4.8-1.8-9.3v-2.5q0-4.5 1.8-9.1 3.6-9.7 12.4-13.4 4.6-2.1 9.1-2.1h1.2q11.3 0 15 2.2 2.4 1.4 2.4 7.6zm10.6-5v-1q0-2 1.6-3.5 1.6-1.4 3.5-1.4h1.2q0.5 0.1 0.9 0.1 1.7 0 3 1.5 1.3 1.6 1.3 3v0.9q0 0.4 0 0.6 0 1.5-1.7 2.9-1.7 1.4-3.7 1.4h-1.2q-2 0-3.4-1.2-1.5-1.3-1.5-3zm6.8 45.7h-3.4q-4.7 0-5.7-0.2-0.9-0.3-0.9-1.6 0-1.3 1.8-3.1 1.8-1.8 2.2-3.6 0.5-1.8 0.5-9.4 0-7.6-0.4-9-0.4-1.3-2.5-2.3-2-1-2-2.4 0-1.4 1.9-2 4.3-1.4 9.5-1.4h0.5q2.1 0 2.4 1.7 0.2 1 0.2 12.1 0 11 0.5 12.9 0.5 1.8 2.5 3.9 2 2.1 2 2.7v0.4q0 1.3-9.1 1.3zm15.1-29.9q-1.6-1-1.6-2 0-1.1 1.9-2.1 1.9-1 2.4-1.6 0.5-0.6 1.5-3.4 1-2.7 2.2-4.2 1.1-1.5 3-1.5 1.8 0 2.7 1.5 0.3 0.7 0.9 3.2 0.6 2.6 1.4 3.3 0.8 0.7 3.2 1.6 2.3 0.9 2.4 0.9 1.2 1 1.2 2.3 0 1.1-3.4 2-3.4 0.9-4.4 2.8-0.9 1.8-0.9 9.1 0 7.3 1.1 9.5 1.2 2.2 3.8 2.2l1.2-0.1q0.9-0.1 1.9-0.1 2.2 0 2.2 1.6 0 2.1-2.7 3.4-3.8 1.8-8 1.8-2 0-3.9-1.1-2-1.1-3-2.6-2.1-3-2.1-8.6v-0.8q-0.1-0.7-0.1-1.7v-2.1q0-6.2-1-10.6-0.3-1.6-1.9-2.7zm58.8-4.8h1.1q4.9 0 4.9 2.5 0 0.9-1.7 2.7-1.6 1.8-2.7 3.9-1 2.1-7.4 17.8-6.4 15.7-8.1 18.5-3.3 5.3-8.9 5.3-2.1 0-4.1-1-1.9-1.1-1.9-2.8 0-1.6 1.2-2.7 1.3-1.1 3.3-1.1 3.4 0 5.5-2.3 2.1-2.3 2.1-4.8 0-2.6-1.3-5.4-8.7-20-9.3-21.2-0.6-1.1-2.7-3.5-2.2-2.3-2.2-4.1 0-1.8 10-1.8 3.3 0 4.5 0.4 1.2 0.3 1.2 2.1 0 0.6-0.5 1.7-0.4 1-0.4 2 0 1 1.7 6.6 1.8 5.7 3.1 8.1 1.3 2.5 1.6 2.5 1.1 0 4.7-10.3 1.1-2.9 1.1-7 0-0.9-0.6-2-0.6-1-0.6-1.8 0-0.8 0.8-1.6 0.8-0.7 5.6-0.7z"/>
	<path id="Humidity  " class="s0" aria-label="Humidity 
"  d="m1252.5-683q-1.3 0-2.1-0.9-0.9-0.8-0.9-2.1v-39.1q0-1.3 0.9-2.1 0.8-0.9 2.1-0.9 1.3 0 2.1 0.9 0.9 0.8 0.9 2.1v16.6h26.9v-16.6q0-1.3 0.8-2.1 0.9-0.9 2.2-0.9 1.3 0 2.1 0.9 0.8 0.8 0.8 2.1v39.1q0 1.3-0.8 2.1-0.8 0.9-2.1 0.9-1.3 0-2.2-0.9-0.8-0.8-0.8-2.1v-17.2h-26.9v17.2q0 1.3-0.9 2.1-0.8 0.9-2.1 0.9zm60.2 0.3q-4 0-7.2-1.7-3.1-1.7-5-5-1.8-3.3-1.8-8.1v-14.2q0-1.3 0.8-2.1 0.9-0.8 2.2-0.8 1.2 0 2 0.8 0.9 0.8 0.9 2.1v14.2q0 3.2 1.2 5.4 1.2 2.1 3.3 3.1 2.1 1 4.7 1 2.5 0 4.4-1 2-1 3.2-2.7 1.1-1.6 1.1-3.7h3.7q0 3.6-1.8 6.5-1.8 2.8-4.8 4.5-3.1 1.7-6.9 1.7zm12.8-0.3q-1.3 0-2.2-0.8-0.8-0.9-0.8-2.1v-25.8q0-1.3 0.8-2.1 0.9-0.8 2.2-0.8 1.3 0 2.1 0.8 0.8 0.8 0.8 2.1v25.8q0 1.2-0.8 2.1-0.8 0.8-2.1 0.8zm54.9 0.1q-1.3 0-2.1-0.9-0.8-0.8-0.8-2.1v-16.5q0-3.6-1.8-5.4-1.8-1.8-4.7-1.8-3 0-5 2.1-1.9 2.1-1.9 5.3h-4.8q0-3.7 1.6-6.6 1.6-2.8 4.5-4.5 3-1.6 6.7-1.6 3.3 0 5.9 1.5 2.5 1.4 3.9 4.2 1.5 2.8 1.5 6.8v16.5q0 1.3-0.8 2.1-0.9 0.9-2.2 0.9zm-38.6 0q-1.3 0-2.1-0.9-0.9-0.8-0.9-2.1v-25.7q0-1.3 0.9-2.1 0.8-0.8 2.1-0.8 1.3 0 2.1 0.8 0.8 0.8 0.8 2.1v25.7q0 1.3-0.8 2.1-0.8 0.9-2.1 0.9zm19.3 0q-1.2 0-2.1-0.9-0.8-0.8-0.8-2.1v-16.5q0-3.6-1.8-5.4-1.8-1.8-4.7-1.8-3 0-5 2.1-2 2.1-2 5.3h-3.6q0-3.7 1.5-6.6 1.5-2.8 4.2-4.5 2.6-1.6 6.1-1.6 3.3 0 5.8 1.5 2.5 1.4 3.9 4.2 1.5 2.8 1.5 6.8v16.5q0 1.3-0.8 2.1-0.8 0.9-2.2 0.9zm35.6-0.1q-1.3 0-2.2-0.8-0.8-0.9-0.8-2.1v-25.7q0-1.4 0.8-2.2 0.9-0.8 2.2-0.8 1.3 0 2.1 0.8 0.8 0.8 0.8 2.2v25.7q0 1.2-0.8 2.1-0.8 0.8-2.1 0.8zm0-36.7q-1.6 0-2.7-1.1-1.1-1.2-1.1-2.7 0-1.6 1.1-2.7 1.1-1.2 2.7-1.2 1.6 0 2.7 1.2 1.1 1.1 1.1 2.7 0 1.5-1.1 2.7-1.1 1.1-2.7 1.1zm28.3 36.9q-4.5 0-8.2-2-3.5-2.2-5.7-5.8-2.1-3.7-2.1-8.2 0-4.6 1.9-8.2 2-3.6 5.4-5.7 3.3-2.1 7.5-2.1 3.5 0 6.4 1.4 2.9 1.4 4.8 3.8v-15.6q0-1.3 0.8-2.1 0.9-0.8 2.2-0.8 1.3 0 2.1 0.8 0.8 0.8 0.8 2.1v26.4q0 4.5-2.1 8.2-2.1 3.6-5.7 5.8-3.6 2-8.1 2zm0-5.2q3 0 5.3-1.4 2.3-1.4 3.6-3.9 1.4-2.5 1.4-5.5 0-3.1-1.4-5.6-1.3-2.4-3.6-3.8-2.3-1.4-5.3-1.4-2.9 0-5.3 1.4-2.3 1.4-3.7 3.8-1.3 2.5-1.3 5.6 0 3 1.3 5.5 1.4 2.5 3.7 3.9 2.4 1.4 5.3 1.4zm29.9 5q-1.3 0-2.2-0.8-0.8-0.9-0.8-2.1v-25.7q0-1.4 0.8-2.2 0.9-0.8 2.2-0.8 1.3 0 2.1 0.8 0.8 0.8 0.8 2.2v25.7q0 1.2-0.8 2.1-0.8 0.8-2.1 0.8zm0-36.7q-1.6 0-2.7-1.1-1.1-1.2-1.1-2.7 0-1.6 1.1-2.7 1.1-1.2 2.7-1.2 1.6 0 2.7 1.2 1.1 1.1 1.1 2.7 0 1.5-1.1 2.7-1.1 1.1-2.7 1.1zm26.5 36.7h-1q-2.9 0-5.2-1.4-2.4-1.5-3.7-4.1-1.3-2.5-1.3-5.7v-27.6q0-1.2 0.8-2 0.8-0.8 2.1-0.8 1.2 0 2.1 0.8 0.8 0.8 0.8 2v27.6q0 2.3 1.2 3.9 1.3 1.5 3.2 1.5h1.9q1.1 0 1.8 0.8 0.7 0.8 0.7 2.1 0 1.3-1 2.1-0.9 0.8-2.4 0.8zm-0.5-25.5h-13.4q-1.2 0-2-0.7-0.7-0.7-0.7-1.7 0-1.1 0.7-1.8 0.8-0.7 2-0.7h13.4q1.2 0 2 0.7 0.7 0.7 0.7 1.8 0 1-0.7 1.7-0.8 0.7-2 0.7zm16.8 39.4q-0.5 0-1.3-0.4-2.6-1.1-1.4-3.6l17.6-39.8q1.2-2.4 3.7-1.4 2.6 1.1 1.4 3.6l-17.7 39.8q-0.7 1.8-2.3 1.8zm6.9-15.2q-1.1 0.5-2.1 0.1-0.9-0.4-1.5-1.5l-13.3-25.1q-0.6-1.1-0.2-2.1 0.5-1 1.6-1.5 1.1-0.4 2.1 0 1 0.3 1.5 1.4l12.7 25.1q0.6 1.1 0.4 2.2-0.1 1-1.2 1.4z"/>
	<path id="68%" class="s0" aria-label="68%"  d="m1262.8-591q-4 0-7.2-1.7-3-1.8-4.8-4.9-1.7-3.1-1.7-7.1 0-4 1.7-7.1 1.8-3.1 4.8-4.8 3.2-1.8 7.2-1.8 4 0 7 1.8 3.1 1.7 4.8 4.8 1.8 3.1 1.8 7.1 0 4-1.8 7.1-1.7 3.1-4.8 4.9-3 1.7-7 1.7zm-0.1-5.2q2.4 0 4.2-1 1.8-1.1 2.9-3 1-2 1-4.5 0-2.5-1-4.4-1.1-1.9-2.9-3-1.8-1.1-4.2-1.1-2.4 0-4.2 1.1-1.8 1.1-2.9 3-1 1.9-1 4.4 0 2.5 1 4.5 1.1 1.9 2.9 3 1.8 1 4.2 1zm-1.2-21.7l-10.5 5.8 13.4-22.3q1.1-1.6 2.7-1.6 1.2 0 2 0.6 0.8 0.7 1 1.8 0.2 1-0.4 2.1zm34.3 26.8q-3.8 0-6.8-1.8-3.1-1.8-4.8-4.9-1.7-3.2-1.7-7.1 0-3.9 1.7-6.9 1.7-3 4.8-4.8 3-1.7 6.8-1.7 3.9 0 6.9 1.7 3 1.8 4.7 4.8 1.8 3 1.8 6.9 0 3.9-1.8 7.1-1.8 3.1-4.8 4.9-3 1.8-6.8 1.8zm0-5.3q2.2 0 3.9-1.2 1.7-1.1 2.7-3 1-2 1-4.3 0-2.4-1-4.1-0.9-1.9-2.7-2.9-1.7-1.1-3.9-1.1-2.1 0-3.8 1.1-1.8 1-2.8 2.9-0.9 1.7-0.9 4.1 0 2.3 0.9 4.3 1 1.9 2.7 3 1.7 1.2 3.9 1.2zm0-17.7q-3.3 0-5.9-1.4-2.5-1.5-4-3.9-1.5-2.5-1.5-5.6 0-3.3 1.5-5.8 1.5-2.6 4-4.1 2.6-1.6 5.9-1.6 3.3 0 5.9 1.5 2.6 1.5 4.1 4.1 1.5 2.6 1.5 5.9 0 3.1-1.6 5.6-1.5 2.4-4.1 3.9-2.5 1.4-5.8 1.4zm0-4.8q1.7 0 2.9-0.8 1.3-0.9 2.1-2.3 0.7-1.4 0.7-3.2 0.1-1.7-0.7-3-0.7-1.4-2-2.1-1.3-0.8-3-0.8-2.4 0-4 1.7-1.6 1.6-1.7 4.2 0 2.6 1.6 4.5 1.7 1.8 4.1 1.8zm26.5 27.9q-1.3 0-2.1-0.9-0.8-0.9-0.8-2.1 0-1.2 0.6-1.9l30.5-39.1q0.5-0.6 1.1-0.8 0.6-0.3 1.3-0.3 1.3 0 2.1 0.8 0.9 0.9 0.9 2.1 0 1-0.6 1.8l-30.8 39.4q-0.9 1-2.2 1zm3.5-22.1q-3.2 0-5.9-1.6-2.6-1.6-4.1-4.2-1.6-2.6-1.6-5.7 0-3.1 1.6-5.7 1.5-2.7 4.1-4.2 2.7-1.6 5.9-1.6 3.2 0 5.8 1.6 2.6 1.5 4.1 4.2 1.6 2.6 1.6 5.7 0 3.1-1.6 5.7-1.5 2.6-4.1 4.2-2.6 1.6-5.8 1.6zm0-5.9q1.5 0 2.8-0.7 1.3-0.8 2-2.1 0.8-1.3 0.8-2.8 0-1.5-0.8-2.8-0.8-1.3-2-2-1.3-0.8-2.8-0.8-1.6 0-2.9 0.8-1.3 0.7-2 2-0.8 1.3-0.8 2.8 0 1.5 0.8 2.8 0.7 1.3 2 2.1 1.3 0.7 2.9 0.7zm23.5 28q-3.1 0-5.8-1.6-2.6-1.5-4.2-4.1-1.5-2.7-1.5-5.8 0-3.2 1.5-5.8 1.6-2.6 4.2-4.2 2.6-1.5 5.8-1.5 3.1 0 5.7 1.5 2.7 1.5 4.3 4.1 1.6 2.6 1.6 5.8 0 3.3-1.6 5.9-1.6 2.6-4.2 4.1-2.6 1.6-5.8 1.6zm0-5.9q1.6 0 2.8-0.8 1.4-0.7 2.1-2 0.8-1.3 0.8-2.8 0-1.6-0.8-2.9-0.7-1.2-2.1-2-1.2-0.7-2.8-0.7-1.5 0-2.8 0.7-1.3 0.8-2.1 2-0.7 1.3-0.7 2.9 0 1.5 0.7 2.8 0.8 1.3 2.1 2 1.3 0.8 2.8 0.8z"/>
	<path id="temperature" class="s0" aria-label="temperature"  d="m155.6-644q-1.2 0-2.1-0.9-0.9-0.8-0.9-2.1v-41.5h6v41.5q0 1.3-0.9 2.1-0.8 0.9-2.1 0.9zm15.3-39h-30.6q-1.2 0-2-0.7-0.7-0.8-0.7-2 0-1.2 0.7-2 0.8-0.8 2-0.8h30.6q1.2 0 1.9 0.8 0.8 0.8 0.8 2 0 1.2-0.8 2-0.7 0.7-1.9 0.7zm14.8 39.2q-4.7 0-8.5-2-3.6-2-5.7-5.5-2.1-3.6-2.1-8.2 0-4.7 2-8.2 2-3.6 5.4-5.6 3.5-2.1 8-2.1 4.5 0 7.7 2 3.2 2 4.8 5.4 1.7 3.5 1.7 7.9 0 1.1-0.7 1.9-0.7 0.7-1.9 0.7h-23v-4.6h22.9l-2.4 1.6q0-2.9-1.1-5.1-1.1-2.2-3.1-3.6-2-1.3-4.9-1.3-3.2 0-5.6 1.5-2.2 1.4-3.4 3.9-1.2 2.4-1.2 5.6 0 3.1 1.4 5.5 1.4 2.5 3.9 3.9 2.5 1.4 5.8 1.4 1.8 0 3.6-0.6 1.9-0.7 3-1.5 0.9-0.7 1.8-0.7 1.1 0 1.8 0.6 1 0.9 1 1.9 0.1 1-0.9 1.8-1.9 1.5-4.8 2.5-2.9 0.9-5.5 0.9zm61.7-0.1q-1.2 0-2.1-0.8-0.8-0.9-0.8-2.1v-16.3q0-3.6-1.7-5.3-1.8-1.8-4.7-1.8-2.9 0-4.9 2.1-1.8 2-1.8 5.2h-4.8q0-3.7 1.6-6.5 1.6-2.8 4.5-4.4 2.9-1.6 6.6-1.6 3.2 0 5.7 1.4 2.6 1.4 3.9 4.2 1.5 2.7 1.5 6.7v16.3q0 1.2-0.8 2.1-0.8 0.8-2.2 0.8zm-38 0q-1.3 0-2.1-0.8-0.8-0.9-0.8-2.1v-25.4q0-1.3 0.8-2.1 0.8-0.8 2.1-0.8 1.3 0 2.1 0.8 0.8 0.8 0.8 2.1v25.4q0 1.2-0.8 2.1-0.8 0.8-2.1 0.8zm19 0q-1.2 0-2.1-0.8-0.8-0.9-0.8-2.1v-16.3q0-3.6-1.7-5.3-1.8-1.8-4.7-1.8-2.9 0-4.9 2.1-1.9 2-1.9 5.2h-3.6q0-3.7 1.5-6.5 1.5-2.8 4.1-4.4 2.6-1.6 6-1.6 3.2 0 5.7 1.4 2.6 1.4 3.9 4.2 1.5 2.7 1.5 6.7v16.3q0 1.2-0.8 2.1-0.8 0.8-2.2 0.8zm34.5 13.2q-1.2 0-2.1-0.8-0.8-0.8-0.8-2.1v-25.9q0.1-4.5 2.1-8.1 2.1-3.6 5.6-5.7 3.5-2.1 8-2.1 4.5 0 8 2.1 3.6 2.1 5.6 5.7 2.1 3.6 2.1 8.1 0 4.5-1.9 8-1.9 3.6-5.2 5.7-3.3 2-7.5 2-3.3 0-6.2-1.3-2.8-1.5-4.8-3.9v15.4q0 1.3-0.8 2.1-0.8 0.8-2.1 0.8zm12.8-18.2q2.9 0 5.2-1.4 2.3-1.4 3.6-3.8 1.4-2.4 1.4-5.4 0-3.1-1.4-5.5-1.3-2.5-3.6-3.8-2.3-1.4-5.2-1.4-2.9 0-5.2 1.4-2.3 1.3-3.6 3.8-1.3 2.4-1.3 5.5 0 3 1.3 5.4 1.3 2.4 3.6 3.8 2.3 1.4 5.2 1.4zm39.1 5.1q-4.7 0-8.5-2-3.6-2-5.7-5.5-2.1-3.6-2.1-8.2 0-4.7 2-8.2 2-3.6 5.4-5.6 3.5-2.1 8-2.1 4.5 0 7.7 2 3.2 2 4.8 5.4 1.7 3.5 1.7 7.9 0 1.1-0.7 1.9-0.7 0.7-1.9 0.7h-23v-4.6h22.8l-2.3 1.6q0-2.9-1.1-5.1-1.1-2.2-3.1-3.6-2-1.3-4.9-1.3-3.2 0-5.6 1.5-2.2 1.4-3.4 3.9-1.2 2.4-1.2 5.6 0 3.1 1.4 5.5 1.4 2.5 3.9 3.9 2.5 1.4 5.8 1.4 1.8 0 3.6-0.6 1.9-0.7 3-1.5 0.9-0.7 1.8-0.7 1.1 0 1.8 0.6 1 0.9 1 1.9 0.1 1-0.9 1.8-1.9 1.5-4.8 2.5-2.9 0.9-5.5 0.9zm26.5-19.7h-2.9q0-3.4 1.6-6.1 1.7-2.7 4.6-4.3 2.8-1.6 6.3-1.6 3.4 0 5 1.2 1.8 1 1.4 2.6-0.2 0.8-0.7 1.2-0.5 0.4-1.1 0.5-0.6 0.2-1.4 0-3.6-0.8-6.6-0.1-2.9 0.6-4.6 2.3-1.6 1.7-1.6 4.3zm-2.9 19.5q-1.4 0-2.1-0.7-0.7-0.7-0.7-2.1v-25.5q0-1.4 0.7-2.1 0.7-0.7 2.1-0.7 1.4 0 2.1 0.7 0.8 0.7 0.8 2.1v25.5q0 1.3-0.8 2.1-0.7 0.7-2.1 0.7zm35.6 0.2q-4.1 0-7.4-2-3.4-2.1-5.3-5.7-1.9-3.5-1.9-8 0-4.5 2.1-8.1 2.1-3.6 5.6-5.7 3.6-2.1 8.1-2.1 4.4 0 8 2.1 3.5 2.1 5.6 5.7 2.1 3.6 2.1 8.1h-2.3q0 4.5-1.9 8-1.9 3.6-5.2 5.7-3.3 2-7.5 2zm1.2-5.1q2.9 0 5.2-1.4 2.2-1.4 3.6-3.8 1.3-2.4 1.3-5.4 0-3.1-1.3-5.5-1.4-2.5-3.6-3.8-2.3-1.4-5.2-1.4-2.9 0-5.2 1.4-2.3 1.3-3.7 3.8-1.3 2.4-1.3 5.5 0 3 1.3 5.4 1.4 2.4 3.7 3.8 2.3 1.4 5.2 1.4zm12.8 5q-1.3 0-2.2-0.8-0.8-0.9-0.8-2.1v-8.8l1.1-6 4.8 2.1v12.7q0 1.2-0.9 2.1-0.8 0.8-2 0.8zm23.9-0.1h-1q-2.9 0-5.1-1.4-2.3-1.5-3.6-4-1.3-2.5-1.3-5.6v-27.2q0-1.2 0.8-2 0.8-0.8 2-0.8 1.3 0 2.1 0.8 0.8 0.8 0.8 2v27.2q0 2.2 1.2 3.8 1.3 1.5 3.1 1.5h1.9q1.1 0 1.8 0.8 0.7 0.8 0.7 2.1 0 1.2-1 2-0.9 0.8-2.4 0.8zm-0.5-25.1h-13.2q-1.2 0-1.9-0.7-0.8-0.7-0.8-1.7 0-1.1 0.8-1.8 0.7-0.7 1.9-0.7h13.2q1.2 0 2 0.7 0.7 0.7 0.7 1.8 0 1-0.7 1.7-0.8 0.7-2 0.7zm24.2 25.4q-4 0-7.1-1.7-3.1-1.7-4.9-4.9-1.8-3.3-1.8-8v-14q0-1.2 0.8-2 0.9-0.9 2.1-0.9 1.3 0 2.1 0.9 0.8 0.8 0.8 2v14q0 3.2 1.2 5.3 1.2 2.1 3.3 3.1 2 0.9 4.6 0.9 2.5 0 4.3-0.9 2-1 3.1-2.6 1.2-1.7 1.2-3.7h3.6q0 3.5-1.8 6.3-1.7 2.9-4.8 4.5-2.9 1.7-6.7 1.7zm12.6-0.3q-1.3 0-2.1-0.8-0.8-0.9-0.8-2.1v-25.4q0-1.3 0.8-2.1 0.8-0.8 2.1-0.8 1.3 0 2.1 0.8 0.8 0.8 0.8 2.1v25.4q0 1.2-0.8 2.1-0.8 0.8-2.1 0.8zm18.9-19.5h-3q0-3.4 1.7-6.1 1.7-2.7 4.6-4.3 2.8-1.6 6.2-1.6 3.5 0 5.1 1.2 1.7 1 1.3 2.6-0.1 0.8-0.6 1.2-0.5 0.4-1.1 0.5-0.7 0.2-1.4 0-3.7-0.8-6.6-0.1-2.9 0.6-4.6 2.3-1.6 1.7-1.6 4.3zm-2.9 19.5q-1.4 0-2.1-0.7-0.7-0.7-0.7-2.1v-25.5q0-1.4 0.7-2.1 0.7-0.7 2.1-0.7 1.4 0 2.1 0.7 0.8 0.7 0.8 2.1v25.5q0 1.3-0.8 2.1-0.7 0.7-2.1 0.7zm37.3 0.2q-4.8 0-8.5-2-3.6-2-5.7-5.5-2.1-3.6-2.1-8.2 0-4.7 1.9-8.2 2-3.6 5.5-5.6 3.5-2.1 8-2.1 4.5 0 7.7 2 3.2 2 4.8 5.4 1.7 3.5 1.7 7.9 0 1.1-0.7 1.9-0.8 0.7-1.9 0.7h-23v-4.6h22.8l-2.3 1.6q-0.1-2.9-1.2-5.1-1-2.2-3-3.6-2-1.3-4.9-1.3-3.2 0-5.6 1.5-2.3 1.4-3.5 3.9-1.2 2.4-1.2 5.6 0 3.1 1.5 5.5 1.4 2.5 3.9 3.9 2.5 1.4 5.8 1.4 1.7 0 3.6-0.6 1.9-0.7 3-1.5 0.8-0.7 1.8-0.7 1 0 1.8 0.6 1 0.9 1 1.9 0.1 1-0.9 1.8-1.9 1.5-4.8 2.5-2.9 0.9-5.5 0.9z"/>
	<path id="30-22" class="s0" aria-label="30-22"  d="m154.3-570q-3.8 0-6.8-1.6-3-1.6-4.6-4.4-1.7-2.8-1.7-6.2 0-1.2 0.6-1.9 0.7-0.8 1.7-0.8 1 0 1.7 0.8 0.7 0.7 0.7 1.9 0 2.1 1 3.8 1.1 1.8 3 2.8 1.8 1.1 4.1 1.1 3.4 0 5.4-1.9 2.1-1.9 2.1-5.2 0-2.2-0.9-3.8-0.9-1.8-2.5-2.8-1.6-1-3.6-1-1.1 0-1.9-0.8-0.7-0.7-0.7-1.9 0-1.1 0.7-1.8 0.8-0.8 1.9-0.8 1.4 0 2.8-0.7 1.3-0.7 2.2-2 0.8-1.2 0.8-2.8 0-2.2-1.6-3.8-1.6-1.5-4.2-1.5-1.9 0-3.6 0.8-1.6 0.7-2.5 2-0.9 1.3-0.9 2.9 0 1.1-0.7 1.9-0.7 0.8-1.7 0.8-1 0-1.7-0.7-0.6-0.8-0.6-1.9 0-2.9 1.5-5.3 1.5-2.3 4.2-3.7 2.6-1.3 5.9-1.3 3 0 5.4 1.3 2.5 1.3 3.8 3.5 1.5 2.2 1.5 5 0 2-0.9 3.5-0.9 1.5-2.3 2.7-1.4 1-2.9 1.7 2.7 1 4.4 2.5 1.7 1.6 2.4 3.6 0.9 2 0.9 4.4 0 3.3-1.7 6-1.7 2.6-4.5 4.1-2.8 1.5-6.2 1.5zm29.4 0q-3.9 0-6.6-2.3-2.7-2.4-4.2-6.9-1.4-4.5-1.4-10.7 0-6.3 1.4-10.7 1.5-4.5 4.2-6.8 2.7-2.4 6.6-2.4 3.9 0 6.6 2.4 2.8 2.4 4.2 6.9 1.4 4.4 1.4 10.6 0 6.1-1.4 10.6-1.4 4.5-4.2 6.9-2.7 2.4-6.6 2.4zm0-5.3q2.4 0 3.9-1.9 1.5-1.9 2.3-5.2 0.8-3.3 0.8-7.5 0-4.2-0.8-7.5-0.8-3.3-2.3-5.3-1.5-1.9-3.9-1.9-2.3 0-3.9 1.9-1.5 1.9-2.3 5.2-0.7 3.4-0.7 7.6 0 4.2 0.7 7.5 0.8 3.3 2.3 5.2 1.6 1.9 3.9 1.9zm30.6-6.1h-11.4q-1.1 0-1.9-0.7-0.7-0.7-0.7-1.8 0-1.2 0.7-1.9 0.8-0.7 1.9-0.7h11.4q1.1 0 1.9 0.7 0.7 0.7 0.7 1.9 0 1.1-0.7 1.8-0.8 0.7-1.9 0.7zm26.4 11.4h-18.9q-1.1 0-1.9-0.8-0.7-0.7-0.7-1.8 0-1.1 0.7-1.8l14.5-16.9q1.6-1.8 2.4-3.4 0.9-1.6 0.9-3 0-2.3-0.8-3.9-0.8-1.6-2.2-2.5-1.4-0.9-3.4-0.9-2 0-3.6 1-1.5 1-2.4 2.7-0.9 1.6-0.9 3.6 0 1-0.7 1.8-0.8 0.7-1.9 0.7-1.1 0-1.8-0.7-0.8-0.8-0.8-1.8 0-3.5 1.6-6.2 1.6-2.7 4.3-4.3 2.7-1.6 6.2-1.6 3.4 0 6 1.5 2.6 1.5 3.9 4.2 1.5 2.7 1.5 6.4 0 1.6-0.8 3.3-0.6 1.7-1.7 3.2-1 1.5-2.1 2.8l-11.7 13.2h14.3q1.1 0 1.9 0.8 0.8 0.8 0.8 1.8 0 1.1-0.8 1.8-0.8 0.8-1.9 0.8zm30.1 0h-18.9q-1.2 0-1.9-0.8-0.8-0.7-0.8-1.8 0-1.1 0.8-1.8l14.5-16.9q1.5-1.8 2.3-3.4 0.9-1.6 0.9-3 0-2.3-0.8-3.9-0.7-1.6-2.2-2.5-1.4-0.9-3.4-0.9-1.9 0-3.5 1-1.6 1-2.5 2.7-0.8 1.6-0.8 3.6 0 1-0.8 1.8-0.7 0.7-1.8 0.7-1.1 0-1.9-0.7-0.8-0.8-0.8-1.8 0-3.5 1.6-6.2 1.6-2.7 4.3-4.3 2.8-1.6 6.2-1.6 3.5 0 6 1.5 2.6 1.5 4 4.2 1.4 2.7 1.4 6.4 0 1.6-0.7 3.3-0.7 1.7-1.8 3.2-1 1.5-2.1 2.8l-11.6 13.2h14.3q1.1 0 1.8 0.8 0.8 0.8 0.8 1.8 0 1.1-0.8 1.8-0.7 0.8-1.8 0.8z"/>
	<path id="椭圆 4" class="s4" d="m65.3-628.9c19 0 34.4 15.4 34.4 34.4 0 19-15.4 34.4-34.4 34.4-19 0-34.4-15.4-34.4-34.4 0-19 15.4-34.4 34.4-34.4zm0-119c8.2 0 14.9 6.6 14.9 14.8v117.7c0 8.2-6.7 14.9-14.9 14.9-8.2 0-14.8-6.7-14.8-14.9v-117.7c0-8.2 6.6-14.8 14.8-14.8z"/>
	<path id="椭圆 4 拷贝" class="s5" d="m65.8-619.8c13.7 0 24.8 11.2 24.8 24.9 0 13.7-11.1 24.8-24.8 24.8-13.8 0-24.9-11.1-24.9-24.8 0-13.7 11.1-24.9 24.9-24.9zm-0.6-94.3c5.7 0 10.2 4.5 10.2 10.1v94.5c0 5.6-4.5 10.2-10.2 10.2-5.6 0-10.2-4.6-10.2-10.2v-94.5c0-5.6 4.6-10.1 10.2-10.1z"/>
	<path id="椭圆 5" class="s5" d="m65.5-737c3.6 0 6.5 2.9 6.5 6.5 0 3.6-2.9 6.5-6.5 6.5-3.6 0-6.5-2.9-6.5-6.5 0-3.6 2.9-6.5 6.5-6.5z"/>
	<path id="28" class="s4" aria-label="28"  d="m171.2-801.5q-0.3 0.7 0 1.4 0.4 0.3 1 0.3h78.8q3.3 0 3.3 3.4v14q0 3.4-3.3 3.4h-105.2q-3.4 0-3.4-3.4v-15q0-2.7 1.3-4.4 10.4-16.4 11.8-18.8 29.5-46.5 46.6-75.7 21.4-36.9 21.4-61 0-17.4-8-27.8-8.1-10.4-21.1-10.4-12.8 0-20.8 10.4-7.7 10-7.4 26.8v12.7q0 3.4-3.4 3.4h-17.4q-3.3 0-3.3-3.4v-13.4q0.6-25.8 15-41.5 14.8-15.8 38.3-15.8 23.4 0 37.8 16.4 14.4 16.1 14.4 42.6 0 31.5-23.8 71-12 20.5-33.8 55zm191.4-102.9q-1.7 1 0 2 12.4 6.4 17.7 19.1 7.4 16.5 7.4 38.9 0 18.4-4.7 31.9-5.7 17-18.4 26.8-12.7 9.4-30.5 9.4-17.1 0-29.8-9.4-12.4-9.4-18.5-26.5-4.7-14.8-4.7-32.5 0-21.5 6.4-36.2 5.7-14.1 18.8-21.5 1.3-1 0-2-11.1-5.7-17.8-18.1-7.4-14.1-7.4-34.2 0-20.4 7.4-34.2 6.4-12.4 18.1-19.1 11.7-7 27.5-7 15.7 0 27.5 6.7 11.7 6.4 18.1 18.8 8 14.1 8 35.2 0 20.1-7 33.2-6.7 12.4-18.1 18.7zm-53-75.1q-5 10.1-5 24.8 0 15.1 5.4 25.2 7.3 16.4 24.1 16.4 9 0 15.4-4.7 6.7-4.7 10.1-13.1 4.7-10 4.7-24.1 0-16.1-5.7-25.5-7.8-15.7-24.5-15.7-17.1 0-24.5 16.7zm52 157.2q2.7-10.7 2.7-23.4 0-17.5-4.7-28.9-7.1-19.4-25.5-19.4-9.1 0-15.8 5.4-6.3 5.3-9.7 15.4-4 11.1-4 27.5 0 13.7 3 24.4 3 11.4 9.7 17.8 7.1 6.4 16.8 6.4 10 0 17.1-6.4 7.4-6.7 10.4-18.8z"/>
	<path id="°c" class="s4" aria-label="°c"  d="m407.8-1022.8q-5.2 0-9.6-2.6-4.4-2.5-7-6.9-2.5-4.5-2.5-9.9 0-5.4 2.5-9.8 2.6-4.5 7-7 4.4-2.6 9.6-2.6 5.3 0 9.7 2.6 4.4 2.5 6.9 7 2.6 4.4 2.6 9.8 0 5.4-2.6 9.9-2.5 4.4-6.9 6.9-4.4 2.6-9.7 2.6zm0-6.1q5.5 0 9.3-3.8 3.8-3.9 3.8-9.5 0-5.6-3.8-9.5-3.8-3.9-9.3-3.9-5.3 0-9.2 3.9-3.8 3.9-3.8 9.5 0 5.6 3.8 9.5 3.9 3.8 9.2 3.8zm49.3 66.9q-9.4 0-15.1-5.8-5.6-5.7-5.6-15.3v-45.3q0-9.5 5.6-15.3 5.7-5.7 15.1-5.7 9.5 0 15.2 5.7 5.7 5.6 5.7 15.3v2.1q0 1.2-1.2 1.2l-6.4 0.3q-1.2 0-1.2-1.2v-3q0-5.8-3.3-9.3-3.3-3.5-8.8-3.5-5.3 0-8.8 3.5-3.3 3.5-3.3 9.3v46.6q0 5.7 3.3 9.3 3.5 3.5 8.8 3.5 5.5 0 8.8-3.5 3.3-3.6 3.3-9.3v-3.1q0-1.2 1.2-1.2l6.4 0.4q1.2 0 1.2 1.2v2q0 9.6-5.7 15.3-5.8 5.8-15.2 5.8z"/>
	<g id="1">
		<path id="°c" class="s0" aria-label="°c"  d="m3.7 7q-0.8 0-1.5-0.4-0.7-0.4-1-1-0.4-0.7-0.4-1.5 0-0.8 0.4-1.5 0.3-0.7 1-1.1 0.7-0.4 1.5-0.4 0.7 0 1.4 0.4 0.7 0.4 1.1 1.1 0.3 0.7 0.3 1.5 0 0.8-0.3 1.5-0.4 0.6-1.1 1-0.7 0.4-1.4 0.4zm0-0.9q0.8 0 1.3-0.6 0.6-0.6 0.6-1.4 0-0.9-0.6-1.5-0.5-0.6-1.3-0.6-0.9 0-1.4 0.6-0.6 0.6-0.6 1.5 0 0.8 0.6 1.4 0.5 0.6 1.4 0.6zm7.4 10q-1.4 0-2.3-0.8-0.8-0.9-0.8-2.3v-6.9q0-1.4 0.8-2.3 0.9-0.8 2.3-0.8 1.4 0 2.3 0.8 0.8 0.9 0.8 2.3v0.4q0 0.1-0.2 0.1l-0.9 0.1q-0.2 0-0.2-0.2v-0.4q0-0.9-0.5-1.4-0.5-0.6-1.3-0.6-0.8 0-1.3 0.6-0.5 0.5-0.5 1.4v7q0 0.8 0.5 1.4 0.5 0.5 1.3 0.5 0.8 0 1.3-0.5 0.5-0.6 0.5-1.4v-0.5q0-0.2 0.2-0.2l0.9 0.1q0.2 0 0.2 0.2v0.3q0 1.4-0.8 2.3-0.9 0.8-2.3 0.8z"/>
	</g>
	<g id="2">
		<path id="2" class="s6" d="m190-341h238c11 0 20 9 20 20v368c0 11-9 20-20 20h-238c-11 0-20-9-20-20v-368c0-11 9-20 20-20z"/>
		<g id="组 1">
			<path id="椭圆 4 拷贝 2" class="s7" d="m233.5-171.2c12.5 0 22.5 10.1 22.5 22.5 0 12.4-10 22.5-22.5 22.5-12.4 0-22.5-10.1-22.5-22.5 0-12.4 10.1-22.5 22.5-22.5zm30.2-31.3c16.2 0 29.2 13 29.2 29.1 0 16.1-13 29.2-29.2 29.2-16.1 0-29.2-13.1-29.2-29.2 0-16.1 13.1-29.1 29.2-29.1zm55.5-19.5c20.6 0 37.4 16.7 37.4 37.3 0 20.6-16.8 37.3-37.4 37.3-20.6 0-37.3-16.7-37.3-37.3 0-20.6 16.7-37.3 37.3-37.3zm43.5 34.8c13.3 0 24.1 10.8 24.1 24.1 0 13.3-10.8 24.1-24.1 24.1-13.3 0-24.1-10.8-24.1-24.1 0-13.3 10.8-24.1 24.1-24.1zm-88.4 17.8c17.9 0 32.3 14.4 32.3 32.2 0 17.8-14.4 32.2-32.3 32.2-17.8 0-32.2-14.4-32.2-32.2 0-17.8 14.4-32.2 32.2-32.2zm50.7-7.9c17.4 0 31.6 14.1 31.6 31.5 0 17.4-14.2 31.5-31.6 31.5-17.4 0-31.5-14.1-31.5-31.5 0-17.4 14.1-31.5 31.5-31.5zm29.2 23.2c10 0 18.1 8.1 18.1 18 0 10-8.1 18-18.1 18-9.9 0-18-8-18-18 0-9.9 8.1-18 18-18zm-69.3-61.5c8.5 0 15.3 6.8 15.3 15.2 0 8.4-6.8 15.3-15.3 15.3-8.4 0-15.2-6.9-15.2-15.3 0-8.4 6.8-15.2 15.2-15.2zm104.9 37.1c10.1 0 18.2 8.2 18.2 18.2 0 10-8.1 18.1-18.2 18.1-10 0-18.1-8.1-18.1-18.1 0-10 8.1-18.2 18.1-18.2zm-5.8 21.8c11.7 0 21.1 9.4 21.1 21.1 0 11.6-9.4 21-21.1 21-11.6 0-21-9.4-21-21 0-11.7 9.4-21.1 21-21.1z"/>
			<path id="形状 1" class="s8" d="m294.6-148h47.6l-21.4 26.4 21.2 4.6-78.9 56 28.9-52.5-20-1.8z"/>
		</g>
		<path id="22 拷贝" class="s0" aria-label="22"  d="m290.3 28.5q0 0.1 0 0.1 0.1 0.1 0.2 0.1h8.8q0.3 0 0.3 0.3v1.6q0 0.4-0.3 0.4h-11.8q-0.4 0-0.4-0.4v-1.7q0-0.3 0.2-0.5 1.1-1.8 1.3-2.1 3.3-5.2 5.2-8.4 2.4-4.2 2.4-6.9 0-1.9-0.9-3.1-0.9-1.1-2.4-1.1-1.4 0-2.3 1.1-0.9 1.2-0.8 3v1.5q0 0.3-0.4 0.3h-1.9q-0.4 0-0.4-0.3v-1.5q0.1-2.9 1.7-4.7 1.6-1.8 4.2-1.8 2.7 0 4.3 1.9 1.6 1.8 1.6 4.7 0 3.6-2.7 8-1.3 2.3-3.8 6.1zm15.1 0q0 0.1 0 0.2 0.1 0 0.1 0h8.8q0.4 0 0.4 0.4v1.6q0 0.4-0.4 0.4h-11.7q-0.4 0-0.4-0.4v-1.7q0-0.3 0.1-0.5 1.2-1.8 1.4-2.1 3.3-5.2 5.2-8.5 2.4-4.1 2.4-6.8 0-1.9-0.9-3.1-0.9-1.2-2.4-1.2-1.4 0-2.3 1.2-0.9 1.1-0.8 3v1.4q0 0.4-0.4 0.4h-2q-0.3 0-0.3-0.4v-1.5q0-2.9 1.6-4.6 1.7-1.8 4.3-1.8 2.6 0 4.3 1.8 1.6 1.8 1.6 4.8 0 3.5-2.7 8-1.3 2.2-3.8 6.1z"/>
		<path id="°c 拷贝" class="s0" aria-label="°c"  d="m319.7 6q-0.8 0-1.5-0.4-0.7-0.4-1-1-0.4-0.7-0.4-1.5 0-0.8 0.4-1.5 0.3-0.7 1-1.1 0.7-0.4 1.5-0.4 0.7 0 1.4 0.4 0.7 0.4 1.1 1.1 0.3 0.7 0.3 1.5 0 0.8-0.3 1.5-0.4 0.6-1.1 1-0.7 0.4-1.4 0.4zm0-0.9q0.8 0 1.3-0.6 0.6-0.6 0.6-1.4 0-0.9-0.6-1.5-0.5-0.6-1.3-0.6-0.9 0-1.4 0.6-0.6 0.6-0.6 1.5 0 0.8 0.6 1.4 0.5 0.6 1.4 0.6zm7.4 10q-1.4 0-2.3-0.8-0.8-0.9-0.8-2.3v-6.9q0-1.4 0.8-2.3 0.9-0.8 2.3-0.8 1.4 0 2.3 0.8 0.8 0.9 0.8 2.3v0.4q0 0.1-0.2 0.1l-0.9 0.1q-0.2 0-0.2-0.2v-0.4q0-0.9-0.5-1.4-0.5-0.6-1.3-0.6-0.8 0-1.3 0.6-0.5 0.5-0.5 1.4v7q0 0.8 0.5 1.4 0.5 0.5 1.3 0.5 0.8 0 1.3-0.5 0.5-0.6 0.5-1.4v-0.5q0-0.2 0.2-0.2l0.9 0.1q0.2 0 0.2 0.2v0.3q0 1.4-0.8 2.3-0.9 0.8-2.3 0.8z"/>
		<path id="tue" class="s0" aria-label="tue"  d="m284.6-309.9q0.7 0 0.7 0.7v3.1q0 0.7-0.7 0.7h-9.6q-0.3 0-0.3 0.3v45.4q0 0.7-0.7 0.7h-3.8q-0.7 0-0.7-0.7v-45.4q0-0.3-0.3-0.3h-9q-0.7 0-0.7-0.7v-3.1q0-0.7 0.7-0.7zm23.5 14.8q0-0.7 0.7-0.7h3.7q0.8 0 0.8 0.7v35.4q0 0.7-0.8 0.7h-3.7q-0.7 0-0.7-0.7v-2.5q0-0.2-0.1-0.2-0.1 0-0.3 0.1-2.2 3.8-7.2 3.8-4.4 0-7-2.6-2.6-2.7-2.6-8.1v-25.9q0-0.7 0.8-0.7h3.7q0.7 0 0.7 0.7v24.8q0 3.6 1.5 5.5 1.5 1.8 4.3 1.8 2.9 0 4.5-2.1 1.7-2.1 1.7-5.8zm36 19q0 0.7-0.7 0.7h-16.6q-0.3 0-0.3 0.3v5.3q0 3 1.7 5 1.7 1.9 4.5 1.9 2.3 0 3.9-1.4 1.7-1.4 2.2-3.7 0.2-0.7 0.8-0.7l3.6 0.2q0.3 0 0.5 0.2 0.3 0.2 0.2 0.6-0.6 4.3-3.6 6.8-2.9 2.5-7.6 2.5-5.2 0-8.3-3.1-3.1-3-3.1-8v-15.7q0-5 3.1-8 3.1-3.2 8.3-3.2 5.2 0 8.3 3.2 3.1 3 3.1 8zm-11.4-15.7q-2.8 0-4.5 1.9-1.7 1.9-1.7 5v4.9q0 0.3 0.3 0.3h11.9q0.3 0 0.3-0.3v-4.9q0-3.1-1.7-5-1.8-1.9-4.6-1.9z"/>
	</g>
	<g id="3">
		<path id="3" class="s6" d="m512-341h238c11 0 20 9 20 20v368c0 11-9 20-20 20h-238c-11 0-20-9-20-20v-368c0-11 9-20 20-20z"/>
		<g id="组 1 拷贝">
			<path id="椭圆 4 拷贝 2" class="s9" d="m563.5-175.2c12.5 0 22.5 10.1 22.5 22.5 0 12.4-10 22.5-22.5 22.5-12.4 0-22.5-10.1-22.5-22.5 0-12.4 10.1-22.5 22.5-22.5zm30.2-31.3c16.2 0 29.2 13 29.2 29.1 0 16.1-13 29.2-29.2 29.2-16.1 0-29.2-13.1-29.2-29.2 0-16.1 13.1-29.1 29.2-29.1zm55.5-19.5c20.6 0 37.4 16.7 37.4 37.3 0 20.6-16.8 37.3-37.4 37.3-20.6 0-37.3-16.7-37.3-37.3 0-20.6 16.7-37.3 37.3-37.3zm43.5 34.8c13.3 0 24.1 10.8 24.1 24.1 0 13.3-10.8 24.1-24.1 24.1-13.3 0-24.1-10.8-24.1-24.1 0-13.3 10.8-24.1 24.1-24.1zm-88.4 17.8c17.9 0 32.3 14.4 32.3 32.2 0 17.8-14.4 32.2-32.3 32.2-17.8 0-32.2-14.4-32.2-32.2 0-17.8 14.4-32.2 32.2-32.2zm50.7-7.9c17.4 0 31.6 14.1 31.6 31.5 0 17.4-14.2 31.5-31.6 31.5-17.4 0-31.5-14.1-31.5-31.5 0-17.4 14.1-31.5 31.5-31.5zm29.2 23.2c10 0 18.1 8.1 18.1 18 0 10-8.1 18-18.1 18-9.9 0-18-8-18-18 0-9.9 8.1-18 18-18zm-69.3-61.5c8.5 0 15.3 6.8 15.3 15.2 0 8.4-6.8 15.3-15.3 15.3-8.4 0-15.2-6.9-15.2-15.3 0-8.4 6.8-15.2 15.2-15.2zm104.9 37.1c10.1 0 18.2 8.2 18.2 18.2 0 10-8.1 18.1-18.2 18.1-10 0-18.1-8.1-18.1-18.1 0-10 8.1-18.2 18.1-18.2zm-5.8 21.8c11.7 0 21.1 9.4 21.1 21.1 0 11.6-9.4 21-21.1 21-11.6 0-21-9.4-21-21 0-11.7 9.4-21.1 21-21.1z"/>
			<path id="圆角矩形 3" class="s8" d="m611.7-138.7c2.5 0.2 4.2 2.4 3.9 4.7l-2.4 20.8c-0.2 2.2-2.3 3.8-4.7 3.6-2.3-0.3-4-2.3-3.8-4.5l2.2-20.8c0.2-2.4 2.4-4.1 4.8-3.8z"/>
			<path id="圆角矩形 3 拷贝" class="s8" d="m633.5-126.7c2.4 0.2 4 2.3 3.7 4.6l-3 20.2c-0.4 2.1-2.5 3.7-4.8 3.4-2.3-0.2-3.9-2.2-3.6-4.3l2.7-20.2c0.4-2.3 2.6-4 5-3.7z"/>
			<path id="圆角矩形 3 拷贝 2" class="s8" d="m659.6-143.8c2.5 0.3 4.1 2.5 3.7 4.9l-3.9 21.2c-0.4 2.3-2.6 3.9-5 3.7-2.3-0.3-3.9-2.3-3.6-4.6l3.6-21.2c0.5-2.4 2.8-4.2 5.2-4z"/>
			<path id="圆角矩形 3 拷贝 3" class="s8" d="m677.9-116.8c2.4 0.2 4 2.3 3.5 4.5l-4.3 19.8c-0.4 2.1-2.7 3.6-4.9 3.4-2.3-0.3-3.8-2.2-3.4-4.3l4-19.8c0.5-2.2 2.8-3.9 5.1-3.6z"/>
			<path id="圆角矩形 3 拷贝 4" class="s8" d="m706.5-138.9c2.4 0.3 3.9 2.4 3.3 4.8l-5.2 21.1c-0.6 2.3-2.9 3.9-5.3 3.6-2.3-0.2-3.8-2.2-3.3-4.5l5-21.1c0.5-2.4 3-4.1 5.5-3.9z"/>
			<path id="圆角矩形 3 拷贝 5" class="s8" d="m648-98.8c2.3 0.2 3.9 2.1 3.5 4.2l-2.9 18.4c-0.4 1.9-2.4 3.3-4.6 3.1-2.2-0.2-3.7-2-3.4-4l2.7-18.3c0.3-2.1 2.4-3.6 4.7-3.4z"/>
			<path id="圆角矩形 3 拷贝 6" class="s8" d="m595-104.8c2.3 0.2 3.9 2.1 3.5 4.2l-2.9 18.4c-0.4 1.9-2.4 3.3-4.6 3.1-2.2-0.2-3.7-2-3.4-4l2.7-18.3c0.3-2.1 2.4-3.6 4.7-3.4z"/>
			<path id="圆角矩形 3 拷贝 7" class="s8" d="m574-139.8c2.3 0.2 3.9 2.1 3.5 4.2l-2.9 18.4c-0.4 1.9-2.4 3.3-4.6 3.1-2.2-0.2-3.7-2-3.4-4l2.7-18.3c0.3-2.1 2.4-3.6 4.7-3.4z"/>
		</g>
		<path id="24" class="s0" aria-label="24"  d="m628.3 27.5q0 0.1 0 0.1 0.1 0.1 0.2 0.1h8.8q0.3 0 0.3 0.3v1.6q0 0.4-0.3 0.4h-11.8q-0.4 0-0.4-0.4v-1.7q0-0.3 0.2-0.5 1.1-1.8 1.3-2.1 3.3-5.2 5.2-8.4 2.4-4.2 2.4-6.9 0-1.9-0.9-3.1-0.9-1.1-2.4-1.1-1.4 0-2.3 1.1-0.9 1.2-0.8 3v1.5q0 0.3-0.4 0.3h-1.9q-0.4 0-0.4-0.3v-1.5q0.1-2.9 1.7-4.7 1.6-1.8 4.2-1.8 2.7 0 4.3 1.9 1.6 1.8 1.6 4.7 0 3.6-2.7 8-1.3 2.3-3.8 6.1zm24.8-7q0.3 0 0.3 0.3v1.7q0 0.4-0.3 0.4h-1.2q-0.2 0-0.2 0.1v6.7q0 0.4-0.3 0.4h-1.9q-0.4 0-0.4-0.4v-6.7q0-0.1-0.2-0.1h-9q-0.4 0-0.4-0.4v-1.4q0-0.2 0.1-0.5l5.6-16.5q0.1-0.3 0.5-0.3h2q0.4 0 0.3 0.4l-5.4 16.1q0 0 0 0.1 0.1 0.1 0.1 0.1h6.2q0.2 0 0.2-0.2v-5.7q0-0.4 0.4-0.4h1.9q0.3 0 0.3 0.4v5.7q0 0.2 0.2 0.2z"/>
		<path id="°c 拷贝 2" class="s0" aria-label="°c"  d="m657.7 5q-0.8 0-1.5-0.4-0.7-0.4-1-1-0.4-0.7-0.4-1.5 0-0.8 0.4-1.5 0.3-0.7 1-1.1 0.7-0.4 1.5-0.4 0.7 0 1.4 0.4 0.7 0.4 1.1 1.1 0.3 0.7 0.3 1.5 0 0.8-0.3 1.5-0.4 0.6-1.1 1-0.7 0.4-1.4 0.4zm0-0.9q0.8 0 1.3-0.6 0.6-0.6 0.6-1.4 0-0.9-0.6-1.5-0.5-0.6-1.3-0.6-0.9 0-1.4 0.6-0.6 0.6-0.6 1.5 0 0.8 0.6 1.4 0.5 0.6 1.4 0.6zm7.4 10q-1.4 0-2.3-0.8-0.8-0.9-0.8-2.3v-6.9q0-1.4 0.8-2.3 0.9-0.8 2.3-0.8 1.4 0 2.3 0.8 0.8 0.9 0.8 2.3v0.4q0 0.1-0.2 0.1l-0.9 0.1q-0.2 0-0.2-0.2v-0.4q0-0.9-0.5-1.4-0.5-0.6-1.3-0.6-0.8 0-1.3 0.6-0.5 0.5-0.5 1.4v7q0 0.8 0.5 1.4 0.5 0.5 1.3 0.5 0.8 0 1.3-0.5 0.5-0.6 0.5-1.4v-0.5q0-0.2 0.2-0.2l0.9 0.1q0.2 0 0.2 0.2v0.3q0 1.4-0.8 2.3-0.9 0.8-2.3 0.8z"/>
		<path id="Wed" class="s0" aria-label="Wed"  d="m596.5-259q-0.6 0-0.8-0.7l-9.6-49.4v-0.2q0-0.6 0.7-0.6h3.8q0.8 0 0.8 0.6l6.9 38.3q0 0.1 0.1 0.1 0.1 0 0.2-0.1l5.8-38.3q0.2-0.6 0.8-0.6h3.3q0.7 0 0.7 0.6l6.2 38.3q0.1 0.1 0.2 0.1 0 0 0.1-0.1l6.3-38.3q0.1-0.6 0.7-0.6h3.9q0.3 0 0.5 0.2 0.2 0.2 0.1 0.6l-9 49.4q-0.1 0.7-0.8 0.7h-3.6q-0.6 0-0.7-0.7l-6.1-38.4q-0.1-0.1-0.2-0.1-0.1 0-0.1 0.1l-6 38.4q0 0.7-0.7 0.7zm56.5-17.2q0 0.8-0.8 0.8h-16.6q-0.2 0-0.2 0.3v5.3q0 3 1.6 5 1.8 1.9 4.5 1.9 2.4 0 4-1.4 1.6-1.5 2.1-3.7 0.3-0.7 0.8-0.7l3.7 0.2q0.3 0 0.5 0.2 0.2 0.2 0.1 0.6-0.5 4.3-3.5 6.8-2.9 2.5-7.7 2.5-5.1 0-8.3-3.1-3-3-3-8v-15.8q0-4.9 3-8 3.2-3.1 8.3-3.1 5.3 0 8.3 3.1 3.2 3.1 3.2 8zm-11.5-15.7q-2.7 0-4.5 2-1.6 1.9-1.6 5v4.9q0 0.3 0.2 0.3h12q0.3 0 0.3-0.3v-4.9q0-3.1-1.8-5-1.7-2-4.6-2zm35.8-17.3q0-0.7 0.8-0.7h3.7q0.7 0 0.7 0.7v49.5q0 0.7-0.7 0.7h-3.7q-0.8 0-0.8-0.7v-1.6q0-0.2-0.1-0.2-0.1-0.1-0.2 0-2.8 3.1-7 3.1-4.7 0-7.4-3.1-2.8-3.1-2.8-8v-15.8q0-5 2.8-8 2.7-3.1 7.4-3.1 4.3 0 7 3.1 0.1 0.2 0.2 0.1 0.1-0.1 0.1-0.2zm-6.1 46.3q2.7 0 4.4-1.9 1.7-2 1.7-5v-15.1q0-3.1-1.7-5-1.7-2-4.4-2-2.7 0-4.6 2-1.7 1.9-1.7 5v15.1q0 3 1.7 5 1.9 1.9 4.6 1.9z"/>
	</g>
	<g id="4">
		<path id="4" class="s6" d="m834-341h238c11 0 20 9 20 20v368c0 11-9 20-20 20h-238c-11 0-20-9-20-20v-368c0-11 9-20 20-20z"/>
		<g id="组 2 拷贝 2">
			<g id="yang">
				<path id="椭圆 2" class="s1" d="m964.1-194.5c24.5 7.2 38.5 32.9 31.3 57.4-7.2 24.5-32.9 38.5-57.4 31.3-24.5-7.2-38.5-33-31.3-57.4 7.2-24.5 32.9-38.5 57.4-31.3z"/>
				<path id="椭圆 2 拷贝" class="s2" d="m960.9-191c23.4 6.9 36.7 31.4 29.8 54.8-6.9 23.3-31.4 36.7-54.8 29.8-23.4-6.9-36.7-31.4-29.8-54.8 6.9-23.4 31.4-36.7 54.8-29.8z"/>
				<path id="椭圆 2 拷贝 2" class="s3" d="m954.9-183.4c20.2 6 31.7 27.2 25.8 47.3-6 20.2-27.2 31.7-47.4 25.8-20.2-6-31.7-27.2-25.8-47.4 6-20.1 27.2-31.7 47.4-25.7z"/>
				<path id="圆角矩形 2" class="s1" d="m971.4-219.7l0.4 0.1c2.2 0.6 3.4 2.9 2.8 5.1l-3.9 13c-0.6 2.2-2.9 3.4-5.1 2.8l-0.4-0.2c-2.2-0.6-3.4-2.9-2.8-5.1l3.9-13c0.6-2.1 2.9-3.4 5.1-2.7z"/>
				<path id="圆角矩形 2 拷贝" class="s1" d="m936.4-101.3l0.4 0.2c2.2 0.6 3.4 2.9 2.8 5.1l-3.9 13c-0.6 2.1-2.9 3.4-5.1 2.7l-0.4-0.1c-2.2-0.6-3.4-2.9-2.8-5.1l3.9-13c0.6-2.2 2.9-3.4 5.1-2.8z"/>
				<path id="圆角矩形 2 拷贝 2" class="s1" d="m1005-138.6l13 3.9c2.2 0.6 3.4 2.9 2.8 5.1l-0.2 0.4c-0.6 2.2-2.9 3.4-5.1 2.8l-13-3.9c-2.1-0.6-3.4-2.9-2.7-5.1l0.1-0.4c0.6-2.2 2.9-3.4 5.1-2.8z"/>
				<path id="圆角矩形 2 拷贝 2" class="s1" d="m886.5-173.6l13 3.9c2.2 0.6 3.4 2.9 2.8 5.1l-0.2 0.4c-0.6 2.2-2.9 3.4-5.1 2.8l-13-3.9c-2.1-0.6-3.4-2.9-2.7-5.1l0.1-0.4c0.6-2.2 2.9-3.4 5.1-2.8z"/>
				<path id="圆角矩形 2 拷贝 3" class="s1" d="m932.9-220.4l2.2-0.5c1.7-0.4 3.4 0.7 3.8 2.4l3.6 14.9c0.4 1.7-0.6 3.5-2.3 3.9l-2.2 0.5c-1.7 0.4-3.5-0.6-3.9-2.4l-3.6-14.9c-0.4-1.7 0.7-3.4 2.4-3.9z"/>
				<path id="圆角矩形 2 拷贝 3" class="s1" d="m961.8-100.3l2.2-0.5c1.7-0.4 3.5 0.6 3.9 2.4l3.6 14.9c0.4 1.7-0.7 3.4-2.4 3.9l-2.2 0.5c-1.7 0.4-3.4-0.7-3.8-2.4l-3.6-14.9c-0.4-1.7 0.6-3.5 2.3-3.9z"/>
				<path id="圆角矩形 2 拷贝 3" class="s1" d="m1002.6-166.9l14.9-3.6c1.7-0.4 3.5 0.7 3.9 2.4l0.5 2.2c0.4 1.7-0.6 3.4-2.4 3.8l-14.9 3.6c-1.7 0.4-3.4-0.6-3.9-2.3l-0.5-2.2c-0.4-1.7 0.7-3.5 2.4-3.9z"/>
				<path id="圆角矩形 2 拷贝 3" class="s1" d="m882.5-137.9l14.9-3.6c1.7-0.4 3.4 0.6 3.9 2.3l0.5 2.2c0.4 1.7-0.7 3.5-2.4 3.9l-14.9 3.6c-1.7 0.4-3.5-0.7-3.9-2.4l-0.5-2.2c-0.4-1.7 0.6-3.4 2.4-3.8z"/>
				<path id="圆角矩形 2 拷贝 4" class="s1" d="m900.1-201.9l1.7-1.5c1.2-1.2 3.3-1.2 4.5 0.1l10.6 11.1c1.2 1.3 1.1 3.3-0.2 4.6l-1.6 1.5c-1.3 1.2-3.3 1.2-4.5-0.1l-10.6-11.2c-1.2-1.2-1.2-3.3 0.1-4.5z"/>
				<path id="圆角矩形 2 拷贝 4" class="s1" d="m985.3-112.3l1.6-1.6c1.3-1.2 3.3-1.2 4.5 0.1l10.6 11.2c1.2 1.2 1.2 3.3-0.1 4.5l-1.6 1.5c-1.3 1.2-3.4 1.2-4.6-0.1l-10.6-11.1c-1.2-1.3-1.1-3.3 0.2-4.5z"/>
				<path id="圆角矩形 2 拷贝 4" class="s1" d="m987.2-190.4l11.2-10.6c1.3-1.2 3.3-1.1 4.5 0.1l1.5 1.7c1.3 1.2 1.2 3.3-0.1 4.5l-11.1 10.6c-1.3 1.2-3.3 1.1-4.5-0.1l-1.6-1.7c-1.2-1.3-1.1-3.3 0.1-4.5z"/>
				<path id="圆角矩形 2 拷贝 4" class="s1" d="m897.7-105.3l11.1-10.6c1.3-1.2 3.3-1.1 4.5 0.1l1.6 1.7c1.2 1.3 1.2 3.3-0.1 4.5l-11.2 10.6c-1.2 1.2-3.3 1.1-4.5-0.1l-1.5-1.7c-1.3-1.2-1.2-3.3 0.1-4.5z"/>
			</g>
		</g>
		<path id="30" class="s0" aria-label="30"  d="m947.4 20.8q0.6 1.9 0.6 4.2 0 2-0.4 3.7-1.1 4.6-5.6 4.6-2.4 0-3.9-1.3-1.5-1.3-1.9-3.7-0.2-1.3-0.2-2.8 0-0.4 0.4-0.4h1.9q0.4 0 0.4 0.4 0 1.3 0.2 2.4 0.6 3.1 3.1 3.1 1.2 0 2-0.7 0.7-0.8 1.1-2.1 0.3-1.6 0.3-3.4 0-2.3-0.5-3.9-0.3-1.2-1.1-1.8-0.7-0.7-1.8-0.7-0.3 0-0.9 0.3-0.3 0.2-0.5-0.1l-1-1q-0.1-0.2 0-0.5l5-7.8q0-0.1 0-0.2 0 0-0.1 0h-7.9q-0.4 0-0.4-0.4v-1.6q0-0.4 0.4-0.4h10.9q0.4 0 0.4 0.4v1.7q0 0.2-0.2 0.5l-4.6 7.3q0 0 0 0.1 0 0.1 0.1 0.1 1.5 0.1 2.6 1.2 1.1 1 1.6 2.8zm10.8 12.6q-2.8 0-4.6-1.9-1.7-1.8-1.7-4.8v-13.6q0-3 1.7-4.9 1.8-1.8 4.6-1.8 2.9 0 4.7 1.8 1.7 1.9 1.7 4.9v13.6q0 3-1.7 4.8-1.8 1.9-4.7 1.9zm0-2.4q1.7 0 2.7-1.1 1.1-1.2 1.1-3.1v-13.9q0-1.9-1.1-3-1-1.2-2.7-1.2-1.6 0-2.7 1.2-1 1.1-1 3v13.9q0 1.9 1 3.1 1.1 1.1 2.7 1.1z"/>
		<path id="°c 拷贝 3" class="s0" aria-label="°c"  d="m968.7 8q-0.8 0-1.5-0.4-0.7-0.4-1-1-0.4-0.7-0.4-1.5 0-0.8 0.4-1.5 0.3-0.7 1-1.1 0.7-0.4 1.5-0.4 0.7 0 1.4 0.4 0.7 0.4 1.1 1.1 0.3 0.7 0.3 1.5 0 0.8-0.3 1.5-0.4 0.6-1.1 1-0.7 0.4-1.4 0.4zm0-0.9q0.8 0 1.3-0.6 0.6-0.6 0.6-1.4 0-0.9-0.6-1.5-0.5-0.6-1.3-0.6-0.9 0-1.4 0.6-0.6 0.6-0.6 1.5 0 0.8 0.6 1.4 0.5 0.6 1.4 0.6zm7.4 10q-1.4 0-2.3-0.8-0.8-0.9-0.8-2.3v-6.9q0-1.4 0.8-2.3 0.9-0.8 2.3-0.8 1.4 0 2.3 0.8 0.8 0.9 0.8 2.3v0.4q0 0.1-0.2 0.1l-0.9 0.1q-0.2 0-0.2-0.2v-0.4q0-0.9-0.5-1.4-0.5-0.6-1.3-0.6-0.8 0-1.3 0.6-0.5 0.5-0.5 1.4v7q0 0.8 0.5 1.4 0.5 0.5 1.3 0.5 0.8 0 1.3-0.5 0.5-0.6 0.5-1.4v-0.5q0-0.2 0.2-0.2l0.9 0.1q0.2 0 0.2 0.2v0.3q0 1.4-0.8 2.3-0.9 0.8-2.3 0.8z"/>
		<path id="thur" class="s0" aria-label="thur"  d="m923.6-309.9q0.7 0 0.7 0.7v3.1q0 0.7-0.7 0.7h-9.6q-0.3 0-0.3 0.3v45.4q0 0.7-0.7 0.7h-3.8q-0.7 0-0.7-0.7v-45.4q0-0.3-0.3-0.3h-9q-0.7 0-0.7-0.7v-3.1q0-0.7 0.7-0.7zm20.7 13.6q4.5 0 6.9 3 2.4 3.1 2.4 8.6v25q0 0.7-0.7 0.7h-3.7q-0.7 0-0.7-0.7v-24.6q0-3.6-1.6-5.5-1.5-2-4.3-2-2.9 0-4.6 2.1-1.6 2.1-1.6 5.8v24.2q0 0.7-0.7 0.7h-3.7q-0.8 0-0.8-0.7v-49.5q0-0.7 0.8-0.7h3.7q0.7 0 0.7 0.7v16.4q0 0.2 0.2 0.3 0.1 0 0.2-0.2 1.3-1.8 3.2-2.7 2.1-0.9 4.3-0.9zm34.6 1.2q0-0.7 0.7-0.7h3.7q0.8 0 0.8 0.7v35.4q0 0.7-0.8 0.7h-3.7q-0.7 0-0.7-0.7v-2.5q0-0.2-0.2-0.2 0 0-0.2 0.1-2.2 3.8-7.2 3.8-4.4 0-7-2.6-2.6-2.7-2.6-8.1v-25.9q0-0.7 0.8-0.7h3.7q0.7 0 0.7 0.7v24.8q0 3.6 1.4 5.5 1.6 1.8 4.4 1.8 2.9 0 4.5-2.1 1.7-2.1 1.7-5.8zm26.5-1q1.8 0 3.1 0.8 0.5 0.2 0.4 0.9l-0.9 3.8q-0.1 0.6-0.9 0.4-0.9-0.4-2.2-0.4-0.6 0-0.8 0.1-2.7 0.1-4.3 2.7-1.7 2.6-1.7 6.3v21.8q0 0.7-0.7 0.7h-3.7q-0.8 0-0.8-0.7v-35.4q0-0.7 0.8-0.7h3.7q0.7 0 0.7 0.7v4.4q0 0.2 0.1 0.2 0.1 0 0.3-0.1 2.1-5.5 6.9-5.5z"/>
	</g>
	<g id="5">
		<path id="5" class="s6" d="m1156-341h238c11 0 20 9 20 20v368c0 11-9 20-20 20h-238c-11 0-20-9-20-20v-368c0-11 9-20 20-20z"/>
		<g id="组 3">
			<path id="椭圆 4 拷贝 3" class="s10" d="m1207.5-174.2c12.5 0 22.5 10.1 22.5 22.5 0 12.4-10 22.5-22.5 22.5-12.4 0-22.5-10.1-22.5-22.5 0-12.4 10.1-22.5 22.5-22.5zm30.2-31.3c16.2 0 29.2 13 29.2 29.1 0 16.1-13 29.2-29.2 29.2-16.1 0-29.2-13.1-29.2-29.2 0-16.1 13.1-29.1 29.2-29.1zm55.5-19.5c20.6 0 37.4 16.7 37.4 37.3 0 20.6-16.8 37.3-37.4 37.3-20.6 0-37.3-16.7-37.3-37.3 0-20.6 16.7-37.3 37.3-37.3zm43.5 34.8c13.3 0 24.1 10.8 24.1 24.1 0 13.3-10.8 24.1-24.1 24.1-13.3 0-24.1-10.8-24.1-24.1 0-13.3 10.8-24.1 24.1-24.1zm-88.4 17.8c17.9 0 32.3 14.4 32.3 32.2 0 17.8-14.4 32.2-32.3 32.2-17.8 0-32.2-14.4-32.2-32.2 0-17.8 14.4-32.2 32.2-32.2zm50.7-7.9c17.4 0 31.6 14.1 31.6 31.5 0 17.4-14.2 31.5-31.6 31.5-17.4 0-31.5-14.1-31.5-31.5 0-17.4 14.1-31.5 31.5-31.5zm29.2 23.2c10 0 18.1 8.1 18.1 18 0 10-8.1 18-18.1 18-9.9 0-18-8-18-18 0-9.9 8.1-18 18-18zm-69.3-61.5c8.5 0 15.3 6.8 15.3 15.2 0 8.4-6.8 15.3-15.3 15.3-8.4 0-15.2-6.9-15.2-15.3 0-8.4 6.8-15.2 15.2-15.2zm104.9 37.1c10.1 0 18.2 8.2 18.2 18.2 0 10-8.1 18.1-18.2 18.1-10 0-18.1-8.1-18.1-18.1 0-10 8.1-18.2 18.1-18.2zm-5.8 21.8c11.7 0 21.1 9.4 21.1 21.1 0 11.6-9.4 21-21.1 21-11.6 0-21-9.4-21-21 0-11.7 9.4-21.1 21-21.1z"/>
			<path id="形状 2" class="s11" d="m1203-118c0 0 87.8 0 93 0 5.2 0 25.2-6.9 22-29-3.2-22.1-30.1-19.6-35-6-4.9 13.6 8.9 25.7 22 13"/>
			<path id="形状 3" class="s11" d="m1203-108c0 0 71 0 77 0 6 0 22.7 5.7 23 17"/>
			<path id="形状 4" class="s11" d="m1203-98h55"/>
		</g>
		<path id="22" class="s0" aria-label="22"  d="m1259.3 30.5q0 0.1 0 0.1 0.1 0.1 0.2 0.1h8.8q0.3 0 0.3 0.3v1.6q0 0.4-0.3 0.4h-11.8q-0.4 0-0.4-0.4v-1.7q0-0.3 0.2-0.5 1.1-1.8 1.3-2.1 3.3-5.2 5.2-8.4 2.4-4.2 2.4-6.9 0-1.9-0.9-3.1-0.9-1.1-2.4-1.1-1.4 0-2.3 1.1-0.9 1.2-0.8 3v1.5q0 0.3-0.4 0.3h-1.9q-0.4 0-0.4-0.3v-1.5q0.1-2.9 1.7-4.7 1.6-1.8 4.2-1.8 2.7 0 4.3 1.9 1.6 1.8 1.6 4.7 0 3.6-2.7 8-1.3 2.3-3.8 6.1zm15.1 0q0 0.1 0 0.2 0.1 0 0.1 0h8.8q0.4 0 0.4 0.4v1.6q0 0.4-0.4 0.4h-11.7q-0.4 0-0.4-0.4v-1.7q0-0.3 0.1-0.5 1.2-1.8 1.4-2.1 3.3-5.2 5.2-8.5 2.4-4.1 2.4-6.8 0-1.9-0.9-3.1-0.9-1.2-2.4-1.2-1.4 0-2.3 1.2-0.9 1.1-0.8 3v1.4q0 0.4-0.4 0.4h-2q-0.3 0-0.3-0.4v-1.5q0-2.9 1.6-4.6 1.7-1.8 4.3-1.8 2.6 0 4.3 1.8 1.6 1.8 1.6 4.8 0 3.5-2.7 8-1.3 2.2-3.8 6.1z"/>
		<path id="°c 拷贝 4" class="s0" aria-label="°c"  d="m1288.7 8q-0.8 0-1.5-0.4-0.7-0.4-1-1-0.4-0.7-0.4-1.5 0-0.8 0.4-1.5 0.3-0.7 1-1.1 0.7-0.4 1.5-0.4 0.7 0 1.4 0.4 0.7 0.4 1.1 1.1 0.3 0.7 0.3 1.5 0 0.8-0.3 1.5-0.4 0.6-1.1 1-0.7 0.4-1.4 0.4zm0-0.9q0.8 0 1.3-0.6 0.6-0.6 0.6-1.4 0-0.9-0.6-1.5-0.5-0.6-1.3-0.6-0.9 0-1.4 0.6-0.6 0.6-0.6 1.5 0 0.8 0.6 1.4 0.5 0.6 1.4 0.6zm7.4 10q-1.4 0-2.3-0.8-0.8-0.9-0.8-2.3v-6.9q0-1.4 0.8-2.3 0.9-0.8 2.3-0.8 1.4 0 2.3 0.8 0.8 0.9 0.8 2.3v0.4q0 0.1-0.2 0.1l-0.9 0.1q-0.2 0-0.2-0.2v-0.4q0-0.9-0.5-1.4-0.5-0.6-1.3-0.6-0.8 0-1.3 0.6-0.5 0.5-0.5 1.4v7q0 0.8 0.5 1.4 0.5 0.5 1.3 0.5 0.8 0 1.3-0.5 0.5-0.6 0.5-1.4v-0.5q0-0.2 0.2-0.2l0.9 0.1q0.2 0 0.2 0.2v0.3q0 1.4-0.8 2.3-0.9 0.8-2.3 0.8z"/>
		<path id="fri" class="s0" aria-label="fri"  d="m1268.2-306.1q0 0.7-0.8 0.7h-16.7q-0.3 0-0.3 0.3v18q0 0.3 0.3 0.3h10.5q0.8 0 0.8 0.7v3.2q0 0.7-0.8 0.7h-10.5q-0.3 0-0.3 0.3v22.2q0 0.7-0.7 0.7h-3.7q-0.8 0-0.8-0.7v-49.5q0-0.7 0.8-0.7h21.4q0.8 0 0.8 0.7zm16.2 10q1.8 0 3.1 0.8 0.5 0.3 0.4 0.9l-0.9 3.8q-0.1 0.7-0.9 0.4-0.8-0.4-2.2-0.4-0.5 0-0.8 0.1-2.6 0.1-4.3 2.7-1.7 2.6-1.7 6.3v21.8q0 0.7-0.7 0.7h-3.7q-0.8 0-0.8-0.7v-35.3q0-0.8 0.8-0.8h3.7q0.7 0 0.7 0.8v4.3q0 0.2 0.1 0.2 0.1 0 0.3-0.1 2.1-5.5 6.9-5.5zm11.9-6.4q-1.8 0-3-1.1-1.1-1.2-1.1-2.9 0-1.8 1.1-2.9 1.2-1.2 3-1.2 1.8 0 2.8 1.2 1.2 1.1 1.2 2.9 0 1.7-1.2 2.9-1 1.1-2.8 1.1zm-1.8 43.5q-0.7 0-0.7-0.7v-35.3q0-0.8 0.7-0.8h3.7q0.7 0 0.7 0.8v35.3q0 0.7-0.7 0.7z"/>
	</g>
	<g id="5">
		<path id="6" class="s6" d="m1472-341h238c11 0 20 9 20 20v368c0 11-9 20-20 20h-238c-11 0-20-9-20-20v-368c0-11 9-20 20-20z"/>
		<g id="组 3 拷贝">
			<path id="椭圆 4 拷贝 3" class="s12" d="m1525.5-170.2c12.5 0 22.5 10.1 22.5 22.5 0 12.4-10 22.5-22.5 22.5-12.4 0-22.5-10.1-22.5-22.5 0-12.4 10.1-22.5 22.5-22.5zm30.2-31.3c16.2 0 29.2 13 29.2 29.1 0 16.1-13 29.2-29.2 29.2-16.1 0-29.2-13.1-29.2-29.2 0-16.1 13.1-29.1 29.2-29.1zm55.5-19.5c20.6 0 37.4 16.7 37.4 37.3 0 20.6-16.8 37.3-37.4 37.3-20.6 0-37.3-16.7-37.3-37.3 0-20.6 16.7-37.3 37.3-37.3zm43.5 34.8c13.3 0 24.1 10.8 24.1 24.1 0 13.3-10.8 24.1-24.1 24.1-13.3 0-24.1-10.8-24.1-24.1 0-13.3 10.8-24.1 24.1-24.1zm-88.4 17.8c17.9 0 32.3 14.4 32.3 32.2 0 17.8-14.4 32.2-32.3 32.2-17.8 0-32.2-14.4-32.2-32.2 0-17.8 14.4-32.2 32.2-32.2zm50.7-7.9c17.4 0 31.6 14.1 31.6 31.5 0 17.4-14.2 31.5-31.6 31.5-17.4 0-31.5-14.1-31.5-31.5 0-17.4 14.1-31.5 31.5-31.5zm29.2 23.2c10 0 18.1 8.1 18.1 18 0 10-8.1 18-18.1 18-9.9 0-18-8-18-18 0-9.9 8.1-18 18-18zm-69.3-61.5c8.5 0 15.3 6.8 15.3 15.2 0 8.4-6.8 15.3-15.3 15.3-8.4 0-15.2-6.9-15.2-15.3 0-8.4 6.8-15.2 15.2-15.2zm104.9 37.1c10.1 0 18.2 8.2 18.2 18.2 0 10-8.1 18.1-18.2 18.1-10 0-18.1-8.1-18.1-18.1 0-10 8.1-18.2 18.1-18.2zm-5.8 21.8c11.7 0 21.1 9.4 21.1 21.1 0 11.6-9.4 21-21.1 21-11.6 0-21-9.4-21-21 0-11.7 9.4-21.1 21-21.1z"/>
			<path id="形状 2" class="s11" d="m1521-114c0 0 87.8 0 93 0 5.2 0 25.2-6.9 22-29-3.2-22.1-30.1-19.6-35-6-4.9 13.6 8.9 25.7 22 13"/>
			<path id="形状 3" class="s11" d="m1521-104c0 0 71 0 77 0 6 0 22.7 5.7 23 17"/>
			<path id="形状 4" class="s11" d="m1521-94h55"/>
		</g>
		<path id="20" class="s0" aria-label="20"  d="m1581.3 35.5q0 0.1 0 0.1 0.1 0.1 0.2 0.1h8.8q0.3 0 0.3 0.3v1.6q0 0.4-0.3 0.4h-11.8q-0.4 0-0.4-0.4v-1.7q0-0.3 0.2-0.5 1.1-1.8 1.3-2.1 3.3-5.2 5.2-8.4 2.4-4.2 2.4-6.9 0-1.9-0.9-3.1-0.9-1.1-2.4-1.1-1.4 0-2.3 1.1-0.9 1.2-0.8 3v1.5q0 0.3-0.4 0.3h-1.9q-0.4 0-0.4-0.3v-1.5q0.1-2.9 1.7-4.7 1.6-1.8 4.2-1.8 2.7 0 4.3 1.9 1.6 1.8 1.6 4.7 0 3.6-2.7 8-1.3 2.3-3.8 6.1zm18.7 2.9q-2.9 0-4.6-1.8-1.8-1.9-1.8-4.9v-13.6q0-3 1.8-4.8 1.7-1.9 4.6-1.9 2.9 0 4.6 1.9 1.8 1.8 1.8 4.8v13.6q0 3-1.8 4.9-1.7 1.8-4.6 1.8zm0-2.3q1.7 0 2.7-1.2 1-1.1 1-3v-13.9q0-1.9-1-3.1-1-1.1-2.7-1.1-1.7 0-2.7 1.1-1 1.2-1 3.1v13.9q0 1.9 1 3 1 1.2 2.7 1.2z"/>
		<path id="°c 拷贝 5" class="s0" aria-label="°c"  d="m1610.7 13q-0.8 0-1.5-0.4-0.7-0.4-1-1-0.4-0.7-0.4-1.5 0-0.8 0.4-1.5 0.3-0.7 1-1.1 0.7-0.4 1.5-0.4 0.7 0 1.4 0.4 0.7 0.4 1.1 1.1 0.3 0.7 0.3 1.5 0 0.8-0.3 1.5-0.4 0.6-1.1 1-0.7 0.4-1.4 0.4zm0-0.9q0.8 0 1.3-0.6 0.6-0.6 0.6-1.4 0-0.9-0.6-1.5-0.5-0.6-1.3-0.6-0.9 0-1.4 0.6-0.6 0.6-0.6 1.5 0 0.8 0.6 1.4 0.5 0.6 1.4 0.6zm7.4 10q-1.4 0-2.3-0.8-0.8-0.9-0.8-2.3v-6.9q0-1.4 0.8-2.3 0.9-0.8 2.3-0.8 1.4 0 2.3 0.8 0.8 0.9 0.8 2.3v0.4q0 0.1-0.2 0.1l-0.9 0.1q-0.2 0-0.2-0.2v-0.4q0-0.9-0.5-1.4-0.5-0.6-1.3-0.6-0.8 0-1.3 0.6-0.5 0.5-0.5 1.4v7q0 0.8 0.5 1.4 0.5 0.5 1.3 0.5 0.8 0 1.3-0.5 0.5-0.6 0.5-1.4v-0.5q0-0.2 0.2-0.2l0.9 0.1q0.2 0 0.2 0.2v0.3q0 1.4-0.8 2.3-0.9 0.8-2.3 0.8z"/>
		<path id="sat" class="s0" aria-label="sat"  d="m1573.1-254.4q-5.3 0-8.7-3.6-3.3-3.5-3.3-9.3v-1.7q0-0.7 0.7-0.7h3.6q0.7 0 0.7 0.7v1.5q0 3.8 1.9 6.2 2 2.4 5.1 2.4 3.1 0 5.1-2.3 2.1-2.2 2.1-5.9 0-2.5-1.1-4.3-0.9-1.8-2.5-3.1-1.5-1.4-5.2-4.1-3.6-2.7-5.7-4.6-2.1-2-3.5-4.7-1.3-2.7-1.3-6.3 0-5.7 3.3-9 3.2-3.3 8.5-3.3 5.5 0 8.8 3.6 3.3 3.6 3.3 9.6v1.8q0 0.7-0.7 0.7h-3.6q-0.8 0-0.8-0.7v-1.9q0-3.9-1.9-6.2-1.9-2.4-5.1-2.4-2.9 0-4.8 2.1-1.9 2.1-1.9 5.8 0 2.3 0.8 4 0.9 1.7 2.5 3.2 1.7 1.6 5 4 4.3 3.2 6.4 5.3 2.2 1.9 3.4 4.3 1.2 2.4 1.2 5.7 0 6-3.5 9.6-3.4 3.6-8.8 3.6zm30.4-38q5.1 0 8.1 3.4 3.1 3.2 3.1 8.8v24.5q0 0.7-0.8 0.7h-3.7q-0.7 0-0.7-0.7v-2.2q0-0.2-0.1-0.2-0.1 0-0.3 0.1-2.6 3.6-8 3.6-4 0-7-2.3-2.9-2.3-2.9-8.1 0-6.2 3.5-9 3.6-2.9 9.4-2.9h5.1q0.3 0 0.3-0.3v-2.9q0-3.6-1.7-5.8-1.6-2.2-4.5-2.2-2.2 0-3.8 1.5-1.5 1.4-1.8 3.7 0 0.7-0.7 0.7l-4.1-0.1q-0.3 0-0.6-0.2-0.1-0.2 0-0.5 0.3-4.3 3.5-6.9 3.1-2.7 7.7-2.7zm-1.3 33.5q2.9 0 5.1-1.9 2.2-2 2.2-5.4v-6.1q0-0.3-0.3-0.3h-5.1q-3.5 0-5.6 1.9-2 1.8-2 5.4 0 3.2 1.5 4.8 1.6 1.6 4.2 1.6zm33.5-29.8q0 0.7-0.7 0.7h-5.6q-0.3 0-0.3 0.3v22.3q0 3.3 1.2 4.7 1.2 1.2 3.6 1.1h0.7q0.7 0 0.7 0.7v3.2q0 0.7-0.7 0.7h-1.8q-4.3 0-6.6-1.8-2.1-1.9-2.1-7.1v-23.8q0-0.3-0.3-0.3h-2.9q-0.7 0-0.7-0.7v-2.4q0-0.7 0.7-0.7h2.9q0.3 0 0.3-0.3v-8.1q0-0.8 0.7-0.8h3.6q0.7 0 0.7 0.8v8.1q0 0.3 0.3 0.3h5.6q0.7 0 0.7 0.7z"/>
	</g>
	<path id="7" class="s6" d="m1794-341h238c11 0 20 9 20 20v368c0 11-9 20-20 20h-238c-11 0-20-9-20-20v-368c0-11 9-20 20-20z"/>
	<g id="组 1 拷贝 2">
		<path id="椭圆 4 拷贝 2" class="s13" d="m1836.5-175.2c12.5 0 22.5 10.1 22.5 22.5 0 12.4-10 22.5-22.5 22.5-12.4 0-22.5-10.1-22.5-22.5 0-12.4 10.1-22.5 22.5-22.5zm30.2-31.3c16.2 0 29.2 13 29.2 29.1 0 16.1-13 29.2-29.2 29.2-16.1 0-29.2-13.1-29.2-29.2 0-16.1 13.1-29.1 29.2-29.1zm55.5-19.5c20.6 0 37.4 16.7 37.4 37.3 0 20.6-16.8 37.3-37.4 37.3-20.6 0-37.3-16.7-37.3-37.3 0-20.6 16.7-37.3 37.3-37.3zm43.5 34.8c13.3 0 24.1 10.8 24.1 24.1 0 13.3-10.8 24.1-24.1 24.1-13.3 0-24.1-10.8-24.1-24.1 0-13.3 10.8-24.1 24.1-24.1zm-88.4 17.8c17.9 0 32.3 14.4 32.3 32.2 0 17.8-14.4 32.2-32.3 32.2-17.8 0-32.2-14.4-32.2-32.2 0-17.8 14.4-32.2 32.2-32.2zm50.7-7.9c17.4 0 31.6 14.1 31.6 31.5 0 17.4-14.2 31.5-31.6 31.5-17.4 0-31.5-14.1-31.5-31.5 0-17.4 14.1-31.5 31.5-31.5zm29.2 23.2c10 0 18.1 8.1 18.1 18 0 10-8.1 18-18.1 18-9.9 0-18-8-18-18 0-9.9 8.1-18 18-18zm-69.3-61.5c8.5 0 15.3 6.8 15.3 15.2 0 8.4-6.8 15.3-15.3 15.3-8.4 0-15.2-6.9-15.2-15.3 0-8.4 6.8-15.2 15.2-15.2zm104.9 37.1c10.1 0 18.2 8.2 18.2 18.2 0 10-8.1 18.1-18.2 18.1-10 0-18.1-8.1-18.1-18.1 0-10 8.1-18.2 18.1-18.2zm-5.8 21.8c11.7 0 21.1 9.4 21.1 21.1 0 11.6-9.4 21-21.1 21-11.6 0-21-9.4-21-21 0-11.7 9.4-21.1 21-21.1z"/>
		<path id="圆角矩形 3" class="s8" d="m1884.7-138.7c2.5 0.2 4.2 2.4 3.9 4.7l-2.4 20.8c-0.2 2.2-2.3 3.8-4.7 3.6-2.3-0.3-4-2.3-3.8-4.5l2.2-20.8c0.2-2.4 2.4-4.1 4.8-3.8z"/>
		<path id="圆角矩形 3 拷贝" class="s8" d="m1906.5-126.7c2.4 0.2 4 2.3 3.7 4.6l-3 20.2c-0.4 2.1-2.5 3.7-4.8 3.4-2.3-0.2-3.9-2.2-3.6-4.3l2.7-20.2c0.4-2.3 2.6-4 5-3.7z"/>
		<path id="圆角矩形 3 拷贝 2" class="s8" d="m1932.6-143.8c2.5 0.3 4.1 2.5 3.7 4.9l-3.9 21.2c-0.4 2.3-2.6 3.9-5 3.7-2.3-0.3-3.9-2.3-3.6-4.6l3.6-21.2c0.5-2.4 2.8-4.2 5.2-4z"/>
		<path id="圆角矩形 3 拷贝 3" class="s8" d="m1950.9-116.8c2.4 0.2 4 2.3 3.5 4.5l-4.3 19.8c-0.4 2.1-2.7 3.6-4.9 3.4-2.3-0.3-3.8-2.2-3.4-4.3l4-19.8c0.5-2.2 2.8-3.9 5.1-3.6z"/>
		<path id="圆角矩形 3 拷贝 4" class="s8" d="m1979.5-138.9c2.4 0.3 3.9 2.4 3.3 4.8l-5.2 21.1c-0.6 2.3-2.9 3.9-5.3 3.6-2.3-0.2-3.8-2.2-3.3-4.5l5-21.1c0.5-2.4 3-4.1 5.5-3.9z"/>
		<path id="圆角矩形 3 拷贝 5" class="s8" d="m1921-98.8c2.3 0.2 3.9 2.1 3.5 4.2l-2.9 18.4c-0.4 1.9-2.4 3.3-4.6 3.1-2.2-0.2-3.7-2-3.4-4l2.7-18.3c0.3-2.1 2.4-3.6 4.7-3.4z"/>
		<path id="圆角矩形 3 拷贝 6" class="s8" d="m1868-104.8c2.3 0.2 3.9 2.1 3.5 4.2l-2.9 18.4c-0.4 1.9-2.4 3.3-4.6 3.1-2.2-0.2-3.7-2-3.4-4l2.7-18.3c0.3-2.1 2.4-3.6 4.7-3.4z"/>
		<path id="圆角矩形 3 拷贝 7" class="s8" d="m1847-139.8c2.3 0.2 3.9 2.1 3.5 4.2l-2.9 18.4c-0.4 1.9-2.4 3.3-4.6 3.1-2.2-0.2-3.7-2-3.4-4l2.7-18.3c0.3-2.1 2.4-3.6 4.7-3.4z"/>
	</g>
	<path id="18" class="s0" aria-label="18"  d="m1901.1 3.9q0.2-0.2 0.5-0.2h2q0.4 0 0.4 0.4v25.5q0 0.4-0.4 0.4h-1.9q-0.4 0-0.4-0.4v-22.7q0-0.1 0-0.1-0.1-0.1-0.1 0l-3.6 1.1-0.1 0.1q-0.2 0-0.3-0.4l-0.2-1.3v-0.1q0-0.2 0.3-0.4zm16.1 12.1q-0.2 0.1 0 0.2 1.4 0.8 2 2.2 0.8 1.8 0.8 4.3 0 2.1-0.5 3.6-0.6 1.9-2.1 3-1.4 1.1-3.4 1.1-1.9 0-3.3-1.1-1.4-1-2.1-3-0.5-1.6-0.5-3.6 0-2.4 0.7-4.1 0.7-1.5 2.1-2.4 0.2-0.1 0-0.2-1.2-0.6-2-2-0.8-1.6-0.8-3.8 0-2.3 0.8-3.9 0.7-1.3 2.1-2.1 1.3-0.8 3-0.8 1.8 0 3.1 0.8 1.3 0.7 2 2.1 0.9 1.5 0.9 3.9 0 2.3-0.8 3.7-0.7 1.4-2 2.1zm-5.9-8.4q-0.6 1.1-0.6 2.8 0 1.7 0.6 2.8 0.9 1.8 2.7 1.8 1 0 1.8-0.5 0.7-0.5 1.1-1.4 0.5-1.2 0.5-2.7 0-1.8-0.6-2.9-0.9-1.8-2.8-1.8-1.9 0-2.7 1.9zm5.8 17.6q0.3-1.2 0.3-2.6 0-2-0.5-3.2-0.8-2.2-2.9-2.2-1 0-1.7 0.6-0.7 0.6-1.1 1.7-0.5 1.2-0.5 3.1 0 1.5 0.4 2.7 0.3 1.3 1.1 2 0.7 0.7 1.8 0.7 1.2 0 1.9-0.7 0.9-0.7 1.2-2.1z"/>
	<path id="°c 拷贝 6" class="s0" aria-label="°c"  d="m1930.7 5q-0.8 0-1.5-0.4-0.7-0.4-1-1-0.4-0.7-0.4-1.5 0-0.8 0.4-1.5 0.3-0.7 1-1.1 0.7-0.4 1.5-0.4 0.7 0 1.4 0.4 0.7 0.4 1.1 1.1 0.3 0.7 0.3 1.5 0 0.8-0.3 1.5-0.4 0.6-1.1 1-0.7 0.4-1.4 0.4zm0-0.9q0.8 0 1.3-0.6 0.6-0.6 0.6-1.4 0-0.9-0.6-1.5-0.5-0.6-1.3-0.6-0.9 0-1.4 0.6-0.6 0.6-0.6 1.5 0 0.8 0.6 1.4 0.5 0.6 1.4 0.6zm7.4 10q-1.4 0-2.3-0.8-0.8-0.9-0.8-2.3v-6.9q0-1.4 0.8-2.3 0.9-0.8 2.3-0.8 1.4 0 2.3 0.8 0.8 0.9 0.8 2.3v0.4q0 0.1-0.2 0.1l-0.9 0.1q-0.2 0-0.2-0.2v-0.4q0-0.9-0.5-1.4-0.5-0.6-1.3-0.6-0.8 0-1.3 0.6-0.5 0.5-0.5 1.4v7q0 0.8 0.5 1.4 0.5 0.5 1.3 0.5 0.8 0 1.3-0.5 0.5-0.6 0.5-1.4v-0.5q0-0.2 0.2-0.2l0.9 0.1q0.2 0 0.2 0.2v0.3q0 1.4-0.8 2.3-0.9 0.8-2.3 0.8z"/>
	<path id="sun" class="s0" aria-label="sun"  d="m1872.1-258.4q-5.3 0-8.7-3.6-3.3-3.5-3.3-9.3v-1.7q0-0.7 0.7-0.7h3.6q0.7 0 0.7 0.7v1.5q0 3.8 1.9 6.2 2 2.4 5.1 2.4 3.1 0 5.1-2.3 2.1-2.2 2.1-5.9 0-2.5-1.1-4.3-0.9-1.8-2.5-3.1-1.5-1.4-5.2-4.1-3.6-2.7-5.7-4.6-2.1-2-3.5-4.7-1.3-2.7-1.3-6.3 0-5.7 3.3-9 3.2-3.3 8.5-3.3 5.5 0 8.8 3.6 3.3 3.6 3.3 9.6v1.8q0 0.7-0.7 0.7h-3.6q-0.8 0-0.8-0.7v-1.9q0-3.9-1.9-6.2-1.9-2.4-5.1-2.4-2.9 0-4.8 2.1-1.9 2.1-1.9 5.8 0 2.3 0.8 4 0.9 1.7 2.5 3.2 1.7 1.6 5 4 4.3 3.2 6.4 5.3 2.2 1.9 3.4 4.3 1.2 2.4 1.2 5.7 0 6-3.5 9.6-3.4 3.6-8.8 3.6zm36.4-36.7q0-0.7 0.7-0.7h3.7q0.8 0 0.8 0.7v35.4q0 0.7-0.8 0.7h-3.7q-0.7 0-0.7-0.7v-2.5q0-0.2-0.1-0.2-0.1 0-0.3 0.1-2.2 3.8-7.2 3.8-4.4 0-7-2.6-2.6-2.7-2.6-8.1v-25.9q0-0.7 0.8-0.7h3.7q0.7 0 0.7 0.7v24.8q0 3.6 1.5 5.5 1.5 1.8 4.3 1.8 2.9 0 4.5-2.1 1.7-2.1 1.7-5.8zm27.1-1.2q4.5 0 6.9 3.1 2.5 3 2.5 8.5v25q0 0.7-0.8 0.7h-3.7q-0.7 0-0.7-0.7v-24.6q0-3.6-1.6-5.5-1.5-2-4.3-2-2.9 0-4.6 2.1-1.6 2.1-1.6 5.8v24.2q0 0.7-0.7 0.7h-3.7q-0.8 0-0.8-0.7v-35.4q0-0.7 0.8-0.7h3.7q0.7 0 0.7 0.7v2.4q0 0.1 0.2 0.2 0.1 0.1 0.2-0.2 1.3-1.8 3.2-2.6 2.1-1 4.3-1z"/>
</svg>